<svg xmlns="http://www.w3.org/2000/svg" version="1.1" viewBox="-5.0 -10.0 110.0 135.0">
 <path d="m58.332 75c0 4.5977-3.7383 8.332-8.332 8.332-4.5977 0-8.332-3.7383-8.332-8.332 0-4.5977 3.7383-8.332 8.332-8.332 4.5977 0 8.332 3.7344 8.332 8.332zm-26.012-17.676 5.8906 5.8906c6.3008-6.3008 17.27-6.3008 23.57 0l5.8906-5.8906c-4.7188-4.7188-10.992-7.3242-17.672-7.3242s-12.953 2.6055-17.68 7.3242zm-11.781-11.785 5.8906 5.8906c6.2969-6.2969 14.668-9.7617 23.57-9.7617s17.273 3.4648 23.57 9.7617l5.8906-5.8906c-7.8633-7.8711-18.328-12.207-29.461-12.207-11.129 0-21.59 4.3359-29.461 12.207zm-11.785-11.785 5.8906 5.8906c19.496-19.496 51.211-19.496 70.711 0l5.8906-5.8906c-22.75-22.746-59.754-22.742-82.492 0z"/>
<text x="0.0" y="117.5" font-size="5.0" font-weight="bold" font-family="Arbeit Regular, Helvetica, Arial-Unicode, Arial, Sans-serif" fill="#000000">Created by Skena Grafis</text><text x="0.0" y="122.5" font-size="5.0" font-weight="bold" font-family="Arbeit Regular, Helvetica, Arial-Unicode, Arial, Sans-serif" fill="#000000">from Noun Project</text></svg>