<svg xmlns="http://www.w3.org/2000/svg" version="1.1" viewBox="-5.0 -10.0 110.0 135.0">
 <path d="m53.324 41.715c0 0.69922-0.57031 1.2695-1.2695 1.2695h-4.1094c-0.69922 0-1.2695-0.57031-1.2695-1.2695 0-0.69922 0.57031-1.2695 1.2695-1.2695h4.1094c0.69922 0 1.2695 0.57031 1.2695 1.2695zm25.48 34.188v13.453c0 0.69922-0.57031 1.2695-1.2695 1.2695h-55.07c-0.69922 0-1.2695-0.57031-1.2695-1.2695v-13.453c0-2.832 0.59766-5.5625 1.7773-8.1133 1.1289-2.4375 2.7227-4.5742 4.7383-6.3633 0.003906-0.003906 0.007812-0.007812 0.011718-0.011719 0.019532-0.015624 0.035156-0.035156 0.050782-0.050781 2.4258-2.1328 5.3633-3.6328 8.5-4.3359 1.3906-0.3125 2.8242-0.47266 4.2656-0.47266h0.61719v-2.0156c0-0.38672 0.17578-0.75 0.47656-0.99219 0.30078-0.24219 0.69531-0.33203 1.0703-0.25l0.91016 0.20312v-1.6133l-0.11328-0.03125c-0.55078-0.15234-0.9375-0.65234-0.9375-1.2266v-0.67969c-6.3945-2.7891-9.5859-11.355-10.617-14.746-0.96484-0.55469-1.5859-1.5547-1.5781-2.6953l0.015624-2.5859c-0.027343-0.42578-0.042968-0.86328-0.042968-1.3008 0-0.5 0.035156-0.99219 0.074218-1.4883 0.15625-2.0703 0.62891-4.0898 1.4414-6.0078 0.96875-2.293 2.3594-4.3516 4.125-6.1172 1.7656-1.7695 3.8281-3.1562 6.1172-4.125 1.1016-0.46484 2.2383-0.8125 3.3984-1.0664 0.007812-0.003906 0.015625-0.003906 0.027344-0.007812 1.3281-0.28516 2.6875-0.44141 4.0703-0.44141 0.13672 0 0.27344 0 0.41016 0.003906 0.13672-0.003906 0.27344-0.003906 0.41016-0.003906 2.5977 0 5.1211 0.50781 7.4922 1.5117 0.51172 0.21875 0.96875 0.53125 1.457 0.78906 0.27734 0.050781 0.51562 0.17969 0.70312 0.37891 1.4258 0.83203 2.7773 1.7734 3.9609 2.957 0.78906 0.78906 1.4727 1.6523 2.1055 2.5508 0.058594 0.066406 0.125 0.12891 0.16797 0.20312 0.72266 1.0547 1.3477 2.1758 1.8516 3.3633 1.0039 2.375 1.5117 4.8945 1.5117 7.4922 0 0.4375-0.015624 0.875-0.042968 1.3008l0.015625 2.5859c0.007812 1.0273-0.48828 1.9414-1.2891 2.5234-0.46484 1.4883-1.5039 4.4453-3.2031 7.4062-2.2148 3.8633-4.8125 6.3867-7.7031 7.6523v0.53125c0 0.57422-0.38281 1.0742-0.9375 1.2266l-0.11328 0.03125v1.6133l0.91016-0.20312c0.375-0.082031 0.76953 0.007812 1.0703 0.25 0.30078 0.24219 0.47656 0.60547 0.47656 0.99219v2.0156h0.61719c1.4414 0 2.875 0.16016 4.2656 0.47266 3.1367 0.70703 6.0742 2.207 8.5 4.3359 0.019531 0.015625 0.035156 0.035156 0.050781 0.050782 0.003906 0.003906 0.007812 0.007812 0.011719 0.011718 2.0156 1.7852 3.6094 3.9258 4.7383 6.3633 1.1797 2.5508 1.7773 5.2812 1.7773 8.1133zm-12.172 12.184h1.5664v-4.7539h-1.5664zm3.4844-17.445v-7.6992c-1.6055-1.3203-3.4375-2.332-5.4023-2.9805v10.684c0 1.4883 1.2109 2.7031 2.7031 2.7031 1.4883 0 2.7031-1.2109 2.7031-2.7031zm-26.422-12.051 0.09375 0.019531c4.0625 0.90234 8.3555 0.90234 12.418 0l0.09375-0.019531v-2.4648c-0.25 0.050781-0.50781 0.070312-0.75781 0.11719-0.13281 0.046874-0.27344 0.085937-0.42578 0.085937-0.019532 0-0.039063-0.011719-0.058594-0.011719-3.3438 0.54688-6.7773 0.54688-10.121 0-0.019531 0-0.039062 0.011719-0.058594 0.011719-0.15234 0-0.29297-0.039063-0.42969-0.085937-0.25-0.046876-0.50781-0.0625-0.75391-0.11719v2.4688zm11.203-8.9258v-2.4492c-3.2188 0.75781-6.5781 0.75781-9.7969 0v2.4492c3.207 0.86328 6.5898 0.86328 9.7969 0zm5.8633-18.199c-0.46484-0.19531-0.96094-0.30859-1.4727-0.30859h-18.578c-0.53125 0-1.0508 0.11328-1.5273 0.32031 0.29297 2.7852 1.2148 8.7578 3.8008 13.168 0.03125-0.027343 0.042969-0.066406 0.074219-0.089843 0.3125-0.23828 0.72266-0.32031 1.1055-0.21484l0.88672 0.24219c3.2383 0.88281 6.6602 0.88281 9.8945 0l0.88672-0.24219c0.38281-0.10547 0.78906-0.023438 1.1055 0.21484 0.023438 0.015624 0.03125 0.042968 0.050781 0.0625 2.4922-4.3516 3.4531-10.336 3.7734-13.152zm-14.613 20.992v1.4766c2.5508 0.34375 5.1484 0.34375 7.6992 0v-1.4727c-1.2734 0.23437-2.5586 0.39453-3.8477 0.39453-1.293 0-2.5742-0.16016-3.8516-0.39453zm19.375-16.996c-0.48438-0.16016-0.9375-0.40234-1.3047-0.79688l-1.1562-1.2422c-0.51953 3.5859-1.6523 8.7383-4.043 12.746 3.4102-2.957 5.5352-7.9688 6.5039-10.711zm-1.1836-13.738c-0.41406 0.57031-1.0195 0.98438-1.6992 1.168l-1.3828 0.375c-0.19922 0.054687-0.30078 0.1875-0.34375 0.26562-0.042968 0.074219-0.10937 0.23438-0.054687 0.42969 0.058594 0.20703 0.20312 0.30859 0.28516 0.35156s0.25 0.10156 0.45312 0.03125l0.011719-0.003906c1-0.35938 2.0977-0.1875 2.9375 0.45703l2.3789 1.8242c-0.25781-2.1094-0.89453-4.0859-1.8672-5.8789l-0.71484 0.98047zm-3.7109-6.2305 0.078125 0.95703c0.16016 1.9727-1.1758 3.7734-3.1094 4.1875l-0.066406 0.015625c-0.55078 0.11719-0.98047 0.55469-1.0898 1.1055-0.22656 1.1445-0.94531 2.1211-1.9648 2.6875-0.59375 0.32813-1.25 0.49609-1.9141 0.49609-0.47656 0-0.95312-0.085937-1.4062-0.25781l-0.62891-0.23828c-1.2695-0.48437-2.1914-1.5664-2.4688-2.8984l-0.40234-1.9531c-0.21484-1.0352-0.011719-2.0898 0.57031-2.9727l1.2266-1.8594c0.23828-0.36328 0.30078-0.80859 0.16406-1.2227l-0.51953-1.582c-0.67969 0.019531-1.3359 0.125-1.9961 0.22656l-0.16406 2.207c-0.12891 1.7578-0.90625 3.3945-2.1914 4.6055-0.47266 0.44531-0.57031 1.1484-0.24219 1.707 0.37891 0.64062 0.69531 1.3438 0.46875 2.1406-0.18359 0.64453-0.64062 1.0703-1.168 1.5625l-0.28906 0.26953c-0.83203 0.78125-1.9609 1.1562-3.0977 1.0352l-2.7695-0.29688c-0.6875 0.3125-2.793 1.543-4.7227 2.7266-0.003906 0.16797-0.050781 0.32422-0.050781 0.49219 0 0.39453 0.015625 0.78906 0.042969 1.1719 0.003906 0.03125 0.003906 0.066406 0.003906 0.097656l-0.015625 2.6328c-0.003906 0.34766 0.23047 0.49219 0.37109 0.54688 0.11328 0.042969 0.39844 0.12109 0.64453-0.14453l2.1367-2.2891c0.35938-0.38672 0.77344-0.70313 1.2109-0.98438 0.03125-0.015624 0.058594-0.039062 0.09375-0.050781 1-0.62109 2.1523-0.98438 3.3477-0.98438h18.578c1.1914 0 2.3438 0.36328 3.3438 0.98438 0.0625 0.027344 0.11719 0.0625 0.17578 0.097657 0.41016 0.27344 0.79688 0.57812 1.1328 0.94141l2.1367 2.293c0.24609 0.26563 0.53516 0.19141 0.64453 0.14453 0.14062-0.054688 0.37109-0.19922 0.37109-0.54688l-0.015625-2.5898-4.082-3.1289c-0.15234-0.11719-0.35156-0.14844-0.53516-0.082031l-0.011719 0.003906c-0.8125 0.29297-1.7148 0.23047-2.4805-0.16406-0.76562-0.39844-1.3359-1.1016-1.5625-1.9297-0.22266-0.80078-0.11719-1.6406 0.29688-2.3633 0.41406-0.72266 1.082-1.2383 1.8867-1.457l1.3828-0.375c0.125-0.035156 0.23438-0.10938 0.30859-0.21094l1.2891-1.7695c-0.85937-1.1094-1.8438-2.1016-2.9492-2.9648zm-2.6875-1.707c-1.875-0.95703-3.9414-1.5508-6.1406-1.7344l0.22656 0.6875c0.37891 1.1562 0.21484 2.3984-0.45312 3.4141l-1.2266 1.8594c-0.20703 0.31641-0.28125 0.69531-0.20312 1.0664l0.40234 1.9531c0.097656 0.47656 0.42969 0.86328 0.88281 1.0391l0.62891 0.23828c0.39453 0.15234 0.81641 0.12109 1.1875-0.085938 0.37109-0.20312 0.62109-0.54688 0.70312-0.96094 0.30859-1.5469 1.5039-2.7578 3.0469-3.0898l0.066406-0.015625c0.69141-0.14844 1.1719-0.79297 1.1133-1.5zm-24.617 11.145c0.15234-0.089844 0.29297-0.17578 0.44922-0.26563 0.83594-0.49219 1.5234-0.88281 2.043-1.1641 1.0312-0.55469 1.4141-0.6875 1.8477-0.64062l3.0312 0.32422c0.39844 0.042968 0.79688-0.089844 1.0898-0.36328l0.28906-0.26953c0.10547-0.097656 0.25391-0.23828 0.36328-0.35156-0.027344-0.054688-0.066406-0.125-0.11719-0.21094-0.44922-0.76172-0.62891-1.6641-0.50781-2.543 0.125-0.875 0.54688-1.6953 1.1914-2.3008 0.82031-0.77344 1.3164-1.8203 1.4023-2.9453l0.10156-1.4062c-5.5664 1.793-9.8711 6.375-11.18 12.141zm7.3359 20.742c-1.0664-1.8789-1.9805-4.1016-2.6875-6.7383-0.54297-2.0234-0.87109-3.8984-1.0938-5.4492l-1.1016 1.1797c-0.3125 0.33594-0.69922 0.5625-1.1016 0.73047 0.50391 1.4961 1.3359 3.6602 2.5625 5.8086 1.0547 1.8516 2.2031 3.332 3.4219 4.4688zm-0.12109 13.422c-0.91406 0-1.8203 0.097656-2.7188 0.24609v11.301c0 2.4492-1.6953 4.4961-3.9727 5.0664v5.0859h0.78125c0.70312 0 1.2695 0.57031 1.2695 1.2695v6.0234h6.6562v-7.6953h-0.30078c-0.69922 0-1.2695-0.57031-1.2695-1.2695v-3.4414c0-2.0039 1.6289-3.6328 3.6328-3.6328h12.156c2.0039 0 3.6328 1.6289 3.6328 3.6328v3.4414c0 0.69922-0.57031 1.2695-1.2695 1.2695h-0.30078v7.6953h5.2539v-6.0234c0-0.69922 0.57031-1.2695 1.2695-1.2695h0.78125v-5.0859c-2.2734-0.57031-3.9727-2.6172-3.9727-5.0664v-11.301c-0.89453-0.14453-1.8008-0.24609-2.7188-0.24609h-0.61719v0.51562c0 0.59375-0.41406 1.1094-0.99609 1.2383l-1.0898 0.24219c-2.2109 0.49219-4.4844 0.73438-6.7578 0.73438-2.2734 0-4.5469-0.24609-6.7578-0.73438l-1.0898-0.24219c-0.58203-0.12891-0.99609-0.64453-0.99609-1.2383v-0.51562h-0.61719zm17.336 18.758v-2.1719c0-0.60156-0.49219-1.0938-1.0938-1.0938h-12.156c-0.60156 0-1.0938 0.49219-1.0938 1.0938v2.1719zm-12.773 2.5391v7.6953h11.203v-7.6953zm-15.219-9.75c0 1.4883 1.2109 2.7031 2.7031 2.7031 1.4883 0 2.7031-1.2109 2.7031-2.7031v-10.684c-1.9648 0.64844-3.7969 1.6602-5.4023 2.9805v7.6992zm1.918 17.445h1.5664v-4.7539h-1.5664zm-8.0664 0h5.5273v-6.0234c0-0.69922 0.56641-1.2695 1.2695-1.2695h0.78125v-5.0859c-2.2734-0.57031-3.9727-2.6172-3.9727-5.0664v-5.1133c-2.3086 2.9414-3.6094 6.582-3.6094 10.375v12.184zm52.531-12.184c0-3.793-1.3008-7.4375-3.6094-10.375v5.1133c0 2.4492-1.6953 4.4961-3.9727 5.0664v5.0859h0.78125c0.69922 0 1.2695 0.57031 1.2695 1.2695v6.0234h5.5273v-12.184z" fill-rule="evenodd"/>
<text x="0.0" y="117.5" font-size="5.0" font-weight="bold" font-family="Arbeit Regular, Helvetica, Arial-Unicode, Arial, Sans-serif" fill="#000000">Created by Garis Tanam</text><text x="0.0" y="122.5" font-size="5.0" font-weight="bold" font-family="Arbeit Regular, Helvetica, Arial-Unicode, Arial, Sans-serif" fill="#000000">from Noun Project</text></svg>