<svg xmlns="http://www.w3.org/2000/svg" version="1.1" viewBox="-5.0 -10.0 110.0 135.0">
 <path d="m50 6.25c-11.602 0-22.73 4.6094-30.938 12.812-8.2031 8.207-12.812 19.336-12.812 30.938s4.6094 22.73 12.812 30.938c8.207 8.2031 19.336 12.812 30.938 12.812s22.73-4.6094 30.938-12.812c8.2031-8.207 12.812-19.336 12.812-30.938-0.011719-11.598-4.625-22.719-12.828-30.922s-19.324-12.816-30.922-12.828zm0 81.25c-9.9453 0-19.484-3.9492-26.516-10.984-7.0352-7.0312-10.984-16.57-10.984-26.516s3.9492-19.484 10.984-26.516c7.0312-7.0352 16.57-10.984 26.516-10.984s19.484 3.9492 26.516 10.984c7.0352 7.0312 10.984 16.57 10.984 26.516-0.011719 9.9414-3.9648 19.473-10.996 26.504s-16.562 10.984-26.504 10.996zm17.836-24.086c0.60156 0.58203 0.94531 1.3828 0.95312 2.2227 0.007813 0.83594-0.32422 1.6445-0.91406 2.2383-0.59375 0.58984-1.4023 0.92188-2.2383 0.91406-0.83984-0.007812-1.6406-0.35156-2.2227-0.95312l-14.707-14.711c-1.1758-1.168-1.8359-2.7617-1.832-4.418v-26.832c0-1.7266 1.3984-3.125 3.125-3.125s3.125 1.3984 3.125 3.125v26.832z"/>
<text x="0.0" y="117.5" font-size="5.0" font-weight="bold" font-family="Arbeit Regular, Helvetica, Arial-Unicode, Arial, Sans-serif" fill="#000000">Created by Iqbal Faqot</text><text x="0.0" y="122.5" font-size="5.0" font-weight="bold" font-family="Arbeit Regular, Helvetica, Arial-Unicode, Arial, Sans-serif" fill="#000000">from Noun Project</text></svg>