<?xml version="1.0" encoding="UTF-8" standalone="no"?>
<svg
   version="1.1"
   viewBox="-5.0 -10.0 110.0 135.0"
   id="svg2"
   sodipodi:docname="noun-library-8153636.svg"
   inkscape:version="1.4.3 (0d15f75, 2025-12-25)"
   xmlns:inkscape="http://www.inkscape.org/namespaces/inkscape"
   xmlns:sodipodi="http://sodipodi.sourceforge.net/DTD/sodipodi-0.dtd"
   xmlns="http://www.w3.org/2000/svg"
   xmlns:svg="http://www.w3.org/2000/svg">
  <defs
     id="defs2" />
  <sodipodi:namedview
     id="namedview2"
     pagecolor="#505050"
     bordercolor="#ffffff"
     borderopacity="1"
     inkscape:showpageshadow="0"
     inkscape:pageopacity="0"
     inkscape:pagecheckerboard="1"
     inkscape:deskcolor="#505050"
     inkscape:zoom="5.7259259"
     inkscape:cx="55.012937"
     inkscape:cy="67.5"
     inkscape:window-width="1920"
     inkscape:window-height="991"
     inkscape:window-x="-9"
     inkscape:window-y="-9"
     inkscape:window-maximized="1"
     inkscape:current-layer="svg2" />
  <path
     d="m92.102 24.898-0.10156-0.39844s0-0.10156-0.10156-0.10156v-0.10156c-0.10156-0.10156-0.10156-0.19922-0.19922-0.30078-0.10156-0.10156-0.19922-0.10156-0.19922-0.19922l-31-19.602c-0.30078-0.19922-0.80078-0.30078-1.1992-0.19922l-33.5 8.3984c-0.10156 0-0.30078 0.10156-0.39844 0.19922l-0.10156 0.10156c-0.10156 0.10156-0.19922 0.10156-0.30078 0.19922l-0.10156 0.10156c-0.10156 0.10156-0.10156 0.10156-0.10156 0.19922 0 0.10156 0 0.10156-0.10156 0.19922 0 0 0 0.10156-0.10156 0.10156v0.10156 0.19922 0.30078 0.10156l0.19922 1c0.30078 1.3984 0.5 2.8008 0.5 4.3008 0 1.6992-0.19922 3.3984-0.69922 5.1016-0.10156 0.60156 0 1.1992 0.5 1.5l15.602 13.102-6 7.8984-25.496 14.297c-0.10156 0.10156-0.19922 0.10156-0.30078 0.19922l-0.10156 0.10156c-0.10156 0.10156-0.10156 0.10156-0.19922 0.19922 0 0 0 0.10156-0.10156 0.10156v0.10156l-0.10156 0.30078c-2.1016 4.6016-1.6992 6.1016 0.89844 10.301l0.30078 0.30078 0.19922 0.30078c0.10156 0.19922 0.30078 0.39844 0.60156 0.5l43 22.199c0.10156 0 0.19922 0.10156 0.30078 0.10156h0.39844c0.10156 0 0.19922 0 0.39844-0.10156h0.10156c0.10156 0 0.19922-0.10156 0.30078-0.10156l7.3008-4.6016s0.10156 0 0.10156-0.10156l17.398-11 0.80078-0.5c0.60156-0.39844 0.80078-1.1016 0.69922-1.6992-0.19922-0.60156-0.80078-1.1016-1.3984-1.1016-0.10156 0-0.30078 0-0.39844-0.30078-0.10156-0.19922-0.69922-1.5 1.3008-5.6016v-0.10156c0-0.10156 0.10156-0.19922 0.10156-0.30078v-0.10156-0.10156-0.30078-0.10156c0-0.10156-0.10156-0.30078-0.10156-0.39844 0 0 0-0.10156-0.10156-0.10156-0.10156-0.10156-0.10156-0.19922-0.19922-0.30078v-0.10156h-0.10156l-0.10156-0.10156-6.5-4.6016 15-26.398 2.5-0.69922c0.5-0.10156 0.80078-0.5 1-1 1.0039-3.5859 1.0039-7.5859-0.09375-11.387zm-32.902-17.898 27.699 17.5-34.102 10-23.598-20zm-31.5 17.301c0.39844-1.6016 0.5-3.3008 0.5-4.8984 0-0.60156 0-1.1992-0.10156-1.8008l23.102 19.398c0 0.10156 0 0.19922 0.10156 0.19922 0.10156 0.5 0.30078 1 0.39844 1.5v0.19922c0.10156 0.5 0.19922 1.1016 0.19922 1.6016v0.39844 1.5 0.19922c0 0.5-0.10156 1.1016-0.19922 1.6016v0.19922zm8.1992 25.898 0.39844-0.60156 6.5-8.5 8.6016 7.1992c0.19922 0.10156 0.39844 0.19922 0.5 0.30078h0.10156c0.10156 0 0.19922 0.10156 0.39844 0.10156 0.10156 0 0.30078 0 0.39844-0.10156l19.699-5.8008-7 12.398-35.398 2.3984zm31.801 15.402-36.102 2.5c0-0.10156-0.10156-0.10156-0.10156-0.19922-0.19922-0.19922-0.30078-0.5-0.5-0.69922-0.10156-0.10156-0.10156-0.19922-0.19922-0.39844-0.10156-0.19922-0.19922-0.39844-0.30078-0.60156-0.10156-0.10156-0.10156-0.30078-0.19922-0.39844-0.10156-0.19922-0.19922-0.39844-0.30078-0.60156-0.10156-0.10156-0.10156-0.30078-0.19922-0.39844-0.10156-0.19922-0.19922-0.39844-0.19922-0.60156-0.10156-0.10156-0.10156-0.30078-0.19922-0.39844-0.10156-0.19922-0.10156-0.39844-0.19922-0.60156 0-0.10156-0.10156-0.30078-0.10156-0.39844-0.10156-0.19922-0.10156-0.39844-0.19922-0.60156 0-0.10156-0.10156-0.30078-0.10156-0.39844 0-0.19922-0.10156-0.5-0.10156-0.69922 0-0.10156 0-0.30078-0.10156-0.39844v-0.10156l36.5-2.5v0.10156c0.10156 0.39844 0.10156 0.89844 0.19922 1.3008 0 0.10156 0.10156 0.30078 0.10156 0.39844 0.10156 0.30078 0.19922 0.69922 0.30078 1 0 0.10156 0.10156 0.30078 0.10156 0.39844 0.10156 0.5 0.30078 0.89844 0.5 1.3984s0.39844 0.89844 0.60156 1.3008c0.10156 0.10156 0.10156 0.30078 0.19922 0.39844 0.10156 0.30078 0.30078 0.60156 0.5 0.89844 0.003906 0.19922 0.003906 0.30078 0.10156 0.30078zm-16.699 20.098c-0.10156 0.19922-0.10156 0.30078-0.19922 0.5 0 0.10156-0.10156 0.19922-0.10156 0.30078-0.10156 0.19922-0.10156 0.39844-0.19922 0.5 0 0.10156 0 0.10156-0.10156 0.19922-0.10156 0.19922-0.10156 0.5-0.19922 0.69922v0.10156c0 0.19922-0.10156 0.30078-0.10156 0.5v0.19922 0.39844 0.19922 0.39844 0.19922c0 0.10156 0 0.19922 0.10156 0.39844 0 0.10156 0 0.19922 0.10156 0.19922 0 0.10156 0.10156 0.30078 0.10156 0.39844 0 0.10156 0 0.10156 0.10156 0.19922l-38.504-19.789-0.19922-0.30078c-1.8008-3-2.1992-3.6992-1.1992-6.1992l40.398 20.699v0.19922zm25.699-7.1992-16.199 10.199s-0.10156 0-0.10156 0.10156l-5.8984 3.6992c-0.19922-0.30078-0.39844-0.60156-0.5-0.89844 0 0 0-0.10156-0.10156-0.10156-0.10156-0.30078-0.30078-0.5-0.39844-0.69922v-0.10156c-0.10156-0.19922-0.19922-0.39844-0.19922-0.69922v-0.10156c-0.10156-0.19922-0.10156-0.39844-0.10156-0.60156v-0.60156-0.10156c0-0.19922 0.10156-0.39844 0.19922-0.69922v-0.10156c0.10156-0.19922 0.19922-0.5 0.30078-0.80078 0 0 0-0.10156 0.10156-0.10156 0.10156-0.30078 0.30078-0.60156 0.39844-0.89844l12.199-6.6992 10-5.5c-0.5 2-0.39844 3.5 0.39844 4.6016-0.097656 0.003907-0.097656 0.003907-0.097656 0.10547zm-0.39844-8.1992-23.402 12.898-39.797-20.598 16.797-9.6016-4.1016 5.3984c-0.10156 0.10156-0.10156 0.19922-0.19922 0.30078v0.10156 0.10156 0.30078 0.10156 0.10156 0.39844c0.19922 4 1.6992 7.6992 4.1016 10.801l0.19922 0.19922c0.10156 0.10156 0.19922 0.10156 0.30078 0.19922 0.10156 0 0.19922 0.10156 0.30078 0.10156h0.10156 0.19922 0.10156 0.10156l39.5-2.6992c0.5 0 0.89844-0.30078 1.1992-0.69922l0.10156-0.10156 0.30078-0.5zm-6-6.1992s0-0.10156-0.10156-0.10156c-0.10156-0.19922-0.30078-0.5-0.39844-0.69922-0.10156-0.10156-0.10156-0.19922-0.19922-0.30078-0.19922-0.39844-0.30078-0.69922-0.5-1.1016-0.19922-0.39844-0.30078-0.80078-0.39844-1.1992 0-0.10156-0.10156-0.30078-0.10156-0.39844-0.10156-0.30078-0.10156-0.5-0.19922-0.80078 0-0.19922-0.10156-0.30078-0.10156-0.5 0-0.30078-0.10156-0.5-0.10156-0.80078 0-0.19922 0-0.39844-0.10156-0.60156v-0.5l8.6992-15.398 7.5-2.1992zm19-29.301-1.5 0.39844c-0.30078-0.10156-0.60156-0.10156-0.80078 0l-11.5 3.3984-20.898 6.3008v-0.19922c0.10156-0.5 0.19922-1 0.19922-1.5v-0.19922c0-0.60156 0.10156-1.1992 0-1.8008v-0.5c0-0.39844-0.10156-0.89844-0.10156-1.3008 0-0.19922 0-0.39844-0.10156-0.5-0.10156-0.5-0.19922-1.1016-0.30078-1.6016v-0.10156l35.102-10.301c0.70312 2.6055 0.70312 5.3047-0.097657 7.9062z"
     id="path1" />
</svg>
