<svg xmlns="http://www.w3.org/2000/svg" version="1.1" viewBox="-5.0 -10.0 110.0 135.0">
 <g fill-rule="evenodd">
  <path d="m47.117 67.523c-0.24609 0-0.49609-0.09375-0.67969-0.28125-0.37891-0.375-0.37891-0.98828 0-1.3633l37.582-37.582c0.09375-0.09375 9.0781-9.2578 7.3125-19.992l-24.109 13.469-32.445 32.445c-0.37891 0.375-0.98828 0.375-1.3633 0s-0.375-0.98828 0-1.3633l32.543-32.539c0.0625-0.0625 0.13281-0.11719 0.21094-0.16016l25.379-14.176c0.26172-0.14844 0.57812-0.16406 0.85547-0.042969 0.27344 0.12109 0.48047 0.36328 0.55078 0.65625 1.2422 5.1211 0.32031 10.738-2.6602 16.242-2.2305 4.1211-4.8008 6.7148-4.9102 6.8203l-37.582 37.582c-0.1875 0.1875-0.4375 0.28125-0.68359 0.28125z"/>
  <path d="m46.441 73.25c0.32031 0.32031 0.84375 0.32031 1.1641 0l1.8359-1.8359c0.15625-0.15234 0.23828-0.35937 0.23828-0.58203 0-0.22266-0.085938-0.42969-0.23828-0.58203l-19.035-19.039c-0.32031-0.32031-0.84375-0.32031-1.1641 0l-1.8359 1.8359c-0.15625 0.15234-0.23828 0.35938-0.23828 0.58203s0.085937 0.42969 0.23828 0.58203l19.039 19.039zm0.58203 2.168c-0.70313 0-1.4102-0.26953-1.9453-0.80469l-19.039-19.039c-0.51953-0.51953-0.80469-1.207-0.80469-1.9453 0-0.73438 0.28516-1.4258 0.80469-1.9453l1.8359-1.8359c1.0703-1.0742 2.8164-1.0742 3.8906 0l19.039 19.039c0.51953 0.51953 0.80078 1.207 0.80078 1.9453 0 0.73438-0.28516 1.4258-0.80469 1.9453l-1.8359 1.8359c-0.53516 0.53516-1.2422 0.80469-1.9453 0.80469z"/>
  <path d="m14.039 76.594c-0.24609 0-0.49219-0.09375-0.68359-0.28125-0.375-0.375-0.375-0.98828 0-1.3633l16.711-16.711c0.37891-0.375 0.98828-0.375 1.3633 0s0.375 0.98828 0 1.3633l-16.711 16.711c-0.1875 0.1875-0.43359 0.28125-0.67969 0.28125zm10.984 10.984c-0.24609 0-0.49219-0.09375-0.67969-0.28125-0.375-0.375-0.375-0.98438 0-1.3633l16.711-16.711c0.375-0.375 0.98437-0.375 1.3633 0 0.375 0.375 0.375 0.98828 0 1.3633l-16.711 16.711c-0.1875 0.1875-0.4375 0.28516-0.68359 0.28125z"/>
  <path d="m11.453 74.77c-0.22266 0-0.44922 0.085938-0.61719 0.25391l-2.1406 2.1406c-0.33984 0.33984-0.33984 0.89453 0 1.2344l13.562 13.562c0.16406 0.16406 0.38281 0.25391 0.61719 0.25391s0.45312-0.089844 0.61719-0.25391l2.1406-2.1367c0.16406-0.16406 0.25391-0.38281 0.25391-0.61719s-0.089844-0.45703-0.25391-0.61719l-13.562-13.562c-0.17187-0.17188-0.39453-0.25391-0.61719-0.25391zm11.426 19.371c-0.75 0-1.4531-0.28906-1.9805-0.82031l-13.559-13.562c-1.0938-1.0938-1.0938-2.8672 0-3.9609l2.1367-2.1406c1.0938-1.0938 2.8672-1.0898 3.9609 0l13.559 13.562c0.52734 0.52734 0.82031 1.2305 0.82031 1.9805s-0.29297 1.4531-0.82031 1.9805l-2.1367 2.1367c-0.52734 0.52734-1.2305 0.82031-1.9805 0.82031z"/>
  <path d="m73.887 16.98zm0.13672 0.19141zm0 0.003906c0.003906 0 0.003906 0 0.003906 0.003907l-0.003906-0.003907zm-35.219 42.035c-0.26172 0-0.51953-0.10547-0.71094-0.3125-0.35938-0.39063-0.33203-1 0.058594-1.3633 15.25-13.992 25.863-24.961 31.551-32.609 4.3125-5.7969 4.2266-7.668 4.1914-7.918-0.23828-0.37109-0.19531-0.86719 0.125-1.1953 0.375-0.37891 0.98438-0.38281 1.3633-0.007812 0.17188 0.17187 0.46094 0.57812 0.44531 1.4023-0.058594 3.1836-4.8594 12.836-36.371 41.75-0.18359 0.16797-0.41797 0.25391-0.64844 0.25391z"/>
  <path d="m30.215 66.699h0.003906zm1.8711 0.1875c-0.44922 0-0.87109 0.17578-1.1914 0.49219-0.31641 0.31641-0.49219 0.74219-0.49219 1.1914 0 0.44922 0.17578 0.87109 0.49219 1.1914 0.65625 0.65625 1.7227 0.65625 2.3828 0 0.31641-0.31641 0.49219-0.74219 0.49219-1.1914 0-0.44922-0.17578-0.87109-0.49219-1.1914-0.32031-0.31641-0.74219-0.49219-1.1914-0.49219zm0 5.293c-0.92188 0-1.8477-0.35156-2.5508-1.0547-0.68359-0.68359-1.0586-1.5898-1.0586-2.5547 0-0.96484 0.375-1.8711 1.0586-2.5508 0.67969-0.68359 1.5898-1.0586 2.5508-1.0586 0.96484 0 1.8711 0.375 2.5508 1.0586 0.68359 0.67969 1.0586 1.5898 1.0586 2.5508 0 0.96484-0.375 1.8711-1.0547 2.5547-0.70312 0.70312-1.6289 1.0547-2.5547 1.0547z"/>
  <path d="m23.688 75.285c-0.44922 0-0.87109 0.17578-1.1914 0.49219-0.31641 0.31641-0.49219 0.73828-0.49219 1.1914 0 0.44922 0.17578 0.87109 0.49219 1.1914 0.32031 0.31641 0.74219 0.49219 1.1914 0.49219s0.87109-0.17578 1.1914-0.49219c0.31641-0.31641 0.49219-0.73828 0.49219-1.1914 0-0.44922-0.17578-0.87109-0.49219-1.1914-0.32031-0.31641-0.74219-0.49219-1.1914-0.49219zm0 5.293c-0.96484 0-1.8711-0.375-2.5547-1.0586-1.4062-1.4062-1.4062-3.6992 0-5.1055s3.6992-1.4062 5.1055 0 1.4062 3.6992 0 5.1055c-0.67969 0.68359-1.5898 1.0586-2.5508 1.0586z"/>
  <path d="m33.379 79.223c-0.24609 0-0.49219-0.09375-0.68359-0.28125l-10.984-10.984c-0.37891-0.375-0.37891-0.98828 0-1.3633 0.375-0.375 0.98437-0.375 1.3633 0l10.984 10.984c0.37891 0.375 0.37891 0.98828 0 1.3633-0.1875 0.1875-0.43359 0.28125-0.67969 0.28125z"/>
 </g>
<text x="0.0" y="117.5" font-size="5.0" font-weight="bold" font-family="Arbeit Regular, Helvetica, Arial-Unicode, Arial, Sans-serif" fill="#000000">Created by Ehtisham Abid</text><text x="0.0" y="122.5" font-size="5.0" font-weight="bold" font-family="Arbeit Regular, Helvetica, Arial-Unicode, Arial, Sans-serif" fill="#000000">from Noun Project</text></svg>