<svg xmlns="http://www.w3.org/2000/svg" data-name="Layer 1" viewBox="0 0 48 60" x="0px" y="0px"><path d="M18.65,33.08A1,1,0,0,0,19,33l8.27-2.87A1.19,1.19,0,0,0,27.5,30l.06-.05.14-.15.06-.08a.82.82,0,0,0,.09-.19l0-.06,2.37-7.77s0-.06,0-.09a1.23,1.23,0,0,0,0-.2,1.36,1.36,0,0,0,0-.2s0-.06,0-.09,0,0,0-.08a1,1,0,0,0-.1-.18,1.58,1.58,0,0,0-.12-.15l-.14-.11a.69.69,0,0,0-.19-.1s0,0-.07,0H29.5a.75.75,0,0,0-.21,0,.68.68,0,0,0-.2,0H29l-7.77,2.37,0,0a.89.89,0,0,0-.27.15l-.05,0a1.09,1.09,0,0,0-.21.26l0,.07a.31.31,0,0,0-.05.1l-2.87,8.27a1,1,0,0,0,.23,1A1,1,0,0,0,18.65,33.08ZM27.79,23l-1.34,4.38-3-3ZM22,25.65l3.14,3.14-4.82,1.67Z"/><path d="M24,45.36A18.93,18.93,0,0,0,29.43,8.29,5.69,5.69,0,0,0,24,2.64,5.65,5.65,0,0,0,18.5,8.3,18.93,18.93,0,0,0,24,45.36ZM24,4.64a3.62,3.62,0,0,1,3.38,3.13h-.09q-.73-.13-1.44-.21l-.34,0c-.5,0-1-.08-1.51-.08s-1,0-1.55.08l-.4,0c-.47.05-.93.11-1.39.2h-.11A3.66,3.66,0,0,1,24,4.64ZM19.82,10A16.61,16.61,0,0,1,24,9.44a16,16,0,0,1,4.11.55h0a16.94,16.94,0,1,1-8.31,0Z"/><path d="M24,40.42a14,14,0,1,0-14-14A14,14,0,0,0,24,40.42Zm0-26a12,12,0,1,1-12,12A12,12,0,0,1,24,14.38Z"/><text x="0" y="63" fill="#000000" font-size="5px" font-weight="bold" font-family="'Helvetica Neue', Helvetica, Arial-Unicode, Arial, Sans-serif">Created by Black Actutrus</text><text x="0" y="68" fill="#000000" font-size="5px" font-weight="bold" font-family="'Helvetica Neue', Helvetica, Arial-Unicode, Arial, Sans-serif">from the Noun Project</text></svg>