<svg xmlns="http://www.w3.org/2000/svg" version="1.1" viewBox="-5.0 -10.0 110.0 135.0">
 <path d="m81.25 81.25h-3.125v-28.125c0-13.785-11.215-25-25-25h-6.25c-13.785 0-25 11.215-25 25v28.125h-3.125c-0.86328 0-1.5625 0.69922-1.5625 1.5625v9.375c0 0.86328 0.69922 1.5625 1.5625 1.5625h62.5c0.86328 0 1.5625-0.69922 1.5625-1.5625v-9.375c0-0.86328-0.69922-1.5625-1.5625-1.5625zm-56.25-28.125c0-12.062 9.8125-21.875 21.875-21.875h6.25c12.062 0 21.875 9.8125 21.875 21.875v28.125h-17.188v-15.25c2.8555-2.293 4.6875-5.8086 4.6875-9.75 0-6.8906-5.6094-12.5-12.5-12.5-6.8945 0-12.5 5.6094-12.5 12.5 0 3.9375 1.832 7.4531 4.6875 9.75v15.25h-17.188zm20.312 28.125v-13.414c1.4492 0.58594 3.0312 0.91797 4.6875 0.91797 1.6602 0 3.2383-0.32812 4.6875-0.91797v13.414zm4.6875-15.625c-5.1719 0-9.375-4.2031-9.375-9.375s4.2031-9.375 9.375-9.375 9.375 4.2031 9.375 9.375-4.2031 9.375-9.375 9.375zm29.688 25h-59.375v-6.25h59.375z"/>
 <path d="m14.062 54.688h-12.5c-0.86328 0-1.5625 0.69922-1.5625 1.5625s0.69922 1.5625 1.5625 1.5625h12.5c0.86328 0 1.5625-0.69922 1.5625-1.5625s-0.69922-1.5625-1.5625-1.5625z"/>
 <path d="m98.438 54.688h-12.5c-0.86328 0-1.5625 0.69922-1.5625 1.5625s0.69922 1.5625 1.5625 1.5625h12.5c0.86328 0 1.5625-0.69922 1.5625-1.5625s-0.69922-1.5625-1.5625-1.5625z"/>
 <path d="m81.125 39.844c0.26562 0 0.53125-0.070312 0.78125-0.21094l10.828-6.25c0.75-0.42969 1.0039-1.3867 0.57031-2.1328-0.42969-0.75-1.3867-1.0039-2.1328-0.57031l-10.828 6.25c-0.75 0.42969-1.0039 1.3867-0.57031 2.1328 0.28906 0.5 0.8125 0.78125 1.3555 0.78125z"/>
 <path d="m67.188 26.48c0.24609 0.14062 0.51562 0.21094 0.78125 0.21094 0.53906 0 1.0625-0.28125 1.3555-0.78125l6.25-10.828c0.42969-0.75 0.17578-1.7031-0.57031-2.1328-0.75-0.42969-1.7031-0.17578-2.1328 0.57031l-6.25 10.828c-0.42969 0.75-0.17578 1.7031 0.57031 2.1328z"/>
 <path d="m50 21.875c0.86328 0 1.5625-0.69922 1.5625-1.5625v-12.5c0-0.86328-0.69922-1.5625-1.5625-1.5625s-1.5625 0.69922-1.5625 1.5625v12.5c0 0.86328 0.69922 1.5625 1.5625 1.5625z"/>
 <path d="m30.68 25.906c0.28906 0.5 0.8125 0.78125 1.3555 0.78125 0.26562 0 0.53125-0.070312 0.78125-0.21094 0.75-0.42969 1.0039-1.3867 0.57031-2.1328l-6.25-10.828c-0.42969-0.75-1.3867-1.0039-2.1328-0.57031-0.75 0.42969-1.0039 1.3867-0.57031 2.1328l6.25 10.828z"/>
 <path d="m7.2695 33.383 10.828 6.25c0.24609 0.14063 0.51562 0.21094 0.78125 0.21094 0.53906 0 1.0625-0.28125 1.3555-0.78125 0.42969-0.75 0.17578-1.7031-0.57031-2.1328l-10.828-6.25c-0.75-0.42969-1.7031-0.17578-2.1328 0.57031-0.42969 0.75-0.17578 1.7031 0.57031 2.1328z"/>
<text x="0.0" y="117.5" font-size="5.0" font-weight="bold" font-family="Arbeit Regular, Helvetica, Arial-Unicode, Arial, Sans-serif" fill="#000000">Created by Edy Subiyanto</text><text x="0.0" y="122.5" font-size="5.0" font-weight="bold" font-family="Arbeit Regular, Helvetica, Arial-Unicode, Arial, Sans-serif" fill="#000000">from Noun Project</text></svg>