<?xml version="1.0" encoding="UTF-8" standalone="no"?>
<svg
   version="1.1"
   viewBox="-5.0 -10.0 110.0 135.0"
   id="svg2"
   sodipodi:docname="noun-user-8011705.svg"
   inkscape:version="1.4.3 (0d15f75, 2025-12-25)"
   xmlns:inkscape="http://www.inkscape.org/namespaces/inkscape"
   xmlns:sodipodi="http://sodipodi.sourceforge.net/DTD/sodipodi-0.dtd"
   xmlns="http://www.w3.org/2000/svg"
   xmlns:svg="http://www.w3.org/2000/svg">
  <defs
     id="defs2" />
  <sodipodi:namedview
     id="namedview2"
     pagecolor="#505050"
     bordercolor="#ffffff"
     borderopacity="1"
     inkscape:showpageshadow="0"
     inkscape:pageopacity="0"
     inkscape:pagecheckerboard="1"
     inkscape:deskcolor="#505050"
     inkscape:zoom="5.7259259"
     inkscape:cx="55.012937"
     inkscape:cy="67.5"
     inkscape:window-width="1920"
     inkscape:window-height="991"
     inkscape:window-x="-9"
     inkscape:window-y="-9"
     inkscape:window-maximized="1"
     inkscape:current-layer="svg2" />
  <path
     d="m50 2.3398c5.4922 0 10.473 2.2305 14.086 5.8398l0.011718 0.011718c3.6055 3.6094 5.832 8.5898 5.832 14.082 0 5.5039-2.2305 10.488-5.8398 14.094-3.6055 3.6055-8.5898 5.8398-14.094 5.8398s-10.488-2.2305-14.094-5.8398c-3.6055-3.6055-5.8398-8.5898-5.8398-14.094 0-5.4922 2.2305-10.477 5.8398-14.086l0.011718-0.011719c3.6094-3.6055 8.5898-5.832 14.078-5.832zm-21.324 60.484c0-1.1055 0.89453-2 2-2s2 0.89453 2 2v26.188c0 1.2852 0.52344 2.4492 1.3555 3.2812 0.84766 0.84375 2.0156 1.3633 3.293 1.3633h25.352c1.2773 0 2.4414-0.52344 3.2852-1.3633l0.09375-0.085938c0.78516-0.82812 1.2734-1.957 1.2734-3.1953v-26.188c0-1.1055 0.89453-2 2-2s2 0.89453 2 2v26.188c0 2.3086-0.92188 4.4258-2.418 5.9805l-0.11719 0.12891c-1.5664 1.5664-3.7305 2.5391-6.1094 2.5391h-25.352c-2.3828 0-4.5469-0.97266-6.1133-2.5391-1.5625-1.5703-2.5391-3.7383-2.5391-6.1094v-26.188zm-4.5469 32.836c0 1.1055-0.89453 2-2 2-1.1055 0-2-0.89453-2-2v-32.426c0-4.6992 1.9258-8.9766 5.0234-12.07 3.0977-3.1094 7.3789-5.0312 12.086-5.0312h25.535c4.6992 0 8.9766 1.9258 12.07 5.0234 3.1055 3.0977 5.0312 7.3789 5.0312 12.082v32.426c0 1.1055-0.89453 2-2 2s-2-0.89453-2-2v-32.426c0-3.6016-1.4766-6.8789-3.8516-9.2539-2.3711-2.375-5.6484-3.8477-9.2539-3.8477h-25.535c-3.6016 0-6.8789 1.4766-9.2539 3.8477s-3.8477 5.6484-3.8477 9.2539v32.426zm37.145-84.656c-2.8789-2.8789-6.8633-4.6602-11.27-4.6602s-8.3867 1.7773-11.266 4.6602c-2.8867 2.8867-4.668 6.8711-4.668 11.273 0 4.3984 1.7852 8.3828 4.668 11.266 2.8828 2.8828 6.8672 4.6641 11.266 4.6641 4.3984 0 8.3828-1.7812 11.266-4.6641 2.8828-2.8828 4.668-6.8672 4.668-11.266 0-4.4062-1.7773-8.3867-4.6602-11.27z"
     id="path1" />
</svg>
