<svg xmlns="http://www.w3.org/2000/svg" xmlns:xlink="http://www.w3.org/1999/xlink" version="1.1" x="0px" y="0px" viewBox="0 0 100 125" enable-background="new 0 0 100 100" xml:space="preserve"><g><path d="M99.933,43.74c-0.187-0.751-0.775-1.339-1.525-1.525l-0.068-0.067h-3.575v-7.33c0-2.021-1.644-3.665-3.665-3.665H3.665   C1.645,31.152,0,32.796,0,34.817v30.367c0,2.021,1.645,3.665,3.665,3.665H91.1c2.021,0,3.665-1.644,3.665-3.665v-7.33h3.575   l0.068-0.067c0.75-0.186,1.339-0.774,1.525-1.526L100,56.193V43.808L99.933,43.74z M92.67,65.184c0,0.866-0.704,1.571-1.57,1.571   H3.665c-0.866,0-1.571-0.705-1.571-1.571V34.817c0-0.866,0.705-1.571,1.571-1.571H91.1c0.866,0,1.57,0.705,1.57,1.571v7.33v15.707   V65.184z"/><rect x="21.988" y="35.34" width="14.765" height="29.319"/><rect x="39.999" y="35.339" width="14.766" height="29.319"/><rect x="57.907" y="35.34" width="14.766" height="29.319"/><path d="M3.927,36.911v26.178c0,0.869,0.702,1.57,1.571,1.57h13.194V35.34H5.498C4.629,35.34,3.927,36.044,3.927,36.911z"/></g><text x="0" y="115" fill="#000000" font-size="5px" font-weight="bold" font-family="'Helvetica Neue', Helvetica, Arial-Unicode, Arial, Sans-serif">Created by Igor Filipe</text><text x="0" y="120" fill="#000000" font-size="5px" font-weight="bold" font-family="'Helvetica Neue', Helvetica, Arial-Unicode, Arial, Sans-serif">from the Noun Project</text></svg>