<svg xmlns="http://www.w3.org/2000/svg" xmlns:xlink="http://www.w3.org/1999/xlink" version="1.1" x="0px" y="0px" viewBox="0 0 100 125" style="enable-background:new 0 0 100 100;" xml:space="preserve"><path d="M92.3,81L86,74.7c0,0,0,0,0,0h0L66.6,55.3c3-5,4.7-10.8,4.7-17c0-18.2-14.8-33-33-33s-33,14.8-33,33s14.8,33,33,33  c6.2,0,12-1.7,17-4.7L74.7,86v0c0,0,0,0,0,0l6.4,6.4c1.5,1.5,3.5,2.3,5.7,2.3c2.1,0,4.2-0.8,5.7-2.3c1.5-1.5,2.3-3.5,2.3-5.7  C94.7,84.6,93.9,82.5,92.3,81z M38.3,67.3c-16,0-29-13-29-29s13-29,29-29s29,13,29,29S54.3,67.3,38.3,67.3z M58.6,64.3  c2.1-1.6,4-3.5,5.6-5.6l17.5,17.5l-5.7,5.7L58.6,64.3z M89.5,89.5c-1.5,1.5-4.1,1.5-5.7,0l-5-4.9l5.7-5.7l5,5  c0.8,0.8,1.2,1.8,1.2,2.8C90.7,87.8,90.3,88.8,89.5,89.5z M38.3,15.3c-12.7,0-23,10.3-23,23s10.3,23,23,23s23-10.3,23-23  S51,15.3,38.3,15.3z M38.3,57.3c-10.5,0-19-8.5-19-19c0-10.5,8.5-19,19-19s19,8.5,19,19C57.3,48.8,48.8,57.3,38.3,57.3z M50.6,29  c0.8,0.8,0.8,2,0,2.8L34.8,47.6c-0.4,0.4-0.9,0.6-1.4,0.6s-1-0.2-1.4-0.6l-6-6c-0.8-0.8-0.8-2,0-2.8c0.8-0.8,2-0.8,2.8,0l4.6,4.6  L47.8,29C48.6,28.2,49.8,28.2,50.6,29z"/><text x="0" y="115" fill="#000000" font-size="5px" font-weight="bold" font-family="'Helvetica Neue', Helvetica, Arial-Unicode, Arial, Sans-serif">Created by IconMark</text><text x="0" y="120" fill="#000000" font-size="5px" font-weight="bold" font-family="'Helvetica Neue', Helvetica, Arial-Unicode, Arial, Sans-serif">from the Noun Project</text></svg>