<?xml version="1.0" encoding="UTF-8" standalone="no"?>
<svg
   xml:space="preserve"
   version="1.1"
   style="shape-rendering:geometricPrecision;text-rendering:geometricPrecision;image-rendering:optimizeQuality;"
   viewBox="0 0 333.33 416.66249999999997"
   x="0px"
   y="0px"
   fill-rule="evenodd"
   clip-rule="evenodd"
   id="svg2"
   sodipodi:docname="noun-cpu-6414862.svg"
   inkscape:version="1.4.3 (0d15f75, 2025-12-25)"
   xmlns:inkscape="http://www.inkscape.org/namespaces/inkscape"
   xmlns:sodipodi="http://sodipodi.sourceforge.net/DTD/sodipodi-0.dtd"
   xmlns="http://www.w3.org/2000/svg"
   xmlns:svg="http://www.w3.org/2000/svg"><sodipodi:namedview
     id="namedview2"
     pagecolor="#505050"
     bordercolor="#ffffff"
     borderopacity="1"
     inkscape:showpageshadow="0"
     inkscape:pageopacity="0"
     inkscape:pagecheckerboard="1"
     inkscape:deskcolor="#505050"
     inkscape:zoom="1.8552185"
     inkscape:cx="166.5572"
     inkscape:cy="208.33125"
     inkscape:window-width="1920"
     inkscape:window-height="991"
     inkscape:window-x="-9"
     inkscape:window-y="-9"
     inkscape:window-maximized="1"
     inkscape:current-layer="svg2" /><defs
     id="defs1"><style
       type="text/css"
       id="style1">
   
    .fil0 {fill:black;fill-rule:nonzero}
   
  </style></defs><g
     id="g1"><path
       class="fil0"
       d="M110.92 80.03l6.97 0 0 -31.89c-3.11,-0.87 -5.88,-2.52 -8.09,-4.74 -3.35,-3.35 -5.42,-7.98 -5.42,-13.09 0,-5.11 2.07,-9.74 5.43,-13.09 3.35,-3.35 7.98,-5.42 13.09,-5.42 5.11,0 9.75,2.07 13.09,5.42 3.35,3.35 5.43,7.98 5.43,13.09 0,5.09 -2.07,9.72 -5.43,13.07l-0.03 0.03c-2.21,2.2 -4.98,3.86 -8.06,4.72l0 31.89 33.77 0 0 -31.89c-3.1,-0.87 -5.88,-2.52 -8.09,-4.74l-0.3 -0.32c-3.17,-3.33 -5.13,-7.83 -5.13,-12.78 0,-5.09 2.07,-9.72 5.42,-13.07 3.35,-3.37 7.98,-5.44 13.09,-5.44 5.11,0 9.75,2.07 13.09,5.42l0.3 0.32c3.17,3.33 5.13,7.83 5.13,12.77 0,5.1 -2.07,9.72 -5.42,13.08 -2.21,2.22 -4.99,3.89 -8.09,4.76l0 31.89 33.77 0 0 -31.89c-3.09,-0.87 -5.86,-2.52 -8.07,-4.74l-0.03 -0.03c-3.34,-3.35 -5.41,-7.98 -5.41,-13.06 0,-5.11 2.07,-9.74 5.43,-13.09 3.35,-3.35 7.98,-5.42 13.09,-5.42 5.09,0 9.72,2.07 13.07,5.42 3.37,3.37 5.44,8 5.44,13.09 0,5.11 -2.07,9.75 -5.42,13.09 -2.22,2.22 -4.99,3.87 -8.09,4.74l0 31.89 6.97 0c8.5,0 16.22,3.48 21.82,9.07 5.59,5.59 9.07,13.32 9.07,21.82l0 6.97 31.89 0c0.87,-3.11 2.52,-5.88 4.74,-8.09 3.35,-3.35 7.98,-5.42 13.09,-5.42 5.09,0 9.72,2.07 13.07,5.42 3.37,3.37 5.44,8 5.44,13.09 0,5.11 -2.07,9.75 -5.42,13.09 -3.35,3.35 -7.98,5.43 -13.09,5.43 -5.09,0 -9.72,-2.07 -13.07,-5.43l-0.03 -0.03c-2.2,-2.21 -3.85,-4.98 -4.72,-8.06l-31.9 0 0 33.77 31.89 0c0.87,-3.1 2.52,-5.88 4.74,-8.09l0.32 -0.3c3.33,-3.17 7.83,-5.13 12.78,-5.13 5.09,0 9.72,2.07 13.07,5.42 3.37,3.35 5.44,7.98 5.44,13.09 0,5.11 -2.07,9.75 -5.42,13.09l-0.32 0.3c-3.33,3.17 -7.83,5.13 -12.77,5.13 -5.1,0 -9.72,-2.07 -13.08,-5.42 -2.22,-2.21 -3.89,-4.99 -4.76,-8.09l-31.89 0 0 33.77 31.9 0c0.87,-3.09 2.52,-5.86 4.74,-8.07l0.03 -0.03c3.35,-3.34 7.98,-5.41 13.06,-5.41 5.11,0 9.74,2.07 13.09,5.43 3.35,3.35 5.42,7.98 5.42,13.09 0,5.11 -2.07,9.74 -5.42,13.09 -3.35,3.35 -7.98,5.43 -13.09,5.43 -5.11,0 -9.75,-2.07 -13.09,-5.42 -2.22,-2.22 -3.87,-4.99 -4.74,-8.09l-31.89 0 0 6.97c0,8.5 -3.48,16.23 -9.07,21.82 -5.59,5.59 -13.32,9.07 -21.82,9.07l-6.97 0 0 31.89c3.11,0.87 5.88,2.52 8.09,4.74 3.35,3.35 5.42,7.98 5.42,13.09 0,5.11 -2.07,9.74 -5.42,13.09 -3.35,3.35 -7.98,5.43 -13.09,5.43 -5.11,0 -9.75,-2.07 -13.09,-5.42 -3.35,-3.35 -5.43,-7.98 -5.43,-13.09 0,-5.09 2.07,-9.72 5.43,-13.07l0.03 -0.03c2.21,-2.2 4.98,-3.85 8.06,-4.72l0 -31.89 -33.77 0 0 31.89c3.1,0.87 5.88,2.52 8.09,4.74l0.3 0.32c3.17,3.33 5.13,7.83 5.13,12.78 0,5.09 -2.07,9.72 -5.42,13.07 -3.35,3.37 -7.98,5.44 -13.09,5.44 -5.11,0 -9.75,-2.07 -13.09,-5.42l-0.3 -0.32c-3.17,-3.33 -5.13,-7.83 -5.13,-12.77 0,-5.1 2.07,-9.72 5.42,-13.08 2.21,-2.22 4.99,-3.89 8.09,-4.76l0 -31.89 -33.77 0 0 31.89c3.09,0.87 5.86,2.52 8.07,4.74l0.03 0.03c3.34,3.35 5.41,7.97 5.41,13.06 0,5.11 -2.07,9.74 -5.43,13.09 -3.35,3.35 -7.98,5.42 -13.09,5.42 -5.09,0 -9.71,-2.07 -13.07,-5.43l-0.03 -0.03c-3.34,-3.35 -5.41,-7.98 -5.41,-13.06 0,-5.11 2.07,-9.75 5.42,-13.09 2.22,-2.22 4.99,-3.87 8.09,-4.74l0 -31.89 -6.97 0c-8.48,0 -16.21,-3.48 -21.81,-9.08 -5.61,-5.58 -9.08,-13.31 -9.08,-21.81l0 -6.97 -31.89 0c-0.87,3.11 -2.52,5.88 -4.74,8.09 -3.35,3.35 -7.98,5.42 -13.09,5.42 -5.09,0 -9.71,-2.07 -13.07,-5.43l-0.03 -0.03c-3.34,-3.35 -5.41,-7.98 -5.41,-13.06 0,-5.11 2.07,-9.75 5.42,-13.09 3.35,-3.35 7.98,-5.43 13.09,-5.43 5.09,0 9.72,2.07 13.07,5.43l0.03 0.03c2.2,2.21 3.86,4.98 4.72,8.06l31.9 0 0 -33.77 -31.89 0c-0.87,3.1 -2.52,5.88 -4.74,8.09l-0.32 0.3c-3.33,3.17 -7.83,5.13 -12.78,5.13 -5.09,0 -9.72,-2.07 -13.07,-5.42 -3.37,-3.35 -5.44,-7.98 -5.44,-13.09 0,-5.11 2.07,-9.75 5.42,-13.09l0.32 -0.3c3.33,-3.17 7.83,-5.13 12.77,-5.13 5.1,0 9.72,2.07 13.08,5.42 2.22,2.21 3.89,4.99 4.76,8.09l31.89 0 0 -33.77 -31.9 0c-0.87,3.09 -2.52,5.86 -4.74,8.07l-0.03 0.03c-3.35,3.34 -7.97,5.41 -13.06,5.41 -5.11,0 -9.74,-2.07 -13.09,-5.43 -3.35,-3.35 -5.42,-7.98 -5.42,-13.09 0,-5.11 2.07,-9.74 5.43,-13.09 3.35,-3.35 7.98,-5.42 13.09,-5.42 5.11,0 9.75,2.07 13.09,5.42 2.22,2.22 3.87,4.99 4.74,8.09l31.89 0 0 -6.97c0,-8.5 3.48,-16.23 9.07,-21.82l0.3 -0.28c5.57,-5.43 13.18,-8.79 21.52,-8.79zm16.63 24.35l78.24 0c6.37,0 12.18,2.61 16.37,6.8 4.19,4.19 6.8,9.99 6.8,16.37l0 78.24c0,6.36 -2.61,12.15 -6.8,16.35 -4.19,4.21 -9.99,6.82 -16.37,6.82l-78.24 0c-6.37,0 -12.18,-2.61 -16.37,-6.8 -4.2,-4.2 -6.8,-9.99 -6.8,-16.37l0 -78.24c0,-6.37 2.61,-12.17 6.8,-16.37 4.19,-4.19 9.99,-6.8 16.37,-6.8zm78.24 10l-78.24 0c-3.61,0 -6.91,1.49 -9.3,3.87 -2.39,2.39 -3.87,5.68 -3.87,9.3l0 78.24c0,3.61 1.49,6.91 3.87,9.3 2.38,2.38 5.68,3.87 9.3,3.87l78.24 0c3.61,0 6.91,-1.49 9.3,-3.87 2.39,-2.38 3.87,-5.67 3.87,-9.3l0 -78.24c0,-3.61 -1.49,-6.91 -3.87,-9.3 -2.38,-2.38 -5.68,-3.87 -9.3,-3.87zm-166.96 8.63l0 -0.11 0 -0.11c-0.03,-2.31 -0.98,-4.4 -2.5,-5.91 -1.54,-1.54 -3.67,-2.49 -6.02,-2.49 -2.35,0 -4.48,0.95 -6.02,2.49 -1.54,1.54 -2.5,3.67 -2.5,6.02 0,2.35 0.95,4.48 2.49,6.02 1.54,1.54 3.67,2.5 6.02,2.5 2.37,0 4.5,-0.95 6.02,-2.48 1.52,-1.52 2.46,-3.61 2.5,-5.93zm0 43.77l0 -0.11 0 -0.11c-0.03,-2.31 -0.98,-4.4 -2.49,-5.91 -1.53,-1.54 -3.67,-2.49 -6.03,-2.49 -2.26,0 -4.31,0.87 -5.83,2.29l-0.2 0.2c-1.54,1.54 -2.49,3.67 -2.49,6.02 0,2.35 0.95,4.48 2.49,6.02 1.53,1.54 3.67,2.49 6.02,2.49 2.26,0 4.31,-0.87 5.83,-2.29l0.2 -0.2c1.52,-1.52 2.46,-3.61 2.49,-5.91zm0 43.77l0 -0.11 0 -0.11c-0.03,-2.32 -0.97,-4.41 -2.48,-5.91 -1.54,-1.55 -3.68,-2.5 -6.04,-2.5 -2.35,0 -4.48,0.96 -6.02,2.5 -1.54,1.54 -2.49,3.67 -2.49,6.02 0,2.36 0.95,4.5 2.48,6.02 1.54,1.55 3.68,2.5 6.04,2.5 2.35,0 4.48,-0.95 6.02,-2.49 1.52,-1.52 2.46,-3.61 2.5,-5.91zm84.18 83.96l-0.11 0 -0.11 0c-2.31,0.03 -4.4,0.98 -5.91,2.5 -1.54,1.54 -2.49,3.67 -2.49,6.02 0,2.36 0.95,4.5 2.49,6.03 1.53,1.54 3.67,2.48 6.03,2.48 2.35,0 4.48,-0.95 6.02,-2.49 1.54,-1.54 2.5,-3.67 2.5,-6.02 0,-2.37 -0.95,-4.5 -2.48,-6.02 -1.52,-1.52 -3.61,-2.46 -5.93,-2.5zm43.77 0l-0.11 0 -0.11 0c-2.31,0.03 -4.4,0.98 -5.91,2.49 -1.54,1.53 -2.49,3.67 -2.49,6.03 0,2.26 0.87,4.31 2.28,5.83l0.21 0.2c1.54,1.54 3.67,2.49 6.02,2.49 2.35,0 4.48,-0.95 6.02,-2.49 1.54,-1.53 2.49,-3.67 2.49,-6.02 0,-2.26 -0.87,-4.31 -2.28,-5.83l-0.21 -0.2c-1.52,-1.52 -3.61,-2.46 -5.91,-2.49zm43.77 0l-0.11 0 -0.11 0c-2.32,0.03 -4.41,0.97 -5.91,2.48 -1.55,1.54 -2.5,3.68 -2.5,6.04 0,2.35 0.96,4.48 2.5,6.02 1.54,1.54 3.67,2.49 6.02,2.49 2.35,0 4.48,-0.96 6.02,-2.5 1.54,-1.54 2.49,-3.67 2.49,-6.02 0,-2.35 -0.95,-4.48 -2.49,-6.02 -1.52,-1.52 -3.61,-2.46 -5.91,-2.5zm83.96 -84.18l0 0.11 0 0.11c0.03,2.31 0.98,4.4 2.5,5.91 1.54,1.54 3.67,2.49 6.02,2.49 2.35,0 4.48,-0.96 6.02,-2.5 1.54,-1.54 2.49,-3.67 2.49,-6.02 0,-2.35 -0.95,-4.48 -2.49,-6.02 -1.54,-1.54 -3.67,-2.5 -6.02,-2.5 -2.37,0 -4.5,0.95 -6.02,2.48 -1.52,1.52 -2.46,3.61 -2.5,5.93zm0 -43.77l0 0.11 0 0.11c0.03,2.31 0.98,4.4 2.49,5.91 1.53,1.54 3.67,2.49 6.03,2.49 2.26,0 4.31,-0.87 5.83,-2.28l0.2 -0.21c1.54,-1.54 2.49,-3.67 2.49,-6.02 0,-2.35 -0.95,-4.48 -2.49,-6.02 -1.53,-1.54 -3.67,-2.49 -6.02,-2.49 -2.26,0 -4.31,0.87 -5.83,2.28l-0.2 0.21c-1.52,1.52 -2.46,3.61 -2.49,5.91zm0 -43.77l0 0.11 0 0.11c0.03,2.32 0.97,4.41 2.48,5.91 1.54,1.55 3.68,2.5 6.04,2.5 2.35,0 4.48,-0.96 6.02,-2.5 1.54,-1.54 2.49,-3.67 2.49,-6.02 0,-2.36 -0.95,-4.5 -2.48,-6.03 -1.54,-1.53 -3.67,-2.48 -6.03,-2.48 -2.35,0 -4.48,0.95 -6.02,2.49 -1.52,1.52 -2.46,3.61 -2.5,5.91zm-84.18 -83.96l0.11 0 0.11 0c2.31,-0.03 4.4,-0.98 5.91,-2.5 1.54,-1.54 2.49,-3.67 2.49,-6.02 0,-2.36 -0.95,-4.5 -2.48,-6.03 -1.54,-1.53 -3.67,-2.48 -6.03,-2.48 -2.35,0 -4.48,0.95 -6.02,2.49 -1.54,1.54 -2.5,3.67 -2.5,6.02 0,2.37 0.95,4.5 2.48,6.02 1.52,1.52 3.61,2.46 5.93,2.5zm-43.77 0l0.11 0 0.11 0c2.31,-0.03 4.4,-0.98 5.91,-2.49 1.54,-1.53 2.49,-3.67 2.49,-6.03 0,-2.26 -0.87,-4.31 -2.28,-5.83l-0.21 -0.2c-1.54,-1.54 -3.67,-2.49 -6.02,-2.49 -2.35,0 -4.48,0.95 -6.02,2.49 -1.54,1.53 -2.49,3.67 -2.49,6.02 0,2.26 0.87,4.31 2.28,5.83l0.21 0.2c1.52,1.52 3.61,2.46 5.91,2.49zm-43.77 0l0.11 0 0.11 0c2.32,-0.03 4.41,-0.97 5.91,-2.48 1.55,-1.54 2.5,-3.68 2.5,-6.04 0,-2.35 -0.96,-4.48 -2.5,-6.02 -1.54,-1.54 -3.67,-2.49 -6.02,-2.49 -2.35,0 -4.48,0.95 -6.02,2.49 -1.54,1.54 -2.5,3.67 -2.5,6.02 0,2.35 0.95,4.48 2.49,6.02 1.52,1.52 3.61,2.46 5.91,2.5zm99.63 51.2l-11.84 0 -0.26 0 -43.51 0 -0.26 0 -43.51 0 -0.26 0 -11.84 0c-5.64,0 -10.77,2.26 -14.52,5.9l-0.23 0.24c-3.79,3.79 -6.14,9.01 -6.14,14.75l0 111.49c0,5.74 2.35,10.96 6.14,14.75 3.77,3.8 9,6.14 14.75,6.14l11.84 0 0.26 0 43.51 0 0.26 0 43.51 0 0.26 0 11.84 0c5.74,0 10.96,-2.35 14.75,-6.14 3.79,-3.79 6.14,-9.01 6.14,-14.75l0 -111.49c0,-5.74 -2.35,-10.96 -6.14,-14.75 -3.79,-3.79 -9.01,-6.14 -14.75,-6.14z"
       id="path1" /></g></svg>
