<svg xmlns="http://www.w3.org/2000/svg" version="1.1" viewBox="-5.0 -10.0 110.0 135.0">
 <path d="m55.859 15.188h-9.0391c-0.86328 0-1.5625 0.69922-1.5625 1.5625v4.0391c-18.18 5.2344-31.5 22.008-31.5 41.867 0 0.86328 0.69922 1.5625 1.5625 1.5625 0.86328 0 1.5625-0.69922 1.5625-1.5625 0-18.117 11.941-33.469 28.375-38.602v9.6523c-6.7031 4.7852-11.574 13.434-12.73 23.719h-0.13672c-1.0508 0-2.0586 0.41797-2.8047 1.1602-0.74219 0.74219-1.1602 1.7539-1.1602 2.8047v2.2305c0 1.0508 0.41797 2.0586 1.1602 2.8047 0.74219 0.74219 1.7539 1.1602 2.8047 1.1602h0.13672c1.7734 15.797 12.32 27.734 24.793 27.734 12.477 0 23.02-11.938 24.793-27.734h0.16406c1.0508 0 2.0586-0.41797 2.8047-1.1602 0.74219-0.74219 1.1602-1.7539 1.1602-2.8047v-2.2305c0-1.0508-0.41797-2.0586-1.1602-2.8047-0.74219-0.74219-1.7539-1.1602-2.8047-1.1602h-0.16406c-1.1562-10.285-6.0273-18.934-12.73-23.719v-4.9922c5.918-0.76953 10.5-5.8359 10.5-11.961 0-6.6562-5.4062-12.062-12.062-12.062-6.1289 0-11.195 4.582-11.961 10.5zm-20.188 52.391h43.301c-1.6836 13.887-10.648 24.609-21.648 24.609s-19.961-10.723-21.648-24.609zm46.605-7.0312h-49.887c-0.22266 0-0.43359 0.085937-0.59375 0.24219-0.15625 0.16016-0.24219 0.37109-0.24219 0.59375v2.2305c0 0.22266 0.085937 0.43359 0.24219 0.59375 0.16016 0.15625 0.37109 0.24219 0.59375 0.24219h49.887c0.22266 0 0.43359-0.085938 0.59375-0.24219 0.15625-0.16016 0.24219-0.37109 0.24219-0.59375v-2.2305c0-0.22266-0.085937-0.43359-0.24219-0.59375-0.16016-0.15625-0.37109-0.24219-0.59375-0.24219zm-24.887-27.734h-0.070313-0.070312c-3.2461 0.011719-6.3125 0.96094-9.0703 2.6484-0.15234 0.10156-0.30469 0.20703-0.46094 0.3125-0.085938 0.058593-0.17188 0.10937-0.26172 0.14844-6.1797 4.1602-10.648 12.105-11.789 21.5h43.301c-1.1406-9.3945-5.6133-17.34-11.789-21.5-0.089844-0.039063-0.17969-0.089844-0.26172-0.14844-0.15234-0.10547-0.30469-0.21094-0.46094-0.3125-2.7578-1.6875-5.8203-2.6328-9.0703-2.6484zm-0.070313-3.125c3.1562 0 6.1758 0.66406 8.9375 2.0547v-13.43h-17.875v3.6914 9.7383c2.7617-1.3867 5.7812-2.0547 8.9375-2.0547zm12.062-4.1367c4.1875-0.73828 7.375-4.3984 7.375-8.8008 0-4.9297-4.0039-8.9375-8.9375-8.9375-4.3984 0-8.0625 3.1875-8.8008 7.375h8.8008c0.86328 0 1.5625 0.69922 1.5625 1.5625z" fill-rule="evenodd"/>
<text x="0.0" y="117.5" font-size="5.0" font-weight="bold" font-family="Arbeit Regular, Helvetica, Arial-Unicode, Arial, Sans-serif" fill="#000000">Created by Singlar</text><text x="0.0" y="122.5" font-size="5.0" font-weight="bold" font-family="Arbeit Regular, Helvetica, Arial-Unicode, Arial, Sans-serif" fill="#000000">from Noun Project</text></svg>