<svg xmlns="http://www.w3.org/2000/svg" xmlns:xlink="http://www.w3.org/1999/xlink" version="1.1" x="0px" y="0px" viewBox="0 0 100 125" enable-background="new 0 0 100 100" xml:space="preserve"><g><path d="M20,30h37.013c1.277,4,4.978,6.797,9.337,6.797S74.408,34,75.684,30h4.299c1.656,0,3-1.343,3-3s-1.344-3-3-3h-4.284   c-1.265-4-4.976-6.835-9.349-6.835S58.264,20,56.999,24H20c-1.657,0-3,1.343-3,3S18.343,30,20,30z M66.35,23   c2.104,0,3.814,1.712,3.814,3.816s-1.711,3.816-3.814,3.816c-2.104,0-3.816-1.712-3.816-3.816S64.245,23,66.35,23z"/><path d="M79.982,47H42.968c-1.277-4-4.977-6.797-9.336-6.797S25.572,43,24.295,47H20c-1.657,0-3,1.343-3,3c0,1.657,1.343,3,3,3   h4.282c1.266,4,4.977,6.835,9.35,6.835S41.716,57,42.981,53h4.108c0.059,0,0.115,0,0.174,0h32.719C81.639,53,83,51.666,83,50.009   c0-0.003,0-0.006,0-0.009s0-0.006,0-0.009C83,48.334,81.639,47,79.982,47z M33.632,53.826c-2.104,0-3.816-1.713-3.816-3.817   c0-2.104,1.712-3.814,3.816-3.814s3.816,1.711,3.816,3.814C37.448,52.113,35.736,53.826,33.632,53.826z"/><path d="M79.982,70h-16.56c-1.271-4-4.977-6.815-9.343-6.815S46.008,66,44.737,70H20c-1.657,0-3,1.343-3,3s1.343,3,3,3h24.736   c1.271,4,4.978,6.816,9.344,6.816S62.152,80,63.424,76h16.559c1.656,0,3-1.343,3-3S81.639,70,79.982,70z M54.08,77   c-2.104,0-3.816-1.712-3.816-3.816c0-2.104,1.713-3.815,3.816-3.815c2.104,0,3.816,1.712,3.816,3.815   C57.896,75.288,56.185,77,54.08,77z"/></g><text x="0" y="115" fill="#000000" font-size="5px" font-weight="bold" font-family="'Helvetica Neue', Helvetica, Arial-Unicode, Arial, Sans-serif">Created by Johan Cato</text><text x="0" y="120" fill="#000000" font-size="5px" font-weight="bold" font-family="'Helvetica Neue', Helvetica, Arial-Unicode, Arial, Sans-serif">from the Noun Project</text></svg>