<svg xmlns="http://www.w3.org/2000/svg" version="1.1" viewBox="-5.0 -10.0 110.0 135.0">
 <path d="m22.918 31.25c0-13.543 12.133-27.082 27.082-27.082s27.082 14.316 27.082 27.082c0 19.145-10.762 40.734-16.961 51.07-6.8633 11.438-12.824 13.512-18.453 13.512-10.352 0-18.75-8.3984-18.75-18.75 0-3.6055 1.7461-6.3594 3.8867-8.9219 1.6836-2.0234 3.6523-3.8945 4.5898-6.2734 1.8672-4.7383-0.19922-9.5469-2.5352-14.305-2.7539-5.6055-5.9414-11.152-5.9414-16.332zm4.1641 0c0 4.6211 3.0625 9.4922 5.5195 14.496 2.8711 5.8516 4.9688 11.84 2.6719 17.668-1.1016 2.7852-3.3008 5.0508-5.2734 7.4141-1.5156 1.8203-2.918 3.6953-2.918 6.2539 0 8.0508 6.5352 14.586 14.586 14.586 4.625 0 9.2383-2.0898 14.879-11.488 5.9453-9.9102 16.371-30.574 16.371-48.93 0-10.805-10.27-22.918-22.918-22.918s-22.918 11.461-22.918 22.918zm31.383 24.273c0.39844-1.0742 1.5977-1.625 2.6758-1.2266s1.6289 1.6016 1.2305 2.6797c-2.6094 7.0352-5.918 13.258-8.293 17.219-5.1562 8.5898-10.266 11.223-14.496 11.223-1.1484 0-2.082-0.93359-2.082-2.0859 0-1.1484 0.93359-2.082 2.082-2.082 3.293 0 6.9062-2.5039 10.922-9.1953 2.2812-3.8047 5.4531-9.7734 7.9609-16.531zm-25.133-24.273c0-8.3086 7.4688-16.621 16.668-16.621s16.668 8.7891 16.668 16.621c0 1.1484-0.93359 2.082-2.0859 2.082-1.1484 0-2.082-0.93359-2.082-2.082 0-5.875-5.6016-12.453-12.5-12.453s-12.5 6.2266-12.5 12.453c0 0.1875 0.003906 0.37891 0.015625 0.56641 1.3281-0.36719 2.7188-0.56641 4.1523-0.56641 4.668 0 8.9102 2.2266 11.938 5.4766 0.78516 0.83984 0.73828 2.1602-0.10156 2.9453-0.83984 0.78125-2.1602 0.73828-2.9453-0.10547-2.2617-2.4297-5.4023-4.1484-8.8906-4.1484-1.1445 0-2.2461 0.17188-3.2969 0.48828 1.082 3.1953 3 6.4883 4.6445 9.8398 2.8711 5.8516 4.9727 11.84 2.6719 17.668-0.42188 1.0703-1.6328 1.5977-2.7031 1.1719-1.0664-0.42188-1.5938-1.6328-1.1719-2.6992 1.8672-4.7383-0.19922-9.5469-2.5391-14.305-2.0156-4.1133-4.2734-8.1914-5.3281-12.117-0.089843-0.20703-0.14062-0.41797-0.16016-0.63281-0.28516-1.207-0.45312-2.4062-0.45312-3.582z" fill-rule="evenodd"/>
<text x="0.0" y="117.5" font-size="5.0" font-weight="bold" font-family="Arbeit Regular, Helvetica, Arial-Unicode, Arial, Sans-serif" fill="#000000">Created by Alfan Zulkarnain</text><text x="0.0" y="122.5" font-size="5.0" font-weight="bold" font-family="Arbeit Regular, Helvetica, Arial-Unicode, Arial, Sans-serif" fill="#000000">from Noun Project</text></svg>