<?xml version="1.0" encoding="UTF-8" standalone="no"?>
<svg
   version="1.1"
   viewBox="-5.0 -10.0 110.0 135.0"
   id="svg5"
   sodipodi:docname="noun-compile-7342670.svg"
   inkscape:version="1.4.3 (0d15f75, 2025-12-25)"
   xmlns:inkscape="http://www.inkscape.org/namespaces/inkscape"
   xmlns:sodipodi="http://sodipodi.sourceforge.net/DTD/sodipodi-0.dtd"
   xmlns="http://www.w3.org/2000/svg"
   xmlns:svg="http://www.w3.org/2000/svg">
  <defs
     id="defs5" />
  <sodipodi:namedview
     id="namedview5"
     pagecolor="#505050"
     bordercolor="#ffffff"
     borderopacity="1"
     inkscape:showpageshadow="0"
     inkscape:pageopacity="0"
     inkscape:pagecheckerboard="1"
     inkscape:deskcolor="#505050"
     inkscape:zoom="5.7259259"
     inkscape:cx="55.012937"
     inkscape:cy="67.5"
     inkscape:window-width="1920"
     inkscape:window-height="991"
     inkscape:window-x="-9"
     inkscape:window-y="-9"
     inkscape:window-maximized="1"
     inkscape:current-layer="svg5" />
  <path
     d="m38 61h24c1.1016 0 2-0.89844 2-2s-0.89844-2-2-2h-24c-1.1016 0-2 0.89844-2 2s0.89844 2 2 2z"
     id="path1" />
  <path
     d="m38 43h24c1.1016 0 2-0.89844 2-2s-0.89844-2-2-2h-24c-1.1016 0-2 0.89844-2 2s0.89844 2 2 2z"
     id="path2" />
  <path
     d="m38 25h24c1.1016 0 2-0.89844 2-2s-0.89844-2-2-2h-24c-1.1016 0-2 0.89844-2 2s0.89844 2 2 2z"
     id="path3" />
  <path
     d="m20.672 61.77c-0.32812 0.42188-0.46875 0.94922-0.41016 1.4805l0.87109 6.9883c0.62109 4.9883 4.8906 8.7617 9.9219 8.7617h37.879c5.0312 0 9.3008-3.7695 9.9219-8.7617l0.87109-6.9883c0.070313-0.53125-0.078124-1.0508-0.41016-1.4805-0.32812-0.42188-0.80078-0.69141-1.3281-0.76172-0.51953-0.070312-1.0508 0.070313-1.4688 0.39844-0.42188 0.32812-0.69922 0.80078-0.76172 1.3398l-0.87109 6.9883c-0.37891 3-2.9297 5.2617-5.9492 5.2617l-37.879 0.003906c-3.0195 0-5.5781-2.2617-5.9492-5.2617l-0.87109-6.9883c-0.070312-0.53125-0.33984-1.0117-0.76172-1.3398-0.42187-0.32812-0.94141-0.46875-1.4688-0.39844-0.53906 0.070312-1.0117 0.33984-1.3398 0.76172z"
     id="path4" />
</svg>
