<?xml version="1.0" encoding="UTF-8" standalone="no"?>
<svg
   version="1.1"
   viewBox="-5.0 -10.0 110.0 135.0"
   id="svg8"
   sodipodi:docname="noun-database-7930853.svg"
   inkscape:version="1.4.3 (0d15f75, 2025-12-25)"
   xmlns:inkscape="http://www.inkscape.org/namespaces/inkscape"
   xmlns:sodipodi="http://sodipodi.sourceforge.net/DTD/sodipodi-0.dtd"
   xmlns="http://www.w3.org/2000/svg"
   xmlns:svg="http://www.w3.org/2000/svg">
  <defs
     id="defs8" />
  <sodipodi:namedview
     id="namedview8"
     pagecolor="#505050"
     bordercolor="#ffffff"
     borderopacity="1"
     inkscape:showpageshadow="0"
     inkscape:pageopacity="0"
     inkscape:pagecheckerboard="1"
     inkscape:deskcolor="#505050"
     inkscape:zoom="5.7259259"
     inkscape:cx="55.012937"
     inkscape:cy="67.5"
     inkscape:window-width="1920"
     inkscape:window-height="991"
     inkscape:window-x="-9"
     inkscape:window-y="-9"
     inkscape:window-maximized="1"
     inkscape:current-layer="svg8" />
  <path
     d="m78.801 32.922v-15.988c0-2.25-2.9492-3.9688-9.0195-5.2383-5.3008-1.1094-12.32-1.7188-19.781-1.7188s-14.488 0.60938-19.781 1.7188c-6.0703 1.2695-9.0195 2.9883-9.0195 5.2383v15.988c0 2.2109 1.5 4.1406 3.6484 4.6797 0.12891 0.03125 0.26172 0.058594 0.39062 0.089844-2.7109 1.0586-4.0391 2.3203-4.0391 3.8398v15.988c0 2.2109 1.5 4.1406 3.6484 4.6797 0.12891 0.03125 0.26172 0.058593 0.39062 0.089843-2.7109 1.0586-4.0391 2.3281-4.0391 3.8398v15.988c0 2.2188 1.5 4.1406 3.6484 4.6797 8.3516 2.1094 16.75 3.1602 25.148 3.1602 8.3984 0 16.809-1.0508 25.148-3.1602 2.1484-0.53906 3.6484-2.4688 3.6484-4.6797v-15.988c0-1.5117-1.3281-2.7812-4.0391-3.8398 0.12891-0.03125 0.26172-0.058593 0.39062-0.089843 2.1484-0.53906 3.6484-2.4688 3.6484-4.6797v-15.988c0-1.5117-1.3281-2.7812-4.0391-3.8398 0.12891-0.03125 0.26172-0.058594 0.39062-0.089844 2.1484-0.53906 3.6484-2.4688 3.6484-4.6797zm-48.102-18.953c5.1406-1.0781 12-1.6719 19.301-1.6719s14.16 0.58984 19.301 1.6719c5.9492 1.25 7.1719 2.6484 7.1719 2.9609 0 0.30859-1.2188 1.7109-7.1719 2.9609-5.1406 1.0781-12 1.6719-19.301 1.6719s-14.16-0.58984-19.301-1.6719c-5.9492-1.25-7.1719-2.6484-7.1719-2.9609 0-0.30859 1.2188-1.7109 7.1719-2.9609zm-7.1719 18.949v-12.949c1.5 0.85156 3.7188 1.5781 6.6914 2.1992 5.3008 1.1094 12.32 1.7188 19.781 1.7188s14.488-0.60938 19.781-1.7188c2.9688-0.62109 5.1914-1.3516 6.6914-2.1992v12.949c0 1.1484-0.78125 2.1406-1.8906 2.4219-16.309 4.1211-32.852 4.1211-49.172 0-1.1094-0.28125-1.8906-1.2812-1.8906-2.4219zm51.059 51.629c-16.309 4.1211-32.852 4.1211-49.172 0-1.1094-0.28125-1.8906-1.2812-1.8906-2.4297v-12.949c1.5 0.85156 3.7188 1.5781 6.6914 2.1992 5.3008 1.1094 12.32 1.7188 19.781 1.7188 7.4609 0 14.488-0.60938 19.781-1.7188 2.9688-0.62109 5.1914-1.3516 6.6914-2.1992v12.949c0 1.1484-0.78125 2.1406-1.8906 2.4297zm1.8906-18.41c0 0.30859-1.2188 1.7109-7.1719 2.9609-5.1406 1.0781-12 1.6719-19.301 1.6719-7.3008 0-14.16-0.58984-19.301-1.6719-5.9492-1.25-7.1719-2.6484-7.1719-2.9609 0-0.28125 1.1016-1.5781 6.3789-2.7891 6.6719 1.3398 13.379 2.0195 20.09 2.0195s13.43-0.67969 20.09-2.0195c5.2812 1.2109 6.3789 2.5 6.3789 2.7891zm-1.8906-6.1914c-1.5508 0.39063-3.1289 0.75-4.6992 1.0703-13.191 2.6992-26.578 2.6992-39.77 0-1.5703-0.32031-3.1484-0.67969-4.6992-1.0703-1.1094-0.28125-1.8906-1.2812-1.8906-2.4219v-12.949c1.5 0.85156 3.7188 1.5781 6.6914 2.1992 5.3008 1.1094 12.32 1.7188 19.781 1.7188s14.488-0.60938 19.781-1.7188c2.9688-0.62109 5.1914-1.3516 6.6914-2.1992v12.949c0 1.1484-0.78125 2.1406-1.8906 2.4219zm-3.7383-21.02c2.4805 0.60938 3.9102 1.2383 4.7109 1.7305 0.10156 0.058594 0.19141 0.12109 0.26953 0.17969 0.32031 0.23047 0.5 0.42187 0.58984 0.55078 0.039062 0.070312 0.058593 0.12109 0.058593 0.14844 0 0.30859-1.2188 1.7109-7.1719 2.9609-5.1406 1.0781-12 1.6719-19.301 1.6719-7.3008 0-14.16-0.58984-19.301-1.6719-5.9492-1.25-7.1719-2.6484-7.1719-2.9609 0-0.039062 0.019531-0.089844 0.058594-0.14844 0.078125-0.12891 0.26172-0.32031 0.58984-0.55078 0.078124-0.058594 0.17187-0.12109 0.26953-0.17969 0.80078-0.48828 2.2383-1.1094 4.7109-1.7305 0.23828-0.058593 0.51172-0.12109 0.76953-0.17969 6.6719 1.3398 13.371 2.0195 20.07 2.0195s13.398-0.67969 20.07-2.0195c0.26172 0.058594 0.53125 0.12109 0.76953 0.17969z"
     id="path1" />
  <path
     d="m29.879 30.191h0.25c0.64062-0.019531 1.1484-0.55859 1.1211-1.1992-0.03125-0.64063-0.55859-1.1484-1.1992-1.1211-1.3281 0.050781-2.0781-0.44922-2.1094-0.46875h0.019532l-1.3789 1.8906c0.12891 0.10156 1.3086 0.91016 3.3008 0.91016z"
     id="path2" />
  <path
     d="m35.109 31.211c0.21094 0.058593 4.9414 1.3008 13.301 1.3008h1.0781c0.64062 0 1.1602-0.53906 1.1484-1.1797 0-0.64062-0.53906-1.1719-1.1797-1.1484-8.6484 0.10938-13.672-1.1992-13.75-1.2188-0.62109-0.17188-1.2617 0.19922-1.4297 0.82031-0.17188 0.62109 0.19922 1.2617 0.82031 1.4297z"
     id="path3" />
  <path
     d="m30.051 52.461c-1.3281 0.050781-2.0781-0.44922-2.1094-0.46875h0.019532l-1.3789 1.8906c0.12891 0.10156 1.3086 0.91016 3.3008 0.91016h0.25c0.64063-0.019531 1.1484-0.55859 1.1211-1.1992-0.019531-0.64062-0.55859-1.1484-1.1992-1.1211z"
     id="path4" />
  <path
     d="m49.461 54.781c-8.6484 0.10938-13.672-1.1992-13.75-1.2188-0.62109-0.17188-1.2617 0.19922-1.4297 0.82031-0.17188 0.62109 0.19922 1.2617 0.82031 1.4297 0.21094 0.058594 4.9414 1.3008 13.301 1.3008h1.0781c0.64062 0 1.1602-0.53906 1.1484-1.1797 0-0.64062-0.53906-1.1719-1.1797-1.1484z"
     id="path5" />
  <path
     d="m30.051 77.059c-1.3281 0.050781-2.0781-0.44922-2.1094-0.46875h0.019532l-1.3789 1.8906c0.12891 0.10156 1.3086 0.91016 3.3008 0.91016h0.25c0.64063-0.019531 1.1484-0.55859 1.1211-1.1992-0.03125-0.64062-0.55859-1.1484-1.1992-1.1211z"
     id="path6" />
  <path
     d="m49.461 79.379c-8.6602 0.10938-13.672-1.1992-13.75-1.2188-0.62109-0.17188-1.2617 0.19922-1.4297 0.82031-0.17188 0.62109 0.19922 1.2617 0.82031 1.4297 0.21094 0.058594 4.9414 1.3008 13.301 1.3008h1.0781c0.64062 0 1.1602-0.53906 1.1484-1.1797 0-0.64062-0.53906-1.1602-1.1797-1.1484z"
     id="path7" />
</svg>
