<svg xmlns="http://www.w3.org/2000/svg" version="1.1" viewBox="-5.0 -10.0 110.0 135.0">
 <path d="m81.25 43.402-4.6367-0.53125c-0.625-2.3281-1.5508-4.5586-2.7578-6.6484l2.9062-3.6523c1.1172-1.4062 1.0039-3.4219-0.26562-4.6914l-4.375-4.3711c-1.2617-1.2695-3.2734-1.3867-4.6875-0.27344l-3.6602 2.9102c-2.0859-1.207-4.3164-2.1328-6.6484-2.7578l-0.52734-4.6367c-0.20703-1.7852-1.7148-3.1289-3.5039-3.1289h-6.1875c-1.7891 0-3.2969 1.3438-3.5039 3.1328l-0.52734 4.6328c-2.332 0.625-4.5625 1.5508-6.6484 2.7578l-3.6641-2.9141c-1.4062-1.1094-3.4219-0.99219-4.6875 0.27344l-4.375 4.375c-1.2695 1.2695-1.3828 3.2852-0.26562 4.6914l2.9062 3.6523c-1.207 2.0898-2.1328 4.3203-2.7578 6.6484l-4.6328 0.53125c-1.7852 0.19922-3.1289 1.707-3.1289 3.5078v6.1875c0 1.793 1.3438 3.2969 3.1289 3.5039l4.6328 0.52344c0.625 2.332 1.5508 4.5625 2.7578 6.6484l-2.9023 3.6562c-1.125 1.4062-1.0117 3.4258 0.26172 4.6875l4.3789 4.3828c1.2734 1.2617 3.2852 1.375 4.6875 0.26172l3.6562-2.9102c2.0859 1.2109 4.3164 2.1367 6.6484 2.7578l0.52734 4.6406c0.20703 1.7812 1.7148 3.125 3.5039 3.125h6.1875c1.793 0 3.2969-1.3438 3.5039-3.1289l0.52344-4.6367c2.332-0.62109 4.5625-1.5469 6.6484-2.7578l3.6562 2.9102c1.4062 1.1172 3.418 1.0039 4.6836-0.26562l4.375-4.375c1.2773-1.2656 1.3906-3.2852 0.26953-4.6875l-2.9062-3.6602c1.207-2.0859 2.1328-4.3125 2.7578-6.6484l4.6367-0.52734c1.7812-0.20703 3.125-1.7148 3.125-3.5039v-6.1875c0-1.8008-1.3438-3.3086-3.125-3.5039zm0.64062 9.6953c0 0.53906-0.39062 0.97656-0.92188 1.0391l-5.4883 0.62109c-0.51953 0.058594-0.94922 0.44141-1.0703 0.94922-0.625 2.668-1.6719 5.1953-3.1133 7.5117-0.27734 0.44531-0.24609 1.0156 0.082031 1.4297l3.4414 4.3359c0.33203 0.41406 0.29688 1.0078-0.078124 1.3828l-4.3789 4.3789c-0.37891 0.37891-0.96094 0.41016-1.3828 0.078125l-4.332-3.4453c-0.41016-0.32812-0.98438-0.35938-1.4297-0.082031-2.3164 1.4492-4.8438 2.4961-7.5078 3.1133-0.51172 0.11719-0.89453 0.54688-0.95313 1.0703l-0.62109 5.4922c-0.0625 0.53906-0.5 0.92578-1.0391 0.92578h-6.1875c-0.53906 0-0.97656-0.39063-1.0391-0.92188l-0.62109-5.4961c-0.058594-0.52344-0.44141-0.94922-0.95312-1.0703-2.6641-0.61719-5.1914-1.6641-7.5078-3.1133-0.20312-0.125-0.42969-0.1875-0.65625-0.1875-0.27344 0-0.54687 0.089844-0.77344 0.26953l-4.332 3.4453c-0.42188 0.33594-1.0078 0.30469-1.3906-0.074219l-4.3789-4.3828c-0.375-0.37109-0.40625-0.96484-0.074218-1.3828l3.4414-4.332c0.32812-0.41016 0.35938-0.98438 0.082031-1.4297-1.4453-2.3164-2.4922-4.8438-3.1133-7.5117-0.12109-0.51172-0.54688-0.89063-1.0703-0.94922l-5.4844-0.62109c-0.53906-0.0625-0.92578-0.5-0.92578-1.0391v-6.1875c0-0.54297 0.38672-0.98047 0.92578-1.0391l5.4883-0.62891c0.51953-0.058594 0.94922-0.44141 1.0664-0.94922 0.625-2.6602 1.6719-5.1875 3.1172-7.5117 0.27734-0.44531 0.24219-1.0156-0.082032-1.4297l-3.4414-4.3281c-0.33594-0.42578-0.30469-1.0078 0.078125-1.3906l4.375-4.375c0.38281-0.38281 0.96875-0.41406 1.3906-0.082031l4.332 3.4453c0.41016 0.32812 0.98438 0.35938 1.4297 0.082031 2.3164-1.4414 4.8438-2.4922 7.5117-3.1133 0.51172-0.12109 0.89062-0.54688 0.94922-1.0703l0.62109-5.4844c0.0625-0.53906 0.5-0.93359 1.0391-0.93359h6.1875c0.53906 0 0.97656 0.39062 1.0391 0.92969l0.62109 5.4883c0.058593 0.52344 0.44141 0.94922 0.94922 1.0703 2.6641 0.625 5.1914 1.6719 7.5117 3.1133 0.44531 0.27734 1.0195 0.24609 1.4297-0.082031l4.3281-3.4414c0.42578-0.33594 1.0078-0.30469 1.3906 0.078125l4.3789 4.3711c0.38281 0.38281 0.41406 0.96484 0.078125 1.3906l-3.4414 4.3281c-0.32812 0.41016-0.35938 0.98047-0.082031 1.4297 1.4453 2.3242 2.4922 4.8516 3.1172 7.5117 0.12109 0.51172 0.54688 0.89062 1.0664 0.94922l5.4922 0.62891c0.53516 0.058594 0.92188 0.49609 0.92188 1.0391v6.1875zm-46.383-3.0938c0 2.1641 0.46484 4.2383 1.3789 6.168 0.29297 0.62109 0.03125 1.3594-0.58984 1.6523-0.17188 0.082031-0.35156 0.12109-0.53125 0.12109-0.46484 0-0.91016-0.26172-1.1211-0.71094-1.0742-2.2617-1.6172-4.6953-1.6172-7.2305 0-9.3594 7.6133-16.977 16.973-16.977 2.5273 0 4.9609 0.54297 7.2305 1.6094 0.62109 0.29297 0.88672 1.0312 0.59766 1.6523-0.29297 0.62109-1.0312 0.88672-1.6523 0.59766-1.9414-0.91016-4.0195-1.375-6.1758-1.375-7.9922 0-14.492 6.5-14.492 14.492zm29.852-7.2344c1.0742 2.2695 1.6172 4.7031 1.6172 7.2344 0 9.3594-7.6133 16.977-16.977 16.977-2.5312 0-4.9648-0.54297-7.2344-1.6172-0.62109-0.29297-0.88672-1.0352-0.59375-1.6523 0.29297-0.62109 1.0352-0.88672 1.6523-0.59375 1.9336 0.91406 4.0117 1.3789 6.1719 1.3789 7.9922 0 14.492-6.5 14.492-14.492 0-2.1641-0.46484-4.2383-1.3789-6.1719-0.29297-0.62109-0.027344-1.3594 0.58984-1.6523 0.62109-0.29297 1.3594-0.027344 1.6523 0.59375zm-16.594 16.094v-14.73l-2.6602 2.6602c-0.48438 0.48438-1.2695 0.48438-1.7578 0-0.48438-0.48438-0.48438-1.2695 0-1.7578l4.7734-4.7734c0.23438-0.23438 0.54688-0.36328 0.87891-0.36328 0.32812 0 0.64453 0.12891 0.87891 0.36328l4.7734 4.7734c0.48438 0.48438 0.48438 1.2695 0 1.7578-0.48438 0.48438-1.2695 0.48438-1.7578 0l-2.6484-2.6484v14.719c0 0.6875-0.55469 1.2422-1.2422 1.2422s-1.2422-0.55469-1.2422-1.2422z"/>
<text x="0.0" y="117.5" font-size="5.0" font-weight="bold" font-family="Arbeit Regular, Helvetica, Arial-Unicode, Arial, Sans-serif" fill="#000000">Created by Jaya</text><text x="0.0" y="122.5" font-size="5.0" font-weight="bold" font-family="Arbeit Regular, Helvetica, Arial-Unicode, Arial, Sans-serif" fill="#000000">from Noun Project</text></svg>