<svg xmlns:dc="http://purl.org/dc/elements/1.1/" xmlns:cc="http://creativecommons.org/ns#" xmlns:rdf="http://www.w3.org/1999/02/22-rdf-syntax-ns#" xmlns:svg="http://www.w3.org/2000/svg" xmlns="http://www.w3.org/2000/svg" xmlns:sodipodi="http://sodipodi.sourceforge.net/DTD/sodipodi-0.dtd" xmlns:inkscape="http://www.inkscape.org/namespaces/inkscape" version="1.1" x="0px" y="0px" viewBox="0 0 100 125" xml:space="preserve"><path d="m 72.411112,1.9387287e-4 c -1.742569,0 -3.25075,1.29731002713 -3.507975,3.01703002713 -0.115429,0.77206 -0.227712,1.56569 -0.334547,2.3651 -1.339641,0.40293 -2.637947,0.94078 -3.870752,1.60445 -0.637302,-0.4875 -1.278187,-0.96923 -1.909629,-1.43622 -1.398625,-1.03457 -3.382403,-0.88547 -4.614232,0.34675 l -3.086835,3.08684 c -1.232417,1.2320201 -1.382465,3.2161701 -0.347901,4.6149901 0.465427,0.62929 0.947362,1.27018 1.436227,1.90963 -0.663278,1.233 -1.201144,2.53111 -1.604072,3.87075 -0.799019,0.10684 -1.592641,0.21892 -2.365098,0.33455 -1.72011,0.25742 -3.017409,1.76559 -3.017409,3.50836 l 0,4.36628 c 0,1.74256 1.296918,3.25055 3.017026,3.50797 0.772652,0.11563 1.565886,0.22791 2.365101,0.33455 0.402927,1.33944 0.940979,2.63755 1.604452,3.87075 -0.488474,0.63906 -0.970585,1.27974 -1.436988,1.91001 -1.033979,1.39823 -0.884322,3.38241 0.347898,4.61385 l 3.087218,3.08722 c 1.232024,1.23241 3.215803,1.38189 4.614232,0.34752 0.631638,-0.46699 1.27213,-0.94912 1.909627,-1.43623 1.233392,0.66367 2.531885,1.20134 3.871135,1.60407 0.106445,0.79902 0.21854,1.59283 0.334164,2.36548 0.257421,1.71992 1.765789,3.01703 3.508358,3.01703 l 4.366279,0 c 1.742569,0 3.250752,-1.29691 3.507977,-3.01741 0.115429,-0.77265 0.227712,-1.56588 0.334547,-2.3651 1.339446,-0.40254 2.637556,-0.94078 3.870753,-1.60445 0.637301,0.4875 1.278184,0.96942 1.909626,1.43661 1.398235,1.03456 3.382404,0.88508 4.614233,-0.34714 l 3.0876,-3.08722 c 1.23222,-1.23202 1.3817,-3.21561 0.347135,-4.61423 -0.466013,-0.63008 -0.947946,-1.27115 -1.436225,-1.90963 0.663278,-1.233 1.201144,-2.53091 1.604072,-3.87075 0.799019,-0.10683 1.593022,-0.21892 2.365479,-0.33455 1.720108,-0.25742 3.01741,-1.76559 3.01741,-3.50835 l 0,-4.36628 c -1.96e-4,-1.74277 -1.297497,-3.25094 -3.01741,-3.50836 -0.772652,-0.11563 -1.566265,-0.22791 -2.365479,-0.33455 -0.402732,-1.33925 -0.940403,-2.63755 -1.604072,-3.87075 0.48906,-0.63965 0.971171,-1.28052 1.436989,-1.91001 1.034174,-1.39863 0.884321,-3.38222 -0.347899,-4.6138501 l -3.0876,-3.08722 c -1.23222,-1.23241 -3.215616,-1.3817 -4.61385,-0.34713 -0.631637,0.46738 -1.272317,0.9493 -1.910009,1.4366 -1.233001,-0.66367 -2.531112,-1.20152 -3.870753,-1.60445 -0.106835,-0.79921 -0.218922,-1.59302 -0.334547,-2.36548 C 80.028143,1.2973139 78.51996,1.9387287e-4 76.777391,1.9387287e-4 l -4.366279,0 z M 73.018791,4.2527939 l 3.150541,0 c 0.101757,0.70137 0.200177,1.41693 0.293731,2.1347 0.18535,1.42069 1.193624,2.58376 2.568421,2.96247 1.316009,0.3627 2.586338,0.8892101 3.775003,1.5644001 1.241205,0.70527 2.777183,0.59572 3.912333,-0.27732 0.571676,-0.43946 1.147599,-0.8759701 1.719276,-1.3023401 l 2.227007,2.2273901 c -0.424802,0.56934 -0.861503,1.14565 -1.302712,1.71928 -0.873237,1.13554 -0.981629,2.67114 -0.276945,3.91195 0.675191,1.18906 1.201706,2.45939 1.564399,3.775 0.378709,1.375 1.541215,2.38307 2.961715,2.56842 0.71816,0.0937 1.434279,0.19216 2.135838,0.29412 l 0,3.15016 c -0.701559,0.10175 -1.417297,0.20055 -2.135458,0.29411 -1.4205,0.18535 -2.583581,1.19344 -2.962095,2.56804 -0.362693,1.3162 -0.889208,2.58634 -1.564399,3.775 -0.70527,1.24082 -0.596302,2.77621 0.277326,3.91233 0.440427,0.57266 0.877138,1.14899 1.302331,1.71852 l -2.227007,2.22777 c -0.571286,-0.42637 -1.147795,-0.86326 -1.719276,-1.30271 -1.135541,-0.87402 -2.671324,-0.98182 -3.912333,-0.27733 -1.18886,0.67538 -2.459199,1.2017 -3.774622,1.5644 -1.375383,0.3789 -2.383657,1.5416 -2.568421,2.96171 -0.09355,0.71816 -0.192159,1.43428 -0.294112,2.13584 l -3.150159,0 c -0.101759,-0.70156 -0.200362,-1.4175 -0.294111,-2.13507 -0.185351,-1.4207 -1.193431,-2.58358 -2.568424,-2.96248 -1.315813,-0.3625 -2.585371,-0.88863 -3.774622,-1.56402 -1.241009,-0.70507 -2.776987,-0.59688 -3.912332,0.27695 -0.571677,0.43964 -1.147598,0.87634 -1.719274,1.30271 l -2.22739,-2.22777 c 0.425193,-0.57012 0.861698,-1.14604 1.302711,-1.71928 0.873042,-1.13573 0.98202,-2.67113 0.276946,-3.91195 -0.675192,-1.18866 -1.201704,-2.45881 -1.564398,-3.77462 -0.378709,-1.37499 -1.541216,-2.38307 -2.961716,-2.56842 -0.71816,-0.0937 -1.434277,-0.19235 -2.135836,-0.2945 l 0,-3.14977 c 0.701559,-0.10176 1.417295,-0.20056 2.135455,-0.29412 1.4205,-0.18535 2.583584,-1.19382 2.962097,-2.56842 0.362694,-1.31601 0.88863,-2.58614 1.564017,-3.775 0.70527,-1.24082 0.596673,-2.7766 -0.276565,-3.91233 -0.441208,-0.57344 -0.877909,-1.14938 -1.302711,-1.71852 l 2.22739,-2.2273901 c 0.571286,0.42637 1.147226,0.8630801 1.718512,1.3023401 1.13515,0.87401 2.671109,0.98297 3.913094,0.2777 1.18847,-0.67519 2.458623,-1.2018901 3.774241,-1.5647801 1.375383,-0.3789 2.383657,-1.5416 2.568422,-2.96171 0.09375,-0.71816 0.192354,-1.4339 0.294112,-2.13546 z m 1.575462,12.0902401 c -4.997044,0 -9.062527,4.06529 -9.062527,9.06253 0,4.99743 4.065288,9.0629 9.062527,9.0629 4.997238,0 9.062527,-4.06547 9.062527,-9.0629 0,-4.99724 -4.065289,-9.06253 -9.062527,-9.06253 z m 0,4.0283 c 2.775766,0 5.034033,2.25808 5.034228,5.03384 0,2.77597 -2.258462,5.03461 -5.034228,5.03461 -2.775571,0 -5.034229,-2.25864 -5.034229,-5.03461 0,-2.77596 2.258462,-5.03384 5.034229,-5.03384 z m -50.342288,13.38074 c -0.493602,0.0145 -0.990153,0.11683 -1.46598,0.31395 l -5.550354,2.29872 c -1.902724,0.78828 -2.963638,2.88694 -2.46657,4.88126 0.295897,1.18847 0.609448,2.4002 0.932689,3.60449 -1.705265,1.34745 -3.251689,2.89442 -4.600119,4.60202 -1.2101495,-0.3248 -2.422231,-0.63815 -3.6060136,-0.93307 -1.9949111,-0.49745 -4.0927878,0.56404 -4.8812601,2.46695 l -2.29872409,5.54998 c -0.78808166,1.90331 -0.0538693,4.137 1.70744919,5.19559 1.049799,0.63085 2.1286291,1.26616 3.2092873,1.88979 -0.2535143,2.16131 -0.2540727,4.3481 -0.00114,6.50707 -1.0816348,0.62402 -2.1598973,1.25896 -3.2085244,1.88903 -1.76131861,1.05878 -2.49572623,3.29247 -1.70744927,5.19597 l 2.29948707,5.55036 c 0.7882769,1.90292 2.8855677,2.96383 4.88126,2.46657 1.1843686,-0.29492 2.3961052,-0.60848 3.6041059,-0.93269 1.347844,1.70526 2.894418,3.2513 4.602026,4.60012 -0.324217,1.20878 -0.637954,2.42087 -0.93307,3.60563 -0.497068,1.99432 0.563455,4.09298 2.46657,4.88126 l 5.550354,2.29911 c 0.515622,0.21347 1.055594,0.31547 1.589575,0.31547 1.437883,0 2.834694,-0.73818 3.607541,-2.02254 0.625973,-1.0416 1.260898,-2.12023 1.88941,-3.20929 2.161121,0.25332 4.348492,0.25368 6.507074,10e-4 0.620895,1.07656 1.255837,2.15521 1.888646,3.20853 1.058979,1.76171 3.292271,2.495336 5.195972,1.70707 l 5.550354,-2.29911 c 1.902725,-0.78828 2.96402,-2.88693 2.466952,-4.88126 -0.293553,-1.17831 -0.607487,-2.38966 -0.933071,-3.60411 1.704873,-1.34745 3.251679,-2.89441 4.6005,-4.60202 1.206634,0.32363 2.41854,0.63737 3.605252,0.93307 1.994325,0.49746 4.093169,-0.56345 4.881642,-2.46695 l 2.299104,-5.55036 c 0.787887,-1.90331 0.05349,-4.13738 -1.70783,-5.19597 -1.051362,-0.63183 -2.130573,-1.26676 -3.209668,-1.88941 0.253709,-2.1621 0.254649,-4.34927 0.0015,-6.50707 1.083197,-0.625 2.161479,-1.25993 3.207762,-1.88903 1.761709,-1.05859 2.496107,-3.29189 1.707831,-5.19559 l 0,-3.8e-4 -2.299107,-5.55036 c -0.788472,-1.90311 -2.88634,-2.96363 -4.881642,-2.46657 -1.185735,0.29512 -2.397268,0.60887 -3.604488,0.93269 -1.347844,-1.70546 -2.894418,-3.25187 -4.602026,-4.6005 0.323827,-1.20741 0.637761,-2.4195 0.933071,-3.60563 0.497068,-1.99432 -0.563456,-4.09279 -2.46657,-4.88126 l -5.550355,-2.29872 c -1.903114,-0.78867 -4.136991,-0.055 -5.19597,1.70706 -0.63066,1.04961 -1.265975,2.12882 -1.889409,3.20967 -2.161512,-0.25371 -4.348299,-0.25445 -6.507076,-0.002 -0.625388,-1.08418 -1.260329,-2.16284 -1.888646,-3.20815 -0.794527,-1.32128 -2.24956,-2.06464 -3.730373,-2.02101 z m 0.02251,4.54137 c 0.60234,1.00507 1.210298,2.03995 1.808537,3.07921 0.845308,1.46776 2.473004,2.28283 4.143503,2.07365 1.919325,-0.23886 3.868182,-0.23869 5.792586,0.001 1.674795,0.20859 3.301636,-0.60589 4.146553,-2.07366 0.596286,-1.03593 1.204236,-2.07118 1.80892,-3.08035 l 5.101748,2.11333 c -0.285545,1.13925 -0.587216,2.30119 -0.898737,3.45762 -0.440428,1.63554 0.134933,3.36182 1.46598,4.39795 1.529093,1.19042 2.907142,2.56811 4.096198,4.09467 1.035151,1.32948 2.760478,1.90392 4.396797,1.46369 1.156048,-0.31133 2.317245,-0.61301 3.455716,-0.89836 l 2.11333,5.10137 c -1.00644,0.60332 -2.041321,1.21127 -3.079206,1.80892 -1.467766,0.84511 -2.282046,2.47124 -2.07404,4.1435 0.238866,1.91933 0.238689,3.86858 -7.63e-4,5.79259 -0.208202,1.67401 0.605317,3.30144 2.073278,4.14655 1.034369,0.59551 2.069799,1.20345 3.080731,1.8093 l -2.11295,5.10213 c -1.140032,-0.28554 -2.302159,-0.58741 -3.457621,-0.89874 -1.635929,-0.44003 -3.36201,0.13494 -4.397941,1.46598 -1.190619,1.52929 -2.568688,2.90773 -4.095437,4.09659 -1.329485,1.03554 -1.903738,2.76108 -1.463311,4.39603 0.313085,1.16288 0.614569,2.32445 0.898357,3.45648 l -5.101748,2.11295 c -0.606833,-1.0125 -1.214597,-2.04718 -1.808539,-3.07921 -0.845113,-1.46757 -2.47144,-2.28069 -4.143501,-2.07366 -1.920107,0.23848 -3.869178,0.23811 -5.791824,-0.001 -1.676749,-0.2082 -3.302017,0.60531 -4.146934,2.07327 -0.601169,1.04375 -1.209109,2.0786 -1.809301,3.08036 l -5.101749,-2.11334 c 0.28535,-1.13808 0.587402,-2.29964 0.899119,-3.45686 0.440428,-1.63573 -0.135313,-3.36257 -1.466361,-4.3987 -1.529289,-1.19042 -2.907144,-2.56812 -4.0962,-4.09467 -1.03515,-1.32988 -2.760877,-1.90393 -4.396415,-1.46369 -1.1568292,0.31152 -2.3184075,0.61358 -3.4560966,0.89873 l -2.1133307,-5.10175 c 1.007807,-0.60429 2.0428844,-1.21224 3.0792069,-1.80892 1.4677655,-0.84511 2.2818511,-2.47124 2.0740397,-4.1435 -0.2388659,-1.9203 -0.2384844,-3.86898 3.815e-4,-5.79182 0.2085926,-1.67382 -0.6047301,-3.30163 -2.0732769,-4.14693 -1.0359318,-0.59649 -2.0709817,-1.20442 -3.0803512,-1.80969 l 2.1129493,-5.10175 c 1.1367125,0.28496 2.2986447,0.58683 3.457623,0.89874 1.635147,0.44063 3.361609,-0.13493 4.398322,-1.46598 1.190423,-1.52929 2.568315,-2.90753 4.094674,-4.0962 1.32968,-1.03534 1.904118,-2.76126 1.463691,-4.39679 -0.310545,-1.15312 -0.612606,-2.31432 -0.898738,-3.45572 l 5.102131,-2.11333 z m 8.953426,13.32657 c -1.981468,-0.016 -3.99749,0.35608 -5.940595,1.16081 -7.771052,3.21912 -11.475228,12.16044 -8.256105,19.93168 1.559171,3.76483 4.491673,6.69693 8.256105,8.25649 1.882217,0.77949 3.859876,1.1692 5.837599,1.1692 1.977724,0 3.955374,-0.38971 5.837981,-1.1692 7.771051,-3.21912 11.474838,-12.16024 8.256105,-19.93168 l 0,-3.9e-4 c -2.414049,-5.82843 -8.046685,-9.36895 -13.99109,-9.41691 z m -0.116728,4.47576 c 4.231813,0 8.254944,2.50786 9.972708,6.65432 2.274401,5.49099 -0.342799,11.80881 -5.833785,14.08341 -2.659751,1.10175 -5.589468,1.10156 -8.25,0 -2.659751,-1.10175 -4.731457,-3.17384 -5.833404,-5.83379 -2.274792,-5.49098 0.342604,-11.809 5.833785,-14.0834 1.344719,-0.55703 2.738438,-0.82054 4.110696,-0.82054 z"/><text x="0" y="115" fill="#000000" font-size="5px" font-weight="bold" font-family="'Helvetica Neue', Helvetica, Arial-Unicode, Arial, Sans-serif">Created by ciciliakwo</text><text x="0" y="120" fill="#000000" font-size="5px" font-weight="bold" font-family="'Helvetica Neue', Helvetica, Arial-Unicode, Arial, Sans-serif">from the Noun Project</text></svg>