<svg xmlns="http://www.w3.org/2000/svg" version="1.1" viewBox="-5.0 -10.0 110.0 135.0">
 <path d="m84.203 44.371v17.859c1.8047 0.60547 3.4141 1.6367 4.7109 2.9727 2.0703 2.1328 3.3516 5.0352 3.3516 8.2109 0 3.2422-1.3281 6.1914-3.4688 8.332l-0.011719 0.011718c-2.1406 2.1367-5.0898 3.4688-8.332 3.4688h-13.438c-0.69531 3.3906-2.3789 6.4219-4.7344 8.7773-3.1406 3.1406-7.4844 5.0859-12.277 5.0859-4.793 0-9.1367-1.9453-12.277-5.0859-2.3555-2.3555-4.0391-5.3867-4.7344-8.7773h-13.438c-3.2422 0-6.1914-1.3281-8.332-3.4688l-0.011718-0.011718c-2.1367-2.1406-3.4688-5.0898-3.4688-8.332 0-3.1758 1.2773-6.0781 3.3516-8.2148 1.293-1.3359 2.9062-2.3633 4.7109-2.9727v-18.105c0-8.4141 3.0898-16.152 8.1914-22.137 4.8672-5.7109 11.59-9.8164 19.219-11.371 0.54688-0.66797 1.1289-1.3047 1.7383-1.918l0.011719-0.011718c4.8203-4.8086 11.449-7.7812 18.766-7.7812 7.3164 0 13.953 2.9727 18.766 7.7812l0.011718 0.011718c4.8086 4.8203 7.7812 11.449 7.7812 18.766 0 6.4219-2.2812 12.312-6.0781 16.906zm-23.98-4.0742c0-1.9336 1.5703-3.5039 3.5-3.5039 1.9336 0 3.5 1.5703 3.5 3.5 0 1.9375-1.5703 3.5078-3.5 3.5078-1.9336 0-3.5-1.5703-3.5-3.5039zm0-25.633c0-1.9336 1.5703-3.5 3.5-3.5 1.9336 0 3.5 1.5703 3.5 3.5v15.832c0 1.9336-1.5703 3.5-3.5 3.5-1.9336 0-3.5-1.5703-3.5-3.5zm-21.848 4.875c-3.4961 1.668-6.5859 4.0625-9.0781 6.9844-4.0469 4.7422-6.4961 10.895-6.4961 17.598v20.984h-0.011719c0 1.8828-1.5 3.4375-3.3906 3.4883-1.2812 0.039062-2.4531 0.59766-3.3008 1.4766-0.83594 0.85938-1.3555 2.043-1.3555 3.3438 0 1.3281 0.53906 2.5312 1.4102 3.4023 0.87109 0.86719 2.0781 1.4102 3.4023 1.4102h60.898c1.3281 0 2.5312-0.53906 3.4023-1.4102 0.86719-0.87109 1.4102-2.0781 1.4102-3.4023 0-1.3008-0.51562-2.4844-1.3555-3.3438-0.80078-0.82422-1.8867-1.3711-3.082-1.4648l-0.125 0.003906c-1.9336 0-3.5-1.5703-3.5-3.5v-14.766c-3.9531 2.3398-8.5625 3.6797-13.477 3.6797-7.3164 0-13.957-2.9766-18.77-7.7852-4.8125-4.8008-7.7852-11.438-7.7852-18.77 0-2.7578 0.42188-5.4219 1.207-7.9258zm39.18-5.918c-3.5273-3.5273-8.418-5.7148-13.828-5.7148-5.4102 0-10.301 2.1836-13.828 5.7148l-0.011719 0.011718c-3.5273 3.5273-5.7148 8.418-5.7148 13.828 0 5.4023 2.1875 10.293 5.7266 13.828v0.011719c3.5273 3.5273 8.418 5.7148 13.828 5.7148 5.3281 0 10.152-2.1211 13.668-5.5586l0.16016-0.17188c3.5391-3.5391 5.7266-8.4297 5.7266-13.828 0-5.4102-2.1836-10.301-5.7148-13.828l-0.011718-0.011718zm-17.793 71.605h-19.516c0.52344 1.457 1.3594 2.7578 2.4297 3.8281 1.875 1.875 4.4648 3.0352 7.3281 3.0352 2.8633 0 5.457-1.1602 7.3281-3.0352 1.0703-1.0703 1.9062-2.3711 2.4297-3.8281z"/>
<text x="0.0" y="117.5" font-size="5.0" font-weight="bold" font-family="Arbeit Regular, Helvetica, Arial-Unicode, Arial, Sans-serif" fill="#000000">Created by Liberus PJ</text><text x="0.0" y="122.5" font-size="5.0" font-weight="bold" font-family="Arbeit Regular, Helvetica, Arial-Unicode, Arial, Sans-serif" fill="#000000">from Noun Project</text></svg>