<svg xmlns="http://www.w3.org/2000/svg" version="1.1" viewBox="-5.0 -10.0 110.0 135.0">
 <path d="m84.375 54.688v-4.6875c0-3.4453-2.8047-6.25-6.25-6.25h-3.125v-12.5c0-6.6797-2.6055-12.957-7.3281-17.664-4.7148-4.7305-10.992-7.3359-17.672-7.3359-13.785 0-25 11.215-25 25v12.5h-3.125c-3.4453 0-6.25 2.8047-6.25 6.25v4.6875c-3.4453 0-6.25 2.8047-6.25 6.25v15.625c0 3.4453 2.8047 6.25 6.25 6.25v4.6875c0 3.4453 2.8047 6.25 6.25 6.25h56.25c3.4453 0 6.25-2.8047 6.25-6.25v-4.6875c3.4453 0 6.25-2.8047 6.25-6.25v-15.625c0-3.4453-2.8047-6.25-6.25-6.25zm-56.25-23.438c0-12.062 9.8125-21.875 21.875-21.875 5.8438 0 11.332 2.2773 15.461 6.418 4.1367 4.125 6.4141 9.6133 6.4141 15.457v12.5h-4.6875v-12.5c0-4.5898-1.7891-8.9062-5.0352-12.152s-7.5625-5.0352-12.152-5.0352c-9.4766 0-17.188 7.7109-17.188 17.188v12.5h-4.6875zm7.8125 12.5v-12.5c0-7.7539 6.3086-14.062 14.062-14.062 3.7539 0 7.2852 1.4648 9.9414 4.1211s4.1211 6.1875 4.1211 9.9414v12.5zm-17.188 6.25c0-1.7227 1.4023-3.125 3.125-3.125h56.25c1.7227 0 3.125 1.4023 3.125 3.125v4.6875h-62.5zm62.5 37.5c0 1.7227-1.4023 3.125-3.125 3.125h-56.25c-1.7227 0-3.125-1.4023-3.125-3.125v-4.6875h62.5zm6.25-10.938c0 1.7227-1.4023 3.125-3.125 3.125h-68.75c-1.7227 0-3.125-1.4023-3.125-3.125v-15.625c0-1.7227 1.4023-3.125 3.125-3.125h68.75c1.7227 0 3.125 1.4023 3.125 3.125z"/>
 <path d="m75.727 65.625c-0.43359-0.74609-1.3867-1.0039-2.1328-0.57031l-1.7188 0.98828v-1.9805c0-0.86328-0.69922-1.5625-1.5625-1.5625s-1.5625 0.69922-1.5625 1.5625v1.9805l-1.7148-0.99219c-0.75-0.43359-1.7031-0.17578-2.1328 0.57031-0.42969 0.75-0.17578 1.7031 0.57031 2.1328l1.7148 0.99609-1.7148 0.99219c-0.75 0.42969-1.0039 1.3828-0.57422 2.1328 0.28906 0.5 0.8125 0.78125 1.3555 0.78125 0.26562 0 0.53125-0.066406 0.78125-0.21094l1.7148-0.98828v1.9805c0 0.86328 0.69922 1.5625 1.5625 1.5625s1.5625-0.69922 1.5625-1.5625v-1.9805l1.7148 0.99219c0.24609 0.14062 0.51562 0.21094 0.78125 0.21094 0.53906 0 1.0664-0.28125 1.3555-0.78125 0.42969-0.75 0.17578-1.7031-0.57031-2.1328l-1.7188-0.99609 1.7148-0.99219c0.75-0.42969 1.0039-1.3828 0.57422-2.1328z"/>
 <path d="m55.414 65.625c-0.43359-0.74609-1.3867-1.0039-2.1328-0.57031l-1.7188 0.98828v-1.9805c0-0.86328-0.69922-1.5625-1.5625-1.5625s-1.5625 0.69922-1.5625 1.5625v1.9805l-1.7148-0.99219c-0.75-0.43359-1.7031-0.17578-2.1328 0.57031-0.42969 0.75-0.17578 1.7031 0.57031 2.1328l1.7148 0.99609-1.7148 0.99219c-0.75 0.42969-1.0039 1.3828-0.57422 2.1328 0.28906 0.5 0.8125 0.78125 1.3555 0.78125 0.26562 0 0.53125-0.066406 0.78125-0.21094l1.7148-0.98828v1.9805c0 0.86328 0.69922 1.5625 1.5625 1.5625s1.5625-0.69922 1.5625-1.5625v-1.9805l1.7148 0.99219c0.24609 0.14062 0.51562 0.21094 0.78125 0.21094 0.53906 0 1.0664-0.28125 1.3555-0.78125 0.42969-0.75 0.17578-1.7031-0.57031-2.1328l-1.7188-0.99609 1.7148-0.99219c0.75-0.42969 1.0039-1.3828 0.57422-2.1328z"/>
 <path d="m35.102 65.625c-0.43359-0.74609-1.3867-1.0039-2.1328-0.57031l-1.7188 0.98828v-1.9805c0-0.86328-0.69922-1.5625-1.5625-1.5625s-1.5625 0.69922-1.5625 1.5625v1.9805l-1.7148-0.99219c-0.75-0.43359-1.7031-0.17578-2.1328 0.57031-0.42969 0.75-0.17578 1.7031 0.57031 2.1328l1.7148 0.99609-1.7148 0.99219c-0.75 0.42969-1.0039 1.3828-0.57422 2.1328 0.28906 0.5 0.8125 0.78125 1.3555 0.78125 0.26562 0 0.53125-0.066406 0.78125-0.21094l1.7148-0.98828v1.9805c0 0.86328 0.69922 1.5625 1.5625 1.5625s1.5625-0.69922 1.5625-1.5625v-1.9805l1.7148 0.99219c0.24609 0.14062 0.51562 0.21094 0.78125 0.21094 0.53906 0 1.0664-0.28125 1.3555-0.78125 0.42969-0.75 0.17578-1.7031-0.57031-2.1328l-1.7188-0.99609 1.7148-0.99219c0.75-0.42969 1.0039-1.3828 0.57422-2.1328z"/>
<text x="0.0" y="117.5" font-size="5.0" font-weight="bold" font-family="Arbeit Regular, Helvetica, Arial-Unicode, Arial, Sans-serif" fill="#000000">Created by Satria Arnata</text><text x="0.0" y="122.5" font-size="5.0" font-weight="bold" font-family="Arbeit Regular, Helvetica, Arial-Unicode, Arial, Sans-serif" fill="#000000">from Noun Project</text></svg>