<?xml version="1.0" encoding="UTF-8" standalone="no"?>
<svg
   version="1.1"
   viewBox="-5.0 -10.0 110.0 135.0"
   id="svg2"
   sodipodi:docname="noun-system-8238260.svg"
   inkscape:version="1.4.3 (0d15f75, 2025-12-25)"
   xmlns:inkscape="http://www.inkscape.org/namespaces/inkscape"
   xmlns:sodipodi="http://sodipodi.sourceforge.net/DTD/sodipodi-0.dtd"
   xmlns="http://www.w3.org/2000/svg"
   xmlns:svg="http://www.w3.org/2000/svg">
  <defs
     id="defs2" />
  <sodipodi:namedview
     id="namedview2"
     pagecolor="#505050"
     bordercolor="#ffffff"
     borderopacity="1"
     inkscape:showpageshadow="0"
     inkscape:pageopacity="0"
     inkscape:pagecheckerboard="1"
     inkscape:deskcolor="#505050"
     inkscape:zoom="5.7259259"
     inkscape:cx="55.012937"
     inkscape:cy="67.5"
     inkscape:window-width="1920"
     inkscape:window-height="991"
     inkscape:window-x="-9"
     inkscape:window-y="-9"
     inkscape:window-maximized="1"
     inkscape:current-layer="svg2" />
  <path
     d="m84.73 60.457c-3.5117 11.688-12.586 20.762-24.273 24.273-0.14062 0.042969-0.28125 0.0625-0.41797 0.0625-0.625 0-1.2031-0.40625-1.3906-1.0352-0.23047-0.76562 0.20703-1.5781 0.97266-1.8047 10.754-3.2305 19.102-11.578 22.332-22.328 0.23047-0.76562 1.0273-1.207 1.8086-0.97266 0.76562 0.23047 1.2031 1.0391 0.97266 1.8047zm-68.492-19.109c0.14062 0.042969 0.28125 0.0625 0.41797 0.0625 0.625 0 1.1992-0.40625 1.3906-1.0352 3.2305-10.754 11.578-19.102 22.332-22.328 0.76562-0.23047 1.2031-1.0391 0.97266-1.8047-0.23047-0.76563-1.0273-1.2031-1.8086-0.97266-11.688 3.5117-20.762 12.586-24.273 24.273-0.23047 0.76562 0.20703 1.5781 0.97266 1.8047zm24.141 40.605c-10.754-3.2305-19.102-11.578-22.332-22.328-0.23047-0.76562-1.0312-1.207-1.8086-0.97266-0.76562 0.23047-1.2031 1.0391-0.97266 1.8047 3.5117 11.688 12.586 20.762 24.273 24.273 0.14063 0.042969 0.28125 0.0625 0.41797 0.0625 0.625 0 1.2031-0.40625 1.3906-1.0352 0.23047-0.76562-0.20703-1.5781-0.97266-1.8047zm19.242-63.906c10.754 3.2305 19.102 11.578 22.332 22.328 0.19141 0.62891 0.76562 1.0352 1.3906 1.0352 0.13672 0 0.27734-0.019531 0.41797-0.0625 0.76562-0.23047 1.2031-1.0391 0.97266-1.8047-3.5117-11.688-12.586-20.762-24.273-24.273-0.77734-0.23047-1.5781 0.20703-1.8086 0.97266-0.23047 0.76562 0.20703 1.5781 0.97266 1.8047zm-15.426-2.8672c0-3.1992 2.6016-5.8047 5.8047-5.8047 3.1992 0 5.8047 2.6055 5.8047 5.8047 0 3.1992-2.6016 5.8047-5.8047 5.8047-3.1992 0-5.8047-2.6055-5.8047-5.8047zm2.9023 0c0 1.6016 1.3008 2.9023 2.9023 2.9023s2.9023-1.3008 2.9023-2.9023c0-1.6016-1.3008-2.9023-2.9023-2.9023s-2.9023 1.3008-2.9023 2.9023zm43.527 34.82c0 3.1992-2.6016 5.8047-5.8047 5.8047-3.1992 0-5.8047-2.6055-5.8047-5.8047s2.6016-5.8047 5.8047-5.8047c3.1992 0 5.8047 2.6055 5.8047 5.8047zm-2.9023 0c0-1.6016-1.3008-2.9023-2.9023-2.9023-1.6016 0-2.9023 1.3008-2.9023 2.9023s1.3008 2.9023 2.9023 2.9023c1.6016 0 2.9023-1.3008 2.9023-2.9023zm-31.918 34.82c0 3.1992-2.6016 5.8047-5.8047 5.8047-3.1992 0-5.8047-2.6055-5.8047-5.8047 0-3.1992 2.6016-5.8047 5.8047-5.8047 3.1992 0 5.8047 2.6055 5.8047 5.8047zm-2.9023 0c0-1.6016-1.3008-2.9023-2.9023-2.9023s-2.9023 1.3008-2.9023 2.9023c0 1.6016 1.3008 2.9023 2.9023 2.9023s2.9023-1.3008 2.9023-2.9023zm-37.723-29.016c-3.1992 0-5.8047-2.6055-5.8047-5.8047s2.6016-5.8047 5.8047-5.8047c3.1992 0 5.8047 2.6055 5.8047 5.8047s-2.6016 5.8047-5.8047 5.8047zm2.9023-5.8047c0-1.6016-1.3008-2.9023-2.9023-2.9023-1.6016 0-2.9023 1.3008-2.9023 2.9023s1.3008 2.9023 2.9023 2.9023c1.6016 0 2.9023-1.3008 2.9023-2.9023zm41.145 17.43-0.63281-0.63281c-0.89453 0.45703-1.8281 0.84375-2.793 1.1523v0.91016c0 3.1992-2.6016 5.8047-5.8047 5.8047-3.1992 0-5.8047-2.6055-5.8047-5.8047v-0.91016c-0.96484-0.30859-1.8984-0.69531-2.793-1.1523l-0.63672 0.63672c-1.0898 1.1016-2.5508 1.707-4.1016 1.707-1.5547 0-3.0117-0.60938-4.1055-1.7148-1.0977-1.0859-1.707-2.543-1.707-4.0977 0-1.5508 0.60938-3.0117 1.7148-4.1055l0.62891-0.63281c-0.45703-0.89453-0.84375-1.8281-1.1523-2.793h-0.91016c-3.1992 0-5.8047-2.6055-5.8047-5.8047 0-3.1992 2.6016-5.8047 5.8047-5.8047h0.91016c0.30859-0.96484 0.69531-1.8984 1.1523-2.793l-0.63281-0.63672c-1.1016-1.0898-1.7109-2.5508-1.7109-4.1016s0.60938-3.0117 1.7148-4.1055c1.0859-1.0977 2.543-1.7031 4.0977-1.7031 1.5508 0 3.0078 0.60938 4.1055 1.7148l0.63281 0.63281c0.89453-0.45703 1.8281-0.84375 2.793-1.1523v-0.91016c0-3.1992 2.6016-5.8047 5.8047-5.8047 3.1992 0 5.8047 2.6055 5.8047 5.8047v0.91016c0.96484 0.30859 1.8984 0.69531 2.793 1.1523l0.63672-0.63672c1.0898-1.1016 2.5508-1.707 4.1016-1.707 1.5547 0 3.0117 0.60938 4.1055 1.7148 1.0977 1.0859 1.707 2.543 1.707 4.0977 0 1.5508-0.60938 3.0117-1.7148 4.1055l-0.62891 0.63281c0.45703 0.89453 0.84375 1.8281 1.1523 2.793h0.91016c3.1992 0 5.8047 2.6055 5.8047 5.8047s-2.6016 5.8047-5.8047 5.8047h-0.91016c-0.30859 0.96484-0.69531 1.8984-1.1523 2.793l0.63281 0.63672c1.1016 1.0898 1.7109 2.5508 1.7109 4.1016 0 1.5508-0.60938 3.0117-1.7148 4.1055-1.0859 1.0977-2.543 1.7031-4.0977 1.7031-1.5508 0-3.0078-0.60938-4.1055-1.7148zm0.64844-3.4531 1.4102 1.4062c1.1016 1.1133 3 1.1055 4.0938 0.003907 0.55859-0.55469 0.86328-1.2812 0.86328-2.0547 0-0.77344-0.30469-1.5-0.85547-2.0469l-1.4102-1.4102c-0.46875-0.46875-0.5625-1.1953-0.22266-1.7656 0.75391-1.2734 1.3281-2.6562 1.6992-4.1172 0.16406-0.64063 0.74219-1.0938 1.4062-1.0938h2.0039c1.6016 0 2.9023-1.3008 2.9023-2.9023 0-1.6016-1.3008-2.9023-2.9023-2.9023h-2.0039c-0.66406 0-1.2422-0.44922-1.4062-1.0938-0.37109-1.457-0.94531-2.8438-1.6992-4.1172-0.33984-0.57031-0.24609-1.2969 0.22266-1.7656l1.4062-1.4062c0.55469-0.55078 0.85938-1.2773 0.85938-2.0508 0-0.77344-0.30469-1.5-0.85547-2.043-1.1094-1.1211-3.0039-1.1133-4.0977-0.007813l-1.4141 1.4141c-0.46875 0.46875-1.1992 0.55859-1.7656 0.22266-1.2734-0.75781-2.6562-1.3281-4.1133-1.6992-0.64453-0.16406-1.0938-0.74219-1.0938-1.4062v-2.0039c0-1.6016-1.3008-2.9023-2.9023-2.9023s-2.9023 1.3008-2.9023 2.9023v2.0039c0 0.66406-0.44922 1.2422-1.0938 1.4062-1.457 0.37109-2.8438 0.94141-4.1133 1.6992-0.57031 0.33984-1.2969 0.25-1.7656-0.22266l-1.4102-1.4062c-1.1055-1.1133-3.0039-1.1055-4.0938-0.003907-0.55859 0.55469-0.86328 1.2812-0.86328 2.0547 0 0.77344 0.30469 1.5 0.85547 2.0469l1.4102 1.4102c0.46875 0.46875 0.5625 1.1953 0.22266 1.7656-0.75391 1.2734-1.3281 2.6562-1.6992 4.1172-0.16406 0.64063-0.74219 1.0938-1.4062 1.0938h-2.0039c-1.6016 0-2.9023 1.3008-2.9023 2.9023 0 1.6016 1.3008 2.9023 2.9023 2.9023h2.0039c0.66406 0 1.2422 0.44922 1.4062 1.0938 0.37109 1.457 0.94531 2.8438 1.6992 4.1172 0.33984 0.57031 0.24609 1.2969-0.22266 1.7656l-1.4062 1.4062c-0.55469 0.55078-0.85938 1.2773-0.85938 2.0508 0 0.77344 0.30469 1.5 0.85547 2.043 1.1094 1.1211 3.0039 1.1133 4.0977 0.007813l1.4141-1.4141c0.27734-0.27734 0.65234-0.42578 1.0273-0.42578 0.25391 0 0.51172 0.066407 0.74219 0.20312 1.2734 0.75781 2.6562 1.3281 4.1133 1.6992 0.64453 0.16406 1.0938 0.74219 1.0938 1.4062v2.0039c0 1.6016 1.3008 2.9023 2.9023 2.9023 1.6016 0 2.9023-1.3008 2.9023-2.9023v-2.0039c0-0.66406 0.44922-1.2422 1.0938-1.4062 1.457-0.37109 2.8438-0.94141 4.1133-1.6992 0.57031-0.33984 1.2969-0.25 1.7656 0.22266zm3.1836-13.977c0 7.1992-5.8555 13.059-13.059 13.059-7.1992 0-13.059-5.8594-13.059-13.059s5.8555-13.059 13.059-13.059c7.1992 0 13.059 5.8594 13.059 13.059zm-2.9023 0c0-5.6016-4.5586-10.156-10.156-10.156s-10.156 4.5547-10.156 10.156 4.5586 10.156 10.156 10.156 10.156-4.5547 10.156-10.156z"
     id="path1" />
</svg>
