<svg xmlns="http://www.w3.org/2000/svg" version="1.1" viewBox="-5.0 -10.0 110.0 135.0">
 <path d="m90.602 51.445c-0.35156 9.8516-4.2188 19.102-10.82 26.195l6.75 0.24219c1.7266 0.0625 3.0703 1.5078 3.0078 3.2344-0.0625 1.6875-1.4453 3.0156-3.1172 3.0156h-0.11719l-14.055-0.5c-1.7266-0.0625-3.0703-1.5078-3.0078-3.2344l0.5-14.055c0.0625-1.7266 1.5156-3.0625 3.2344-3.0078 1.7266 0.0625 3.0703 1.5078 3.0078 3.2344l-0.21875 6.1797c5.2266-5.9141 8.2969-13.469 8.5859-21.516 0.32813-9.1797-2.9375-17.93-9.1953-24.648s-14.758-10.609-23.938-10.938c-18.914-0.64844-34.898 14.188-35.57 33.133-0.67188 18.945 14.188 34.898 33.133 35.578 2.9297 0.10156 5.8281-0.15625 8.625-0.77344 1.6875-0.36719 3.3516 0.69531 3.7266 2.375 0.375 1.6875-0.69531 3.3516-2.375 3.7266-2.8359 0.625-5.7656 0.94531-8.7188 0.94531-0.49219 0-0.98437-0.007812-1.4766-0.023437-10.844-0.38281-20.891-4.9688-28.289-12.914-7.3984-7.9375-11.258-18.289-10.867-29.133 0.78906-22.391 19.633-39.969 42.039-39.164 22.383 0.79687 39.953 19.656 39.156 42.047zm-48.805-14.734c1.4688-0.90625 1.9219-2.8359 1.0156-4.2969-0.90625-1.4688-2.8281-1.9219-4.2969-1.0156-6.5078 4.0078-10.391 10.961-10.391 18.602 0 12.062 9.8125 21.875 21.875 21.875s21.875-9.8125 21.875-21.875c0-7.5859-3.8438-14.516-10.281-18.547-1.4609-0.91406-3.3906-0.46875-4.3047 0.99219-0.91406 1.4609-0.46875 3.3906 0.99219 4.3047 4.6016 2.8828 7.3438 7.8281 7.3438 13.25 0 8.6172-7.0078 15.625-15.625 15.625s-15.625-7.0078-15.625-15.625c0-5.4531 2.7734-10.422 7.4219-13.289zm11.328 7.0391v-15.625c0-1.7266-1.3984-3.125-3.125-3.125s-3.125 1.3984-3.125 3.125v15.625c0 1.7266 1.3984 3.125 3.125 3.125s3.125-1.3984 3.125-3.125z"/>
<text x="0.0" y="117.5" font-size="5.0" font-weight="bold" font-family="Arbeit Regular, Helvetica, Arial-Unicode, Arial, Sans-serif" fill="#000000">Created by IconPai</text><text x="0.0" y="122.5" font-size="5.0" font-weight="bold" font-family="Arbeit Regular, Helvetica, Arial-Unicode, Arial, Sans-serif" fill="#000000">from Noun Project</text></svg>