<svg xmlns="http://www.w3.org/2000/svg" version="1.1" viewBox="-5.0 -10.0 110.0 135.0">
 <path d="m49.996 10c-22.055 0-39.996 17.945-39.996 40.004 0 22.055 17.941 39.996 39.996 39.996 22.059 0 40.004-17.941 40.004-39.996 0-22.059-17.945-40.004-40.004-40.004zm0 76.129c-19.922 0-36.129-16.207-36.129-36.129s16.207-36.133 36.129-36.133 36.133 16.207 36.133 36.133c0 19.922-16.207 36.129-36.133 36.129zm0-67.566c-17.332 0-31.434 14.102-31.434 31.438 0 17.332 14.102 31.434 31.434 31.434 17.336 0 31.438-14.102 31.438-31.434 0.003906-17.332-14.102-31.438-31.438-31.438zm1.9375 58.934v-4.6758c0-1.0703-0.86719-1.9336-1.9336-1.9336-1.0703 0-1.9375 0.86719-1.9375 1.9336v4.6758c-13.66-0.95312-24.605-11.898-25.559-25.559h4.6758c1.0703 0 1.9336-0.86719 1.9336-1.9336s-0.86719-1.9336-1.9336-1.9336h-4.6758c0.95312-13.66 11.898-24.609 25.559-25.562v4.6758c0 1.0703 0.86719 1.9336 1.9375 1.9336s1.9336-0.86719 1.9336-1.9336v-4.6758c13.66 0.95313 24.609 11.902 25.562 25.562h-4.6758c-1.0703 0-1.9375 0.86719-1.9375 1.9336s0.86719 1.9336 1.9375 1.9336h4.6758c-0.95312 13.66-11.902 24.609-25.562 25.559zm7.7305-17.195c0.61719 0.87109 0.41016 2.0781-0.46094 2.6992-0.33984 0.24219-0.73047 0.35547-1.1172 0.35547-0.60547 0-1.2031-0.28516-1.582-0.81641l-8.4453-11.918 0.003906-12.992c0-1.0703 0.86719-1.9336 1.9375-1.9336s1.9336 0.86719 1.9336 1.9336v11.758z"/>
<text x="0.0" y="117.5" font-size="5.0" font-weight="bold" font-family="Arbeit Regular, Helvetica, Arial-Unicode, Arial, Sans-serif" fill="#000000">Created by Putri Amaliya</text><text x="0.0" y="122.5" font-size="5.0" font-weight="bold" font-family="Arbeit Regular, Helvetica, Arial-Unicode, Arial, Sans-serif" fill="#000000">from Noun Project</text></svg>