<svg xmlns="http://www.w3.org/2000/svg" xmlns:xlink="http://www.w3.org/1999/xlink" version="1.1" x="0px" y="0px" viewBox="0 0 52 65" enable-background="new 0 0 52 52" xml:space="preserve"><g><path d="M43.1738167,31.6431808c0.1003418-7.2578125,1.34375-15.458252,0.0701294-22.6315308   c-0.7404785-4.1705933-4.4799805-3.5092773-8.0889893-3.3720093C34.9247322,4.84655,34.5692635,4.1072922,34.1018562,3.549675   c-1.5791016-1.8839113-4.3139668-1.5853273-6.5217915-1.626526c-2.6130371-0.0487671-5.5296021-0.4724731-7.9520264,0.7598878   c-1.6199951,0.8240967-2.2418213,1.7489014-2.5053101,2.9730225c-0.0848999-0.0217896-0.1748657-0.0368042-0.2713013-0.0421753   c-4.2403564-0.2367554-7.8643188-0.6715088-8.2532959,3.991394c-0.6051631,7.255127-0.3721924,14.6472168-0.348938,21.9210815   c0.012207,3.829895-0.0054321,7.6669312,0.0861206,11.4957886c0.0449829,1.8817139-0.2598877,4.2366943,1.1868896,5.7439575   c1.6036377,1.6706543,4.1957397,1.3571777,6.2692261,1.3793335c3.7178955,0.0396118,7.4384155,0.0046997,11.1565552,0.0070801   c3.7171631,0.0023804,7.4399433,0.0698853,11.156496,0.0071411c1.5412598-0.026062,3.6663208,0.3139648,4.8328857-1.0773926   c1.1248779-1.3416138,0.4714966-3.6948853,0.3928833-5.1915283C43.1160164,39.8113327,43.1172981,35.7266769,43.1738167,31.6431808   z M22.2993031,4.4899216c1.1915283-0.2397461,2.4181519-0.1202393,3.6255493-0.0976563   c1.2836914,0.0239258,2.5807495-0.0046387,3.8621826,0.0720825c0.9429932,0.0563965,3.0891743,0.8945923,3.3322773,2.0709229   c-0.0519409,0.1866455-0.0664673,0.3840942-0.0402832,0.5765991c-0.0424194,0.1246948-0.0997314,0.2510376-0.1911621,0.3804932   c-0.5618896,0.7954102-5.3945332,0.104248-6.4198017,0.104187c-2.3458862-0.0002441-4.6918335-0.0004883-7.0377197-0.0007324   C19.5499744,5.7592697,19.9357166,4.9655685,22.2993031,4.4899216z M40.8791389,44.8315964   c0.583313,1.300415,0.2782593,2.2435303-0.9152222,2.8292236c-1.239624-0.0007935-2.479248-0.0015869-3.7188721-0.0023804   c-2.479187-0.0015869-4.958437-0.0031738-7.437624-0.0047607c-2.479248-0.0015259-4.9584961-0.0031128-7.4376831-0.0046997   c-2.0244751-0.0012817-5.5524292,0.6762085-7.4376831-0.0047607c-4.991394-1.8029175-3.1541748-10.1344604-3.1745605-14.2019043   c-0.0256348-5.1089478-0.0214844-10.2184448,0.0639038-15.3269043c0.0342407-2.0484009-0.3652344-4.8849487,0.1876221-6.862915   c-0.3605347-1.8468628,0.5567017-2.9116821,2.7516479-3.194519c1.0316772-0.059082,2.0618896-0.0404663,3.0907593,0.0559082   c0.0181274,0.0010376,0.0332642-0.0025635,0.0509644-0.0021973c-0.0019531,0.0540161-0.0039063,0.1078491-0.0059204,0.1627808   c-0.3355103,0.7403564,0.0211792,1.8210449,1.081665,1.821167c3.0321045,0.0003052,6.06427,0.0006714,9.0963745,0.0009766   c2.3365479,0.0002441,4.9916401,0.3588257,7.2839985-0.1002197c0.4299927-0.0861206,0.7478027-0.4763184,0.8730469-0.8730469   c0.1000366-0.3168335,0.1525269-0.6647949,0.1830444-1.0223389c1.8626099-0.1416016,4.2459717-0.401001,5.3293457,0.9106445   c0.8600464,1.0413208,0.1693726,6.1504517,0.1721191,7.5392456c0.0099487,5.0319214-0.1727295,10.0614014-0.2422485,15.0922852   C40.6161995,35.810051,41.4633675,40.7235641,40.8791389,44.8315964z"/><path d="M23.1865711,17.2677536c4.305603-0.0259399,8.611145-0.0519409,12.9166889-0.0779419   c1.6081543-0.0097046,1.6116943-2.5097046,0-2.5c-4.3055439,0.026001-8.6110859,0.052002-12.9166889,0.0779419   C21.5784168,14.7774582,21.5749378,17.2775192,23.1865711,17.2677536z"/><path d="M23.1864491,25.1586838c4.333313,0,8.666626,0,13.0000019,0c1.6085815,0,1.6112671-2.5,0-2.5   c-4.3333759,0-8.6666889,0-13.0000019,0C21.5778065,22.6586838,21.5751209,25.1586838,23.1864491,25.1586838z"/><path d="M36.5197639,30.6586838c-4.416687,0-8.8333149,0-13.2500019,0c-1.6086426,0-1.6113281,2.5,0,2.5   c4.416687,0,8.8333149,0,13.2500019,0C38.1284065,33.1586838,38.131031,30.6586838,36.5197639,30.6586838z"/><path d="M36.186451,38.7419968c-4.1944599,0-8.3889179,0-12.5833759,0c-1.6086426,0-1.6112671,2.5,0,2.5   c4.194458,0,8.388916,0,12.5833759,0C37.7950325,41.2419968,37.797718,38.7419968,36.186451,38.7419968z"/><path d="M18.9355946,38.5840988c-1.0263062-0.0941772-2.0523071-0.1230469-3.0822754-0.0866699   c-1.604187,0.0567017-1.6117554,2.5570068,0,2.5c1.0299683-0.036377,2.0559692-0.0075073,3.0822754,0.0866699   c0.6731567,0.0618286,1.25-0.6187134,1.25-1.25C20.1855946,39.1066208,19.6107044,38.6461105,18.9355946,38.5840988z"/><path d="M19.019762,30.6586838c-1.055542,0-2.111145,0-3.166687,0c-1.6086426,0-1.6112671,2.5,0,2.5   c1.055542,0,2.111145,0,3.166687,0C20.6284046,33.1586838,20.6310291,30.6586838,19.019762,30.6586838z"/><path d="M19.103075,22.9086838c-1.166626,0-2.333313,0-3.5,0c-1.6086426,0-1.6112671,2.5,0,2.5c1.166687,0,2.333374,0,3.5,0   C20.7117176,25.4086838,20.7144032,22.9086838,19.103075,22.9086838z"/><path d="M19.603075,14.8253708c-1.277771,0-2.555542,0-3.833313,0c-1.6086426,0-1.6113281,2.5,0,2.5   c1.277771,0,2.555542,0,3.833313,0C21.2117176,17.3253708,21.2144032,14.8253708,19.603075,14.8253708z"/></g><text x="0" y="67" fill="#000000" font-size="5px" font-weight="bold" font-family="'Helvetica Neue', Helvetica, Arial-Unicode, Arial, Sans-serif">Created by DinosoftLabs</text><text x="0" y="72" fill="#000000" font-size="5px" font-weight="bold" font-family="'Helvetica Neue', Helvetica, Arial-Unicode, Arial, Sans-serif">from the Noun Project</text></svg>