<svg xmlns="http://www.w3.org/2000/svg" version="1.1" viewBox="-5.0 -10.0 110.0 135.0">
 <path d="m29.168 8.332c-1.8867 0-3.6953 0.75-5.0312 2.0859l-5.3867 5.3867c-1.332 1.332-2.082 3.1445-2.082 5.0273v56.25c0 3.4297 2.8203 6.25 6.25 6.25h2.082v2.082c0 3.4297 2.8242 6.2539 6.25 6.2539h41.668c5.7266 0 10.414-4.6914 10.414-10.418v-58.332c0-3.4297-2.8203-6.25-6.25-6.25h-2.082v-2.0859c0-3.4258-2.8242-6.25-6.25-6.25zm0 4.168h39.582c1.1758 0 2.082 0.90625 2.082 2.082v62.5c0 1.1758-0.90625 2.0859-2.082 2.0859h-45.832c-1.1758 0-2.0859-0.91016-2.0859-2.0859v-56.25c0-0.78125 0.3125-1.5273 0.86328-2.082l5.3867-5.3867c0.55469-0.55469 1.3008-0.86328 2.0859-0.86328zm45.832 8.332h2.082c1.1758 0 2.0859 0.91016 2.0859 2.0859v58.332c0 3.4766-2.7734 6.25-6.25 6.25h-41.668c-1.1758 0-2.082-0.90625-2.082-2.082v-2.0859h39.582c3.4258 0 6.25-2.8242 6.25-6.25z"/>
 <path d="m29.168 60.418c-2.2773 0-4.168 1.8906-4.168 4.168 0 2.2773 1.8906 4.168 4.168 4.168 2.2773 0 4.168-1.8906 4.168-4.168 0-2.2773-1.8906-4.168-4.168-4.168z"/>
 <path d="m39.582 62.5c-1.1484 0-2.082 0.93359-2.082 2.082 0 0.55469 0.21875 1.082 0.60938 1.4727 0.39062 0.39062 0.92188 0.61328 1.4727 0.61328h25c0.55469 0 1.082-0.22266 1.4727-0.61328 0.39062-0.39063 0.61328-0.91797 0.61328-1.4727 0-0.55078-0.22266-1.082-0.61328-1.4727-0.39063-0.39062-0.91797-0.60938-1.4727-0.60938z"/>
 <path d="m29.168 47.918c-2.2773 0-4.168 1.8906-4.168 4.168 0 2.2773 1.8906 4.168 4.168 4.168 2.2773 0 4.168-1.8906 4.168-4.168 0-2.2773-1.8906-4.168-4.168-4.168z"/>
 <path d="m39.582 50c-1.1484 0-2.082 0.93359-2.082 2.082 0 0.55469 0.21875 1.082 0.60938 1.4727 0.39062 0.39062 0.92188 0.61328 1.4727 0.61328h25c0.55469 0 1.082-0.22266 1.4727-0.61328 0.39062-0.39063 0.61328-0.91797 0.61328-1.4727 0-0.55078-0.22266-1.082-0.61328-1.4727-0.39063-0.39062-0.91797-0.60938-1.4727-0.60938z"/>
 <path d="m29.168 35.418c-2.2773 0-4.168 1.8906-4.168 4.168 0 2.2773 1.8906 4.168 4.168 4.168 2.2773 0 4.168-1.8906 4.168-4.168 0-2.2773-1.8906-4.168-4.168-4.168z"/>
 <path d="m39.582 37.5c-1.1484 0-2.082 0.93359-2.082 2.082 0 0.55469 0.21875 1.082 0.60938 1.4727 0.39062 0.39062 0.92188 0.61328 1.4727 0.61328h25c0.55469 0 1.082-0.22266 1.4727-0.61328 0.39062-0.39063 0.61328-0.91797 0.61328-1.4727 0-0.55078-0.22266-1.082-0.61328-1.4727-0.39063-0.39062-0.91797-0.60938-1.4727-0.60938z"/>
 <path d="m35.418 20.832c-1.1523 0-2.0859 0.93359-2.0859 2.0859 0 0.55078 0.22266 1.082 0.61328 1.4727 0.39063 0.39062 0.91797 0.60938 1.4727 0.60938h20.832c0.55078 0 1.082-0.21875 1.4727-0.60938s0.60938-0.92188 0.60938-1.4727c0-0.55469-0.21875-1.082-0.60938-1.4727-0.39062-0.39062-0.92188-0.61328-1.4727-0.61328z"/>
<text x="0.0" y="117.5" font-size="5.0" font-weight="bold" font-family="Arbeit Regular, Helvetica, Arial-Unicode, Arial, Sans-serif" fill="#000000">Created by Ian Banyuke</text><text x="0.0" y="122.5" font-size="5.0" font-weight="bold" font-family="Arbeit Regular, Helvetica, Arial-Unicode, Arial, Sans-serif" fill="#000000">from Noun Project</text></svg>