<svg xmlns="http://www.w3.org/2000/svg" version="1.1" viewBox="-5.0 -10.0 110.0 135.0">
 <path d="m49.406 31.406c-6.2188-0.007812-12.188 2.457-16.59 6.8516-4.4023 4.3906-6.875 10.355-6.8789 16.574-0.003906 6.2227 2.4648 12.188 6.8633 16.586 4.3984 4.3984 10.363 6.8672 16.586 6.8633 6.2188-0.003906 12.184-2.4766 16.574-6.8789 4.3945-4.4023 6.8594-10.371 6.8516-16.59-0.007812-6.207-2.4766-12.152-6.8633-16.543-4.3906-4.3867-10.336-6.8555-16.543-6.8633zm0 43.75c-5.3906 0.007812-10.559-2.125-14.375-5.9297-3.8164-3.8086-5.9648-8.9727-5.9688-14.363-0.003906-5.3867 2.1289-10.559 5.9375-14.371s8.9766-5.957 14.363-5.9609c5.3906-0.003906 10.559 2.1367 14.371 5.9453 3.8125 3.8086 5.9531 8.9766 5.9531 14.367-0.050781 5.3516-2.207 10.469-6.0039 14.242-3.793 3.7734-8.9258 5.8984-14.277 5.9141z"/>
 <path d="m73.062 74.156c4.9375-6.0195 7.3984-13.695 6.875-21.465-0.52344-7.7656-3.9883-15.043-9.6914-20.344-5.7031-5.3047-13.211-8.2344-20.996-8.1914s-15.266 3.0508-20.91 8.4102c-5.6445 5.3633-9.0312 12.676-9.4727 20.449-0.44141 7.7734 2.0977 15.426 7.1016 21.391l-6.8125 8.4375c-0.54297 0.67188-0.4375 1.6602 0.23438 2.2031s1.6602 0.4375 2.2031-0.23438l6.5312-8.0938c5.7266 5.6094 13.434 8.7305 21.453 8.6914 8.0156-0.042968 15.691-3.2422 21.359-8.9102l6.6875 8.3125c0.30078 0.36719 0.74609 0.58203 1.2188 0.59375 0.36328-0.003906 0.71094-0.125 1-0.34375 0.66406-0.55859 0.76172-1.543 0.21875-2.2188zm-23.656 8.125c-7.2852 0.007812-14.277-2.8789-19.438-8.0273-5.1562-5.1484-8.0586-12.133-8.0625-19.422-0.003906-7.2852 2.8828-14.277 8.0352-19.434 5.1484-5.1523 12.137-8.0508 19.422-8.0547 7.2891-0.003906 14.277 2.8906 19.43 8.043 5.1562 5.1523 8.0508 12.141 8.0508 19.426-0.007812 7.2773-2.9023 14.254-8.043 19.402-5.1445 5.1484-12.117 8.0508-19.395 8.0664z"/>
 <path d="m36.031 23.031c0.5625-0.46094 0.74609-1.2461 0.4375-1.9062-1.543-3.0078-4.2383-5.2617-7.4688-6.25-3.8242-0.66016-7.7383 0.49609-10.594 3.125-2.9219 2.0586-4.9023 5.1953-5.5 8.7188-0.20312 3.7227 1.3047 7.3398 4.0938 9.8125 0.29688 0.30078 0.70312 0.46875 1.125 0.46875 0.35547 0.011719 0.69922-0.10938 0.96875-0.34375zm-20.031 4.0312c0.5-2.6758 2.0273-5.0547 4.25-6.625 1.8281-1.6016 4.1367-2.5586 6.5625-2.7188 0.44531 0.007812 0.88281 0.074219 1.3125 0.1875 1.957 0.56641 3.6445 1.8203 4.75 3.5312l-14.688 11.875c-1.5234-1.7148-2.3086-3.9609-2.1875-6.25z"/>
 <path d="m81.656 18.75c-2.8672-2.6484-6.8125-3.8047-10.656-3.125-3.2305 0.98828-5.9258 3.2422-7.4688 6.25-0.30859 0.66016-0.125 1.4453 0.4375 1.9062l16.938 13.719c0.26953 0.23438 0.61328 0.35547 0.96875 0.34375 0.42188 0 0.82812-0.16797 1.125-0.46875 2.7891-2.4727 4.2969-6.0898 4.0938-9.8125-0.5625-3.5469-2.5195-6.7188-5.4375-8.8125zm0 15.375-14.688-11.875c1.1484-1.7305 2.8945-2.9766 4.9062-3.5 2.9375-0.41406 5.9023 0.53125 8.0625 2.5625 2.1914 1.5781 3.6875 3.9414 4.1875 6.5938 0.046875 2.3125-0.83203 4.5508-2.4375 6.2188z"/>
 <path d="m49.188 54.062v-13.062c-0.015625-0.85547-0.70703-1.5469-1.5625-1.5625-0.86328 0-1.5625 0.69922-1.5625 1.5625v13.812c-0.003906 0.48438 0.21484 0.94531 0.59375 1.25l7.9375 6.25c0.27734 0.21875 0.61719 0.33984 0.96875 0.34375 0.48438 0.003906 0.94141-0.22656 1.2188-0.625 0.52344-0.68359 0.39844-1.6602-0.28125-2.1875z"/>
<text x="0.0" y="117.5" font-size="5.0" font-weight="bold" font-family="Arbeit Regular, Helvetica, Arial-Unicode, Arial, Sans-serif" fill="#000000">Created by Onesadya.Std</text><text x="0.0" y="122.5" font-size="5.0" font-weight="bold" font-family="Arbeit Regular, Helvetica, Arial-Unicode, Arial, Sans-serif" fill="#000000">from Noun Project</text></svg>