<svg xmlns="http://www.w3.org/2000/svg" version="1.1" viewBox="-5.0 -10.0 110.0 135.0">
 <path d="m28.055 33.234c-0.33594-0.33594-0.80859-0.50781-1.2812-0.46094-0.47656 0.046874-0.90625 0.30078-1.1719 0.69531-3.3164 4.8867-5.0703 10.605-5.0703 16.531 0 16.25 13.223 29.473 29.473 29.473 5.9297 0 11.645-1.7539 16.531-5.0703 0.39453-0.26953 0.64844-0.69922 0.69531-1.1719 0.046875-0.47656-0.125-0.94531-0.46094-1.2812zm21.945 43.039c-14.488 0-26.273-11.785-26.273-26.273 0-4.6289 1.1992-9.1133 3.4844-13.082l35.871 35.871c-3.9688 2.2852-8.4531 3.4844-13.082 3.4844zm28.285-54.559c-7.5547-7.5547-17.602-11.715-28.285-11.715s-20.73 4.1602-28.285 11.715c-7.5547 7.5547-11.715 17.602-11.715 28.285s4.1602 20.73 11.715 28.285c7.5547 7.5547 17.602 11.715 28.285 11.715s20.73-4.1602 28.285-11.715c7.5547-7.5547 11.715-17.602 11.715-28.285s-4.1602-20.73-11.715-28.285zm-28.285 65.086c-20.293 0-36.801-16.508-36.801-36.801s16.508-36.801 36.801-36.801 36.801 16.508 36.801 36.801-16.508 36.801-36.801 36.801zm0-66.273c-5.9297 0-11.645 1.7539-16.531 5.0703-0.39453 0.26953-0.64844 0.69922-0.69531 1.1719-0.046876 0.47656 0.125 0.94531 0.46094 1.2812l38.711 38.711c0.30078 0.30078 0.71094 0.46875 1.1328 0.46875 0.050781 0 0.10156-0.003907 0.15234-0.007813 0.47656-0.046875 0.90625-0.30078 1.1719-0.69531 3.3164-4.8867 5.0703-10.605 5.0703-16.531 0-16.25-13.223-29.473-29.473-29.473zm22.789 42.555-35.871-35.871c3.9688-2.2852 8.4531-3.4844 13.082-3.4844 14.488 0 26.273 11.785 26.273 26.273 0 4.6289-1.1992 9.1133-3.4844 13.082z"/>
<text x="0.0" y="117.5" font-size="5.0" font-weight="bold" font-family="Arbeit Regular, Helvetica, Arial-Unicode, Arial, Sans-serif" fill="#000000">Created by Hermanto</text><text x="0.0" y="122.5" font-size="5.0" font-weight="bold" font-family="Arbeit Regular, Helvetica, Arial-Unicode, Arial, Sans-serif" fill="#000000">from Noun Project</text></svg>