<svg xmlns="http://www.w3.org/2000/svg" version="1.1" viewBox="-5.0 -10.0 110.0 135.0">
 <path d="m59.039 15.188h-9.0391c-0.86328 0-1.5625 0.69922-1.5625 1.5625v4.0391c-18.18 5.2344-31.5 22.008-31.5 41.867 0 0.86328 0.69922 1.5625 1.5625 1.5625s1.5625-0.69922 1.5625-1.5625c0-18.117 11.941-33.469 28.375-38.602v10.871c-5.6797 1.6602-9.8242 6.9023-9.8242 13.117v33.613c0 7.5469 6.1172 13.664 13.664 13.664h17.125c7.5469 0 13.664-6.1172 13.664-13.664v-33.613c0-6.457-4.4766-11.867-10.5-13.293v-6.0312c5.918-0.76953 10.5-5.8359 10.5-11.961 0-6.6562-5.4062-12.062-12.062-12.062-6.1289 0-11.195 4.582-11.961 10.5zm20.898 55.906v10.555c0 5.8203-4.7188 10.539-10.539 10.539h-17.125c-5.8203 0-10.539-4.7188-10.539-10.539v-10.555zm-38.199-9.375v6.25h38.199v-6.25zm28.816-24.156 0.023437 0.003906c0.38281 0.042969 0.76172 0.10547 1.1367 0.19141 0.66406 0.14844 1.3125 0.36328 1.9336 0.63281 0.69531 0.30859 1.3633 0.69531 1.9766 1.1484 0.62891 0.46094 1.207 0.99219 1.7188 1.582 0.89453 1.0234 1.5859 2.2227 2.0234 3.5078 0.23828 0.69141 0.39844 1.4062 0.49219 2.1328 0.050781 0.42188 0.074219 0.85156 0.074219 1.2734v10.555h-38.199v-10.555c0-5.4297 4.1094-9.8984 9.3828-10.477h19.43zm-18.992-19.25v16.082c0.23828-0.011719 0.47656-0.019531 0.71094-0.019531h17.125 0.039062v-16.062zm21 7.2383c4.1875-0.73828 7.375-4.3984 7.375-8.8008 0-4.9297-4.0078-8.9375-8.9375-8.9375-4.3984 0-8.0625 3.1875-8.8008 7.375h8.8008c0.86328 0 1.5625 0.69922 1.5625 1.5625z" fill-rule="evenodd"/>
<text x="0.0" y="117.5" font-size="5.0" font-weight="bold" font-family="Arbeit Regular, Helvetica, Arial-Unicode, Arial, Sans-serif" fill="#000000">Created by Singlar</text><text x="0.0" y="122.5" font-size="5.0" font-weight="bold" font-family="Arbeit Regular, Helvetica, Arial-Unicode, Arial, Sans-serif" fill="#000000">from Noun Project</text></svg>