<svg xmlns="http://www.w3.org/2000/svg" version="1.1" viewBox="-5.0 -10.0 110.0 135.0">
 <path d="m26.301 53.5h17.398l-8.3008 29.398c-0.30078 0.89844 0.19922 1.8984 1 2.3008 0.30078 0.19922 0.60156 0.19922 0.89844 0.19922 0.60156 0 1.1992-0.30078 1.6016-0.69922l36.301-44.801c0.5-0.60156 0.60156-1.3984 0.19922-2.1016-0.30078-0.69922-1.1016-1.1992-1.8008-1.1016l-19.5 0.5 6.3984-19.898c0.19922-0.60156 0-1.3008-0.30078-1.8008-0.39844-0.5-1-0.80078-1.6016-0.80078h-20c-0.80078 0-1.6016 0.5-1.8984 1.3008l-12.301 34.898c-0.19922 0.60156-0.10156 1.3008 0.30078 1.8008 0.39844 0.5 1 0.80078 1.6016 0.80078zm13.801-34.898h15.801l-6.5 19.898c-0.19922 0.60156 0 1.3008 0.30078 1.8008 0.39844 0.5 1 0.80078 1.6992 0.80078l18-0.39844-27.398 33.898 6.3984-22.5c0.19922-0.60156 0-1.3008-0.30078-1.8008-0.39844-0.5-1-0.80078-1.6016-0.80078h-17.301l10.898-30.898z"/>
<text x="0.0" y="117.5" font-size="5.0" font-weight="bold" font-family="Arbeit Regular, Helvetica, Arial-Unicode, Arial, Sans-serif" fill="#000000">Created by SM Rony</text><text x="0.0" y="122.5" font-size="5.0" font-weight="bold" font-family="Arbeit Regular, Helvetica, Arial-Unicode, Arial, Sans-serif" fill="#000000">from Noun Project</text></svg>