<svg xmlns="http://www.w3.org/2000/svg" version="1.1" viewBox="-5.0 -10.0 110.0 135.0">
 <path d="m94.355 15.957c-0.65234-0.43359-1.5352-0.25391-1.9648 0.39844l-9.5469 14.402c-0.31641 0.48047-0.31641 1.1055 0.007812 1.582 1.4688 2.168 1.332 4.332-0.47656 7.4727l-13.938 24.129s0 0.003906-0.003906 0.003906c-0.17578 0.30469-0.46094 0.52734-0.80859 0.61719-0.35156 0.09375-0.72266 0.042969-1.0391-0.13672-0.64063-0.36719-0.85547-1.1953-0.48047-1.8477 0.003906-0.007813 0.007812-0.019531 0.011719-0.027344l5.8086-10.055c0.39062-0.67969 0.16016-1.5469-0.51953-1.9375-0.67969-0.39453-1.5469-0.16016-1.9375 0.51953l-7.6797 13.301c-0.22656 0.40234-0.60156 0.69531-1.0586 0.82031-0.46094 0.125-0.9375 0.0625-1.3477-0.17578-0.84375-0.48438-1.1367-1.5586-0.66797-2.4062l7.6875-13.316c0.39062-0.67969 0.16016-1.5469-0.51953-1.9375-0.67969-0.39453-1.5469-0.16016-1.9375 0.51953l-7.6562 13.266c-0.003906 0.007812-0.011718 0.015624-0.015624 0.023437-0.011719 0.015625-0.015626 0.035156-0.027344 0.050781l-0.625 1.082c-0.55078 0.95312-1.7773 1.2852-2.7227 0.74609-0.94922-0.55469-1.2773-1.7812-0.72656-2.7344 0.085937-0.14844 0.13672-0.30469 0.16406-0.46094 0.17969-0.20703 0.34766-0.42578 0.48828-0.67188l7.6719-13.285c0.39062-0.67969 0.16016-1.5469-0.51953-1.9375-0.67969-0.39453-1.5469-0.16016-1.9375 0.51953l-7.6758 13.277c-0.44531 0.76172-1.3711 1.0703-2.1289 0.79688l3.0312-5.2383c0.54297-0.94922 0.6875-2.0547 0.40234-3.1094-0.10156-0.37109-0.26562-0.70703-0.45703-1.0312l6.1641-10.664c5.3242 1.9023 10.098 0.48828 13.879-4.1562 0.49609-0.60938 0.40234-1.5-0.20312-1.9961-0.60938-0.49609-1.5039-0.40234-1.9961 0.20703-3.3203 4.082-7.2539 4.9805-12.023 2.7422-0.42188-0.19922-0.91016-0.17578-1.3125 0.054687l-7.6328 4.3945c-1.6289 0.94141-2.5273-0.17969-2.7656-0.54297-0.44922-0.69531-0.80078-2.1641 0.73047-3.2578l16.793-12.066c1.543-0.76953 2.9023-0.98438 4.0391-0.63672 0.66016 0.20312 1.375-0.10547 1.6836-0.72266l7.7109-15.477c0.35156-0.70313 0.066406-1.5547-0.63672-1.9023-0.70312-0.35156-1.5547-0.0625-1.9023 0.63672l-7.2305 14.504c-1.5664-0.17188-3.2578 0.20312-5.0508 1.1172-0.0625 0.03125-0.125 0.070313-0.18359 0.11328l-16.879 12.129c-2.7148 1.9414-2.7891 5.043-1.4609 7.1016 0.80469 1.2461 2.2344 2.2188 3.9414 2.2188 0.82422 0 1.7109-0.22656 2.625-0.75391l3.6797-2.1172-4.2109 7.2891c-0.41016-0.13281-0.82812-0.20703-1.2461-0.20703-0.019531-0.24609-0.066406-0.49219-0.12891-0.73828-0.29297-1.1094-0.99609-2.0352-1.9922-2.6094-1.2578-0.71484-2.7266-0.73047-3.9414-0.16797-0.35547-0.61719-0.86719-1.1289-1.5-1.4922-0.94922-0.54297-2.0547-0.6875-3.1094-0.40234-0.88672 0.23828-1.6484 0.75391-2.1914 1.4727-0.22266-0.22266-0.47656-0.42188-0.75781-0.58984-1.8008-1.0195-4.0898-0.39453-5.1055 1.3906l-11.688 20.211c-1.1641 2.0195-2.4531 4.9922-0.80078 8.1914l-11.262 17.004c-0.43359 0.65234-0.25391 1.5352 0.39844 1.9648 0.65625 0.43359 1.5352 0.25391 1.9688-0.39844l11.75-17.742c0.31641-0.48047 0.3125-1.1016-0.007812-1.5781-1.1875-1.7617-1.0742-3.4492 0.41016-6.0234l11.688-20.219c0.003906-0.003906 0.003906-0.007812 0.007813-0.015625 0.24219-0.42969 0.80078-0.57422 1.2109-0.34375 0.43359 0.25781 0.59375 0.82031 0.34766 1.2305-0.03125 0.050781-0.054687 0.10156-0.078125 0.15234l-3.5234 6.0859c-0.39453 0.67969-0.16016 1.5469 0.51562 1.9375 0.67969 0.39453 1.5469 0.16016 1.9375-0.51562l5.1523-8.8984c0.16797-0.28906 0.4375-0.5 0.76172-0.58594 0.32422-0.085937 0.66406-0.042968 0.95703 0.125 0.28906 0.16797 0.5 0.44141 0.58203 0.76953 0.085937 0.32031 0.039062 0.65234-0.12891 0.92969-0.042968 0.070313-0.078124 0.14453-0.10547 0.21875l-5.0352 8.6914c-0.39063 0.67969-0.16016 1.5469 0.51562 1.9375 0.67969 0.39062 1.5469 0.16016 1.9414-0.51562l5.7031-9.8477c0.38281-0.67188 1.2852-0.91016 1.9648-0.52344 0.32422 0.1875 0.55859 0.5 0.66016 0.875 0.097656 0.375 0.046875 0.76172-0.14453 1.0898-0.074218 0.125-0.125 0.25781-0.15625 0.39062-0.14453 0.17188-0.27734 0.35938-0.39453 0.5625l-5.1289 8.8906c-0.39062 0.67969-0.16016 1.5469 0.51953 1.9375 0.67969 0.39062 1.5469 0.16016 1.9375-0.51953l5.125-8.8867c0.34766-0.59766 1.125-0.79688 1.7266-0.45312 0.29297 0.16797 0.5 0.4375 0.58594 0.76172 0.089844 0.32422 0.042969 0.66797-0.12109 0.95312l-7.4492 12.883c-0.51172 0.90625-0.35547 2.0117 0.34375 2.7109 0.71484 0.76953 1.8203 0.95312 2.7578 0.45703l4-2.1289c1.1484-0.66797 1.7812 0.042969 2 0.38281 0.33594 0.51563 0.59375 1.6094-0.55469 2.4336l-14.047 10.09c-1.2539 0.61719-2.3359 0.78906-3.2148 0.51562-0.66406-0.20703-1.3828 0.097656-1.6914 0.72266l-6.4531 12.992c-0.34766 0.70312-0.0625 1.5547 0.64062 1.9023 0.20312 0.10156 0.41797 0.14844 0.62891 0.14844 0.51953 0 1.0234-0.28906 1.2734-0.78906l5.9766-12.031c1.3047 0.10937 2.7227-0.21875 4.2188-0.97656 0.066406-0.03125 0.12891-0.070313 0.1875-0.11328l14.145-10.152c1.793-1.2812 2.2656-3.1953 1.8945-4.8203 0.14063 0.011718 0.28125 0.027343 0.42188 0.027343 0.79687 0 1.582-0.20312 2.2852-0.57422 0.40234 0.79297 1.0195 1.457 1.8047 1.9102 0.70703 0.41406 1.4961 0.625 2.2969 0.625 0.40625 0 0.81641-0.054688 1.2188-0.16406 1.1094-0.30078 2.0234-0.99609 2.6289-1.9375 0.30078 0.34766 0.65625 0.65234 1.0781 0.89453 0.66016 0.37891 1.3789 0.55469 2.0898 0.55469 1.4453 0 2.8516-0.74609 3.6211-2.0781 0.003906-0.003906 0.003906-0.003906 0.007813-0.007812l13.938-24.137c1.3711-2.3828 2.8867-5.9062 0.87109-9.6484l9.0469-13.652c0.43359-0.65625 0.25391-1.5391-0.39844-1.9727zm-47.281 47.379-2.3242 1.2383 2.0586-3.5586c0.63672 0.30859 1.3164 0.46875 1.9922 0.46875 0.089844 0 0.17969-0.011719 0.26953-0.015625 0.015626 0.42188 0.082032 0.83984 0.20313 1.2422-0.73047 0.011718-1.4844 0.20703-2.1992 0.625z"/>
<text x="0.0" y="117.5" font-size="5.0" font-weight="bold" font-family="Arbeit Regular, Helvetica, Arial-Unicode, Arial, Sans-serif" fill="#000000">Created by hanis tusiyani</text><text x="0.0" y="122.5" font-size="5.0" font-weight="bold" font-family="Arbeit Regular, Helvetica, Arial-Unicode, Arial, Sans-serif" fill="#000000">from Noun Project</text></svg>