<svg xmlns="http://www.w3.org/2000/svg" data-name="Layer 1" viewBox="0 0 100 125" x="0px" y="0px"><title>Artboard 661</title><path d="M77,30A11,11,0,0,0,66,19H30A11,11,0,0,0,19,30V66A11,11,0,0,0,30,77h7a3,3,0,0,0,0-6H30a5,5,0,0,1-5-5V30a5,5,0,0,1,5-5H45v9a3,3,0,0,0,6,0V25H66a5,5,0,0,1,5,5V50a3,3,0,0,0,6,0Z"/><path d="M78,65H57.17l4.93-4.86A3,3,0,0,0,60,55h0a3,3,0,0,0-2.11.86L49.66,64a5.65,5.65,0,0,0,0,8l8.23,8.12a3.07,3.07,0,0,0,4.24,0,3,3,0,0,0,0-4.24L57.17,71H78a3,3,0,0,0,0-6Z"/><text x="0" y="115" fill="#000000" font-size="5px" font-weight="bold" font-family="'Helvetica Neue', Helvetica, Arial-Unicode, Arial, Sans-serif">Created by Gregor Cresnar</text><text x="0" y="120" fill="#000000" font-size="5px" font-weight="bold" font-family="'Helvetica Neue', Helvetica, Arial-Unicode, Arial, Sans-serif">from the Noun Project</text></svg>