<svg xmlns="http://www.w3.org/2000/svg" version="1.1" viewBox="-5.0 -10.0 110.0 135.0">
 <path d="m23.691 4.2852c-1.7305 0-3.4688 0.67578-4.7852 1.9922l-12.629 12.629c-2.6328 2.6328-2.6328 6.9375 0 9.5742l21.516 21.527-21.516 21.516c-2.6328 2.6328-2.6328 6.9375 0 9.5742l12.629 12.641c2.6328 2.6328 6.9414 2.6328 9.5742 0l21.516-21.527 21.527 21.527c2.6328 2.6328 6.9297 2.6328 9.5625 0l12.641-12.641c2.6328-2.6328 2.6328-6.9375 0-9.5742l-21.527-21.516 21.527-21.527c2.6328-2.6328 2.6328-6.9375 0-9.5742l-12.641-12.629c-2.6328-2.6328-6.9297-2.6328-9.5625 0l-21.527 21.516-21.516-21.516c-1.3203-1.3164-3.0586-1.9922-4.7891-1.9922zm0 2.8555c1 0 1.9883 0.38281 2.7617 1.1602l22.531 22.531c0.26562 0.26953 0.62891 0.42188 1.0117 0.42188 0.37891 0 0.74219-0.15234 1.0117-0.42188l22.531-22.531c1.5508-1.5508 3.9844-1.5508 5.5352 0l12.629 12.629c1.5508 1.5508 1.5508 3.9766 0 5.5234l-22.531 22.539v0.003906c-0.26953 0.26953-0.42188 0.63281-0.42188 1.0117 0 0.37891 0.15234 0.74609 0.42188 1.0117l22.531 22.531c1.5508 1.5508 1.5508 3.9844 0 5.5352l-12.629 12.629c-1.5508 1.5508-3.9844 1.5508-5.5352 0l-22.531-22.539c-0.26953-0.26953-0.63281-0.42188-1.0117-0.42188-0.38281 0-0.74609 0.15234-1.0117 0.42188l-22.531 22.539c-1.5508 1.5508-3.9766 1.5508-5.5234 0l-12.641-12.629c-1.5508-1.5508-1.5508-3.9844 0-5.5352l22.539-22.531c0.26953-0.26562 0.42188-0.63281 0.42188-1.0117 0-0.37891-0.15234-0.74219-0.42188-1.0117l-22.539-22.539c-1.5508-1.5508-1.5508-3.9766 0-5.5234l12.641-12.629c0.77344-0.77344 1.7617-1.1602 2.7617-1.1602z"/>
<text x="0.0" y="117.5" font-size="5.0" font-weight="bold" font-family="Arbeit Regular, Helvetica, Arial-Unicode, Arial, Sans-serif" fill="#000000">Created by Alzam</text><text x="0.0" y="122.5" font-size="5.0" font-weight="bold" font-family="Arbeit Regular, Helvetica, Arial-Unicode, Arial, Sans-serif" fill="#000000">from Noun Project</text></svg>