<svg xmlns="http://www.w3.org/2000/svg" viewBox="0 0 32 40" fill="none" x="0px" y="0px"><path fill-rule="evenodd" clip-rule="evenodd" d="M11 12C11 9.23858 13.2386 7 16 7C18.7614 7 21 9.23858 21 12C21 14.7614 18.7614 17 16 17C13.2386 17 11 14.7614 11 12ZM16 9C14.3431 9 13 10.3431 13 12C13 13.6569 14.3431 15 16 15C17.6569 15 19 13.6569 19 12C19 10.3431 17.6569 9 16 9Z" fill="black"/><path fill-rule="evenodd" clip-rule="evenodd" d="M26 12C26 15.6146 24.316 18.6272 22.416 20.8811C22.7754 20.9925 23.1182 21.1134 23.4425 21.2431C24.417 21.6329 25.2728 22.1221 25.9013 22.7165C26.5319 23.3128 27 24.0841 27 25C27 25.9159 26.5319 26.6872 25.9013 27.2835C25.2728 27.8779 24.417 28.3671 23.4425 28.7569C21.4878 29.5388 18.8561 30 16 30C13.1439 30 10.5122 29.5388 8.55754 28.7569C7.58299 28.3671 6.72723 27.8779 6.09874 27.2835C5.46814 26.6872 5 25.9159 5 25C5 24.0841 5.46814 23.3128 6.09874 22.7165C6.72723 22.1221 7.58299 21.6329 8.55754 21.2431C8.88177 21.1134 9.22462 20.9925 9.58405 20.8811C7.684 18.6273 6 15.6146 6 12C6 6.47715 10.4772 2 16 2C21.5228 2 26 6.47715 26 12ZM8 12C8 7.58172 11.5817 4 16 4C20.4183 4 24 7.58172 24 12C24 15.5992 21.9629 18.6083 19.7923 20.7824C18.7175 21.859 17.6393 22.7006 16.8293 23.2729C16.5012 23.5046 16.2186 23.6911 16 23.8302C15.7814 23.6911 15.4988 23.5046 15.1707 23.2729C14.3607 22.7006 13.2825 21.859 12.2077 20.7824C10.0371 18.6083 8 15.5992 8 12ZM15.5082 25.8707C15.3651 25.7899 15.2246 25.7043 15.0851 25.6174C14.8244 25.4553 14.4564 25.2169 14.0168 24.9064C13.2245 24.3467 12.1922 23.5472 11.1342 22.5308C10.4577 22.6914 9.8418 22.8835 9.30032 23.1C8.46523 23.4341 7.85653 23.8068 7.47296 24.1696C7.0915 24.5303 7 24.8113 7 25C7 25.1887 7.0915 25.4697 7.47296 25.8304C7.85653 26.1932 8.46523 26.5659 9.30032 26.9C10.965 27.5658 13.3332 28 16 28C18.6668 28 21.035 27.5658 22.6997 26.9C23.5348 26.5659 24.1435 26.1932 24.527 25.8304C24.9085 25.4697 25 25.1887 25 25C25 24.8113 24.9085 24.5303 24.527 24.1696C24.1435 23.8068 23.5348 23.4341 22.6997 23.1C22.1582 22.8835 21.5423 22.6914 20.8658 22.5308C19.8078 23.5472 18.7755 24.3467 17.9832 24.9064C17.5436 25.2169 17.1756 25.4553 16.9149 25.6174C16.7754 25.7042 16.6349 25.79 16.4918 25.8707C16.1911 26.0394 15.8089 26.0396 15.5082 25.8707Z" fill="black"/><text x="0" y="47" fill="#000000" font-size="5px" font-weight="bold" font-family="'Helvetica Neue', Helvetica, Arial-Unicode, Arial, Sans-serif">Created by HDM</text><text x="0" y="52" fill="#000000" font-size="5px" font-weight="bold" font-family="'Helvetica Neue', Helvetica, Arial-Unicode, Arial, Sans-serif">from the Noun Project</text></svg>