<svg xmlns="http://www.w3.org/2000/svg" version="1.1" viewBox="-5.0 -10.0 110.0 135.0">
 <path d="m68.891 29.375c1.9062-1.9062 2.957-4.4414 2.957-7.1367 0-2.6953-1.0508-5.2344-2.957-7.1367-1.9062-1.9062-4.4453-2.957-7.1367-2.957-2.6953 0-5.2344 1.0508-7.1367 2.957l-20.5 20.492c-3.8477 3.8477-5.9688 8.9609-5.9688 14.406 0 5.4414 2.1172 10.555 5.9688 14.406l20.496 20.496c1.9062 1.9062 4.4453 2.957 7.1367 2.957 2.6953 0 5.2344-1.0508 7.1367-2.957 3.9336-3.9375 3.9375-10.344 0-14.281l-20.492-20.496c-0.015625-0.015625-0.054687-0.054688-0.054687-0.125 0-0.074219 0.03125-0.10938 0.054687-0.125zm-23.945 24.203 20.496 20.496c2.0312 2.0312 2.0312 5.3398 0 7.375-0.98438 0.98438-2.293 1.5273-3.6875 1.5273-1.3906 0-2.7031-0.54297-3.6875-1.5273l-20.496-20.496c-2.9258-2.9258-4.5391-6.8125-4.5391-10.953 0-4.1367 1.6094-8.0234 4.5391-10.953l20.496-20.496c1.0156-1.0156 2.3516-1.5234 3.6875-1.5234 1.332 0 2.6719 0.50781 3.6875 1.5234 0.98438 0.98438 1.5273 2.293 1.5273 3.6875 0 1.3906-0.54297 2.7031-1.5273 3.6875l-20.496 20.496c-1.2891 1.2891-1.4844 2.7969-1.4844 3.5781s0.19141 2.2891 1.4844 3.5781z"/>
<text x="0.0" y="117.5" font-size="5.0" font-weight="bold" font-family="Arbeit Regular, Helvetica, Arial-Unicode, Arial, Sans-serif" fill="#000000">Created by Rahmat Sigit Prasetyo</text><text x="0.0" y="122.5" font-size="5.0" font-weight="bold" font-family="Arbeit Regular, Helvetica, Arial-Unicode, Arial, Sans-serif" fill="#000000">from Noun Project</text></svg>