<svg xmlns="http://www.w3.org/2000/svg" version="1.1" viewBox="-5.0 -10.0 110.0 135.0">
 <path d="m79 45.301c0.078125-3.0117-1.0508-5.8281-3.1719-7.9492l-11.898-11.898c-2.1484-2.1484-4.8594-3.3711-7.6406-3.4414h-0.30078c-2.8906 0-5.6094 1.1211-7.6602 3.1719l-24.898 24.898c-2.1484 2.1484-3.3711 4.8594-3.4414 7.6406-0.078125 3.0117 1.0508 5.8281 3.1719 7.9492l9.5898 9.5898c1.1289 1.1289 2.6406 1.7617 4.2383 1.7617h39.828c1.1211 0 2.0703-0.78906 2.1602-1.8008 0.058594-0.57812-0.12891-1.1289-0.51172-1.5508-0.37891-0.42188-0.92188-0.66016-1.4805-0.66016h-21.512l20.07-20.07c2.1484-2.1484 3.3711-4.8594 3.4414-7.6406zm-29.172 27.699h-13.66l-10.172-10.172c-1.2695-1.2695-2-3.0312-2-4.8281 0-1.8008 0.71094-3.5391 2-4.8281l14.672-14.672 21.828 21.828-12.672 12.672zm23.172-23.172-7.6719 7.6719-21.828-21.828 7.6719-7.6719c1.2891-1.2891 3-2 4.8281-2s3.5391 0.71094 4.8281 2l12.172 12.172c1.2891 1.2891 2 3 2 4.8281s-0.73047 3.5586-2 4.8281z"/>
<text x="0.0" y="117.5" font-size="5.0" font-weight="bold" font-family="Arbeit Regular, Helvetica, Arial-Unicode, Arial, Sans-serif" fill="#000000">Created by Gregor Cresnar</text><text x="0.0" y="122.5" font-size="5.0" font-weight="bold" font-family="Arbeit Regular, Helvetica, Arial-Unicode, Arial, Sans-serif" fill="#000000">from Noun Project</text></svg>