<svg xmlns="http://www.w3.org/2000/svg" version="1.1" viewBox="-5.0 -10.0 110.0 135.0">
 <path d="m74.855 77.77c-0.80469-0.37891-1.5625-0.85156-2.2578-1.4102-3.7227-2.8867-8.5312-3.9883-13.141-3.0117l8.6328-8.6328c2.3594-2.3789 3.1602-5.8906 2.0625-9.0547-1.0039-1.6797-0.8125-3.8164 0.47656-5.2891l4.7227-4.7031c0.95703 0.88672 2.2031 2.8281 3.6367 1.4805l7.7031-7.7031c1.4414-1.543-0.90625-2.9062-1.7891-3.9453l6.6172-4.4648c0.375-0.25781 0.61719-0.66797 0.66016-1.1211 0.042968-0.44922-0.11719-0.89844-0.43359-1.2227l-10.207-10.203c-0.32422-0.32031-0.76953-0.48047-1.2227-0.43359-0.45312 0.042968-0.86328 0.28125-1.1172 0.65625l-4.4688 6.6172c-1.0273-0.85938-2.3867-3.2383-3.9453-1.7891l-7.7031 7.7031c-1.3477 1.4414 0.60547 2.6836 1.4883 3.6445l-4.7266 4.7109c-1.4531 1.293-3.582 1.4883-5.2461 0.48047-3.1719-1.1094-6.6953-0.30078-9.0703 2.0742l-30.148 30.129c-0.28516 0.28516-0.44531 0.67188-0.44531 1.0781s0.16016 0.79297 0.44531 1.0781l0.027344 0.027344c-0.10156 0.011718-0.19141 0.019531-0.29297 0.035156-2.4805 0.31641-4.9219 0.85938-7.3008 1.625l1.0117 2.875v0.003906c2.1836-0.69531 4.4258-1.1914 6.6992-1.4805 5.9023-0.90234 11.934-0.39844 17.605 1.4727 2.9766 1.1055 6.1016 1.7812 9.2695 2 7.6094 0.47656 10.859-2.0547 11.406-2.3477 3.2656-1.7578 10.133-4.9609 16.902 0.10156 6.8789 5.8945 17.211 2.3828 20.848-0.47656l-1.7852-2.4727c-0.074219 0.058594-7.7305 5.457-14.914 1.9688zm5.8359-55.82 7.5898 7.5898-5.5742 3.7656-5.7773-5.7773zm-8.8242 4.8242 11.594 11.594-5.5469 5.5469-11.594-11.594zm-37.711 49.352c-2.5469-0.88281-5.1875-1.4805-7.8672-1.7812l16.777-16.777c1.8281 4.3281 5.2695 7.7734 9.5938 9.6016l-10.727 10.727c-2.6562-0.24219-5.2734-0.83984-7.7773-1.7695zm21.176-11.637c-3.3828 0.51953-10.113-6.2031-9.5938-9.5938 2.2266-0.25391 4.3477 1.6133 6.25 3.3438 3.1484 3.1484 3.7188 5.8789 3.3477 6.2539zm-3.5391 11.82 0.003906 0.003906c-1.7148 0.9375-3.6133 1.4844-5.5625 1.5938l11.262-11.262c3.7422-3.8672-4.082-12.727-8.7617-14.312-2.9609-1.1797-4.4922-0.23828-5.1602 0.41016l-21.328 21.328c-0.92188-0.011718-1.8789 0.007813-2.875 0.050782l-0.76172-0.76172 29.074-29.059 0.003906 0.003907c1.9297-1.8125 4.8047-2.1836 7.1289-0.91406 2.5117 0.875 5.3047 0.23828 7.1914-1.6406l4.7188-4.707 6.4688 6.4688-4.7266 4.7109c-1.8672 1.8906-2.4961 4.6797-1.6211 7.1875 1.2656 2.332 0.89844 5.2109-0.91797 7.1484l-13.203 13.203c-0.35156 0.20312-0.74609 0.41016-0.92969 0.55078z"/>
<text x="0.0" y="117.5" font-size="5.0" font-weight="bold" font-family="Arbeit Regular, Helvetica, Arial-Unicode, Arial, Sans-serif" fill="#000000">Created by Darwin Mulya</text><text x="0.0" y="122.5" font-size="5.0" font-weight="bold" font-family="Arbeit Regular, Helvetica, Arial-Unicode, Arial, Sans-serif" fill="#000000">from Noun Project</text></svg>