<svg xmlns="http://www.w3.org/2000/svg" data-name="Layer 1" viewBox="0 0 128 160" x="0px" y="0px"><title>miscellaneous 449 final</title><path d="M108.39063,108.73535l-23.10449-7.28607V98h16.71094a6.99976,6.99976,0,0,0,6.62109-9.271L96.93066,54.65723a5.975,5.975,0,0,0-4.23633-3.87939l-3.39093-.83728a5.96921,5.96921,0,0,1-.38342,4.0257l2.81439.69489a1.99194,1.99194,0,0,1,1.41309,1.293L104.835,90.02686A2.99994,2.99994,0,0,1,101.99707,94H83.38281l.10449-17.42871h5.0459a2.0001,2.0001,0,0,0,2-2V67.75a2,2,0,0,0-4,0v4.82129H81.499a2.00045,2.00045,0,0,0-2,1.98828l-.0116,1.94647-.7384-.23065L68.71094,58.89746a4.28544,4.28544,0,0,0-7.42187,0L51.251,76.27539l-.7384.23071-.0116-1.94653a2.00045,2.00045,0,0,0-2-1.98828H43.4668V67.75a2,2,0,0,0-4,0v6.82129a2.0001,2.0001,0,0,0,2,2h5.0459L46.61719,94H28.00293A2.99994,2.99994,0,0,1,25.165,90.02686l11.6875-34.07373a1.99133,1.99133,0,0,1,1.41211-1.2915l2.81567-.69531a5.96952,5.96952,0,0,1-.384-4.02545l-3.39166.83746a5.97435,5.97435,0,0,0-4.23535,3.87793L21.38184,88.729A6.99976,6.99976,0,0,0,28.00293,98H44.71387v3.44928l-23.10449,7.28607A9.83071,9.83071,0,0,0,15,118.17041C15,123.59033,19.14258,128,24.23438,128h81.53125c5.0918,0,9.23438-4.40967,9.23438-9.84033A9.827,9.827,0,0,0,108.39063,108.73535ZM53.18945,79.86084a2.0014,2.0014,0,0,0,1.13477-.90869L63,63.93164V74.57129a2,2,0,0,0,4,0V63.93164l8.67578,15.02051a2.0014,2.0014,0,0,0,1.13477.90869l2.65186.82855L79.41876,88H76.65234L66.17969,80.34863a2.00079,2.00079,0,0,0-2.44922.06934L53.27832,89.00391l-2.691.01569-.04968-8.33014ZM48.71387,97.99158a1.98857,1.98857,0,0,0,1.915-2.0033l-.0177-2.96863L54.01172,93a2.00029,2.00029,0,0,0,1.25781-.45459l9.80273-8.05273,9.748,7.12207A1.99927,1.99927,0,0,0,76,92h3.3949l-.0238,3.98828a1.98857,1.98857,0,0,0,1.915,2.0033v3.15149H48.71387ZM57.43748,124H53.5a3.5,3.5,0,0,1,0-7h3.93748Zm48.32815,0H61.43748V113h17a2,2,0,0,0,0-4h-19a2.00011,2.00011,0,0,0-2,2v2H53.5a7.49785,7.49785,0,0,0-6.63184,11H24.23438C21.34766,124,19,121.38477,19,118.15967a5.79842,5.79842,0,0,1,3.81248-5.60986l23.48732-7.40674H83.7002l23.48728,7.40674A5.80252,5.80252,0,0,1,111,118.17041C111,121.38477,108.65234,124,105.76563,124Z"/><path d="M59,27.98242a2.0001,2.0001,0,0,0-2,2v.03516A1.98517,1.98517,0,0,0,59,32a2.00881,2.00881,0,0,0,0-4.01758Z"/><path d="M44.57617,50.86377A1.99943,1.99943,0,0,0,45.623,53.207a20.43316,20.43316,0,0,0,5.74951,1.62964,44.08485,44.08485,0,0,0,2.9649,8.09857l2.45862-4.25745c-.49268-1.25763-.91058-2.54114-1.27283-3.79419a13.40618,13.40618,0,0,0,3.342-.82452A12.98186,12.98186,0,0,0,65,48.9585a12.98186,12.98186,0,0,0,6.13477,5.10059,13.35791,13.35791,0,0,0,3.34393.81775c-.36249,1.25482-.78094,2.54028-1.27435,3.79987L75.663,62.93433a44.07575,44.07575,0,0,0,2.96252-8.09A20.24714,20.24714,0,0,0,84.377,53.207a1.99943,1.99943,0,0,0,1.04688-2.34326,13.33413,13.33413,0,0,0-3.61743-5.95514C84.46033,39.22308,86,33.0661,86,28.60693A20.57347,20.57347,0,0,0,74.96667,10.4743C74.97479,10.31537,75,10.161,75,10a10,10,0,0,0-20,0c0,.161.02527.31537.03339.4743A20.57352,20.57352,0,0,0,44,28.60693c0,4.45917,1.53967,10.61615,4.1936,16.3017A13.33413,13.33413,0,0,0,44.57617,50.86377Zm12.84277-.53418c-3.01953,1.20068-6.35547.53857-8.32129-.07324,2.0249-3.90826,6.75208-6.13635,11.735-6.92389a7.05848,7.05848,0,0,0,1.98773,1.23145A10.152,10.152,0,0,1,57.41895,50.32959Zm15.16211,0a10.152,10.152,0,0,1-5.40149-5.76569,7.05848,7.05848,0,0,0,1.98773-1.23145c4.983.78735,9.71014,3.0152,11.735,6.92389A12.89768,12.89768,0,0,1,72.58105,50.32959ZM65,4a6.00821,6.00821,0,0,1,5.885,4.83875,21.0653,21.0653,0,0,0-11.77,0A6.00821,6.00821,0,0,1,65,4ZM48,28.60693a17.00465,17.00465,0,0,1,34,0,36.25148,36.25148,0,0,1-3.44409,13.82874,24.08425,24.08425,0,0,0-6.73114-2.63831,1.99565,1.99565,0,0,0-3.60114-1.7168C67.27734,39.90869,66.07227,41,65,41s-2.27734-1.09131-3.22363-2.91943a1.99565,1.99565,0,0,0-3.60114,1.7168,24.08425,24.08425,0,0,0-6.73114,2.63831A36.25148,36.25148,0,0,1,48,28.60693Z"/><path d="M56,26h3.78906a2,2,0,0,0,0-4H56a2,2,0,0,0,0,4Z"/><path d="M70.21094,26H74a2,2,0,0,0,0-4H70.21094a2,2,0,0,0,0,4Z"/><path d="M71,27.98242a2.0001,2.0001,0,0,0-2,2v.03516A1.98517,1.98517,0,0,0,71,32a2.00881,2.00881,0,0,0,0-4.01758Z"/><text x="0" y="143" fill="#000000" font-size="5px" font-weight="bold" font-family="'Helvetica Neue', Helvetica, Arial-Unicode, Arial, Sans-serif">Created by WEBTECHOPS LLP</text><text x="0" y="148" fill="#000000" font-size="5px" font-weight="bold" font-family="'Helvetica Neue', Helvetica, Arial-Unicode, Arial, Sans-serif">from the Noun Project</text></svg>