<svg xmlns="http://www.w3.org/2000/svg" xmlns:xlink="http://www.w3.org/1999/xlink" version="1.1" x="0px" y="0px" viewBox="0 0 100 125" style="enable-background:new 0 0 100 100;" xml:space="preserve"><g><path d="M86.87,42.96L54.93,17.44c-2.86-2.31-7-2.32-9.84-0.01L13.13,42.96c-1.29,1.03-1.5,2.92-0.47,4.22   c1.04,1.29,2.92,1.51,4.22,0.47L48.85,22.1c0.67-0.54,1.64-0.54,2.32,0.01l31.96,25.53c0.55,0.44,1.21,0.66,1.87,0.66   c0.88,0,1.75-0.39,2.35-1.13C88.38,45.88,88.17,44,86.87,42.96z"/><path d="M23,48.31c-1.66,0-3,1.34-3,3v25.17c0,4.32,3.51,7.83,7.83,7.83h44.34c4.32,0,7.83-3.51,7.83-7.83V51.31c0-1.66-1.34-3-3-3   s-3,1.34-3,3v25.17c0,1.01-0.82,1.83-1.83,1.83H27.83c-1.01,0-1.83-0.82-1.83-1.83V51.31C26,49.65,24.66,48.31,23,48.31z"/><path d="M77,30c1.66,0,3-1.34,3-3v-3.51c0-3.58-2.91-6.49-6.49-6.49H69c-1.66,0-3,1.34-3,3s1.34,3,3,3h4.51   c0.27,0,0.49,0.22,0.49,0.49V27C74,28.66,75.34,30,77,30z"/></g><text x="0" y="115" fill="#000000" font-size="5px" font-weight="bold" font-family="'Helvetica Neue', Helvetica, Arial-Unicode, Arial, Sans-serif">Created by Besticons</text><text x="0" y="120" fill="#000000" font-size="5px" font-weight="bold" font-family="'Helvetica Neue', Helvetica, Arial-Unicode, Arial, Sans-serif">from the Noun Project</text></svg>