<svg xmlns="http://www.w3.org/2000/svg" xmlns:xlink="http://www.w3.org/1999/xlink" xml:space="preserve" version="1.1" style="shape-rendering:geometricPrecision;text-rendering:geometricPrecision;image-rendering:optimizeQuality;" viewBox="0 0 4058 5072.5" x="0px" y="0px" fill-rule="evenodd" clip-rule="evenodd"><defs><style type="text/css">
   
    .fil0 {fill:black;fill-rule:nonzero}
   
  </style></defs><g><path class="fil0" d="M2029 0c560,0 1068,227 1435,594 367,368 594,875 594,1435 0,560 -227,1068 -594,1435 -367,367 -875,594 -1435,594 -560,0 -1067,-227 -1435,-594 -367,-367 -594,-875 -594,-1435 0,-560 227,-1067 594,-1435 368,-367 875,-594 1435,-594zm1315 714c-336,-337 -801,-545 -1315,-545 -513,0 -978,208 -1315,545 -337,337 -545,802 -545,1315 0,514 208,979 545,1315 337,337 802,545 1315,545 514,0 979,-208 1315,-545 337,-336 545,-801 545,-1315 0,-513 -208,-978 -545,-1315zm-1334 1624l388 670 161 -1620 -549 950zm405 -1037l-1287 915 738 35 549 -950zm-32 2019l-520 -900 -987 -47c-25,-1 -49,-13 -65,-35 -27,-38 -18,-91 20,-118l1801 -1281c16,-12 37,-18 58,-16 46,5 80,46 75,93l-225 2267c-2,27 -17,53 -42,68 -40,23 -92,9 -115,-31z"/></g><text x="0" y="4073" fill="#000000" font-size="5px" font-weight="bold" font-family="'Helvetica Neue', Helvetica, Arial-Unicode, Arial, Sans-serif">Created by Jenie Tomboc</text><text x="0" y="4078" fill="#000000" font-size="5px" font-weight="bold" font-family="'Helvetica Neue', Helvetica, Arial-Unicode, Arial, Sans-serif">from the Noun Project</text></svg>