<svg xmlns="http://www.w3.org/2000/svg" version="1.1" viewBox="-5.0 -10.0 110.0 135.0">
 <path d="m39 52.129c-0.050781-3.6992 2.2188-7.1094 5.6602-8.4883 0.80859-0.32812 1.3398-1.0312 1.3398-1.7891v-0.28906c0-0.62891-0.28906-1.1797-0.80078-1.5391-0.32031-0.21875-0.67969-0.33984-1.0508-0.33984-0.21875 0-0.42969 0.039062-0.64063 0.12109-5.3398 1.9805-8.7617 7.1289-8.4883 12.82 0.30859 6.6211 5.7383 12.051 12.359 12.359 5.6602 0.26953 10.84-3.1406 12.82-8.4883 0.21094-0.57812 0.12891-1.1797-0.21875-1.6914-0.35938-0.51953-0.91016-0.80078-1.5391-0.80078h-0.28906c-0.76172 0-1.4609 0.53125-1.7891 1.3398-1.3906 3.4609-4.8203 5.7188-8.5 5.6602-4.8086-0.070312-8.7891-4.0508-8.8594-8.8711z"/>
 <path d="m46.199 79.941c14.469 0.91016 27.441-9.5898 29.52-23.91 0.070312-0.5-0.070312-0.98047-0.42188-1.3789-0.35938-0.42188-0.89062-0.66016-1.4414-0.66016h-0.28906c-0.92188 0-1.6914 0.67969-1.8398 1.6094-1.9414 12.789-13.57 21.68-26.469 20.238-11-1.2305-19.879-10.109-21.109-21.109-1.4414-12.898 7.4492-24.531 20.238-26.469 0.92969-0.14062 1.6094-0.91016 1.6094-1.8281v-0.28906c0-0.55078-0.23828-1.0781-0.66016-1.4414-0.39063-0.33984-0.87891-0.48828-1.3789-0.41016-14.309 2.0781-24.82 15.039-23.898 29.512 0.87891 14.02 12.121 25.262 26.141 26.141z"/>
 <path d="m63 43h12.828c1.1211 0 2.0703-0.78906 2.1602-1.8008 0.050781-0.57812-0.12891-1.1289-0.51172-1.5508-0.37891-0.42188-0.92187-0.66016-1.4805-0.66016h-12.172l15.59-15.59c0.37109-0.37109 0.58984-0.89063 0.58984-1.4102 0-1.1016-0.89844-2-2-2-0.53125 0-1.0391 0.21094-1.4102 0.58984l-15.59 15.59v-12.172c0-0.55859-0.23828-1.1016-0.66016-1.4805-0.37109-0.33984-0.83984-0.51953-1.3398-0.51953h-0.19922c-1.0117 0.10156-1.8008 1.0508-1.8008 2.1602v12.828c0 3.3086 2.6914 6 6 6z"/>
<text x="0.0" y="117.5" font-size="5.0" font-weight="bold" font-family="Arbeit Regular, Helvetica, Arial-Unicode, Arial, Sans-serif" fill="#000000">Created by Gregor Cresnar</text><text x="0.0" y="122.5" font-size="5.0" font-weight="bold" font-family="Arbeit Regular, Helvetica, Arial-Unicode, Arial, Sans-serif" fill="#000000">from Noun Project</text></svg>