<?xml version="1.0" encoding="UTF-8" standalone="no"?>
<svg
   version="1.1"
   viewBox="-5.0 -10.0 110.0 135.0"
   id="svg3"
   sodipodi:docname="noun-device-7884777.svg"
   inkscape:version="1.4.3 (0d15f75, 2025-12-25)"
   xmlns:inkscape="http://www.inkscape.org/namespaces/inkscape"
   xmlns:sodipodi="http://sodipodi.sourceforge.net/DTD/sodipodi-0.dtd"
   xmlns="http://www.w3.org/2000/svg"
   xmlns:svg="http://www.w3.org/2000/svg">
  <defs
     id="defs3" />
  <sodipodi:namedview
     id="namedview3"
     pagecolor="#505050"
     bordercolor="#ffffff"
     borderopacity="1"
     inkscape:showpageshadow="0"
     inkscape:pageopacity="0"
     inkscape:pagecheckerboard="1"
     inkscape:deskcolor="#505050"
     inkscape:zoom="5.7259259"
     inkscape:cx="55.012937"
     inkscape:cy="67.5"
     inkscape:window-width="1920"
     inkscape:window-height="991"
     inkscape:window-x="-9"
     inkscape:window-y="-9"
     inkscape:window-maximized="1"
     inkscape:current-layer="svg3" />
  <path
     d="m62 8.0039h-24c-6.6172 0-12 5.3828-12 11.996v60c0 6.6172 5.3828 12 12 12h24c6.6172 0 12-5.3828 12-12v-60c0-6.6133-5.3828-11.996-12-11.996zm6 71.996c0 3.3086-2.6914 6-6 6h-24c-3.3086 0-6-2.6914-6-6v-60c0-3.3086 2.6914-5.9961 6-5.9961h24c3.3086 0 6 2.6914 6 5.9961z"
     id="path1" />
  <path
     d="m44 74h12v6h-12z"
     id="path2" />
</svg>
