<svg xmlns="http://www.w3.org/2000/svg" version="1.1" viewBox="-5.0 -10.0 110.0 135.0">
 <path d="m24.738 54.117c2.4609-0.35938 13.438-0.21094 13.438-0.21094 3.6094 0 5.668 2.3047 7.1992 5.3516 0.79297 1.5703 1.4336 3.3516 2.3594 4.7266 0.53906 0.80078 1.1797 1.457 2.2656 1.457 1.1484 0 1.8828-0.69531 2.5078-1.5391 1.0078-1.3633 1.7383-3.1211 2.5547-4.6797 1.6133-3.0703 3.6602-5.3164 6.7656-5.3164h5.6016c2.7148 0 5.375-0.14844 7.8359 0.21094 2.875 0.41797 5.5039 1.4766 7.7461 3.9258 4.0586 4.4297 6.3516 10.434 6.3516 16.699v9.7812c0 6.3906-5.1797 11.57-11.57 11.57h-55.582c-6.3906 0-11.57-5.1797-11.57-11.57v-9.7812c0-6.2656 2.293-12.27 6.3516-16.699 2.2422-2.4453 4.8711-3.5078 7.7461-3.9258zm13.438 4.4766s-9.6133-0.10156-11.5 0.027344c-2.3164 0.16406-4.4766 0.67578-6.2266 2.5859-3.2891 3.5859-5.1211 8.457-5.1211 13.531v9.7812c0 3.8047 3.082 6.8828 6.8828 6.8828h55.582c3.8047 0 6.8828-3.082 6.8828-6.8828v-9.7812c0-5.0742-1.8359-9.9453-5.1211-13.531-1.7539-1.9141-3.9141-2.4258-6.2266-2.5859-1.8867-0.13281-3.875-0.027344-5.8984-0.027344h-5.6016c-0.64062 0-1.0547 0.42188-1.4492 0.91406-0.76562 0.96484-1.3594 2.2656-2 3.5547-1.8477 3.7109-4.1523 7.0703-8.375 7.0703-3.6133 0-5.668-2.3047-7.2031-5.3516-0.78906-1.5742-1.4297-3.3516-2.3594-4.7305-0.53906-0.80078-1.1797-1.457-2.2617-1.457zm11.824-54.688c12.438 0 22.539 10.098 22.539 22.539 0 7.1875-3.4766 16.18-8.8672 22.215-3.8203 4.2734-8.582 7.0508-13.672 7.0508s-9.8516-2.7734-13.672-7.0508c-5.3867-6.0352-8.8672-15.027-8.8672-22.215 0-12.441 10.102-22.539 22.539-22.539zm0 4.6875c-9.8516 0-17.852 7.9961-17.852 17.852 0 6.1836 3.0391 13.898 7.6758 19.094 2.8672 3.2109 6.3516 5.4844 10.176 5.4844s7.3047-2.2734 10.176-5.4844c4.6328-5.1953 7.6758-12.91 7.6758-19.094 0-9.8516-8-17.852-17.852-17.852z" fill-rule="evenodd"/>
<text x="0.0" y="117.5" font-size="5.0" font-weight="bold" font-family="Arbeit Regular, Helvetica, Arial-Unicode, Arial, Sans-serif" fill="#000000">Created by Fauzin Photo</text><text x="0.0" y="122.5" font-size="5.0" font-weight="bold" font-family="Arbeit Regular, Helvetica, Arial-Unicode, Arial, Sans-serif" fill="#000000">from Noun Project</text></svg>