<svg xmlns="http://www.w3.org/2000/svg" xmlns:xlink="http://www.w3.org/1999/xlink" version="1.1" x="0px" y="0px" viewBox="-909 491 100 125" style="enable-background:new -909 491 100 100;" xml:space="preserve"><path d="M-836.3,513.6c-9-8.8-21.4-8.8-22.6-8.8h-21.7v14.5h21.8h0c0.2,0,7.6,0.1,12.3,4.7c2.8,2.7,4.1,6.6,4.1,11.9  c0,16-13.7,17.9-16.8,18.1h-2.7v-5.7c0-2.7-1.9-3.8-4.2-2.4l-22.5,13c-2.3,1.3-2.3,3.5,0,4.9l22.5,13c2.3,1.3,4.2,0.2,4.2-2.4v-5.7  h3.1l0.2,0c10.6-0.5,30.7-8,30.7-32.7C-827.8,526.6-830.6,519.1-836.3,513.6z"/><text x="-909" y="606" fill="#000000" font-size="5px" font-weight="bold" font-family="'Helvetica Neue', Helvetica, Arial-Unicode, Arial, Sans-serif">Created by Ryan Dell</text><text x="-909" y="611" fill="#000000" font-size="5px" font-weight="bold" font-family="'Helvetica Neue', Helvetica, Arial-Unicode, Arial, Sans-serif">from the Noun Project</text></svg>