<svg xmlns="http://www.w3.org/2000/svg" version="1.1" viewBox="-5.0 -10.0 110.0 135.0">
 <path d="m41.383 34.816c1.1602 0 2.2695 0.42188 3.1367 1.1953 2.3828 2.1758 1.5938 5.8359 0.91406 7.8242-0.21484 0.64453-0.39844 1.2617-0.5625 1.8789l-9.4883 36.609c-0.63672 2.3516-0.13281 4.9219 1.3438 6.8789 1.3477 1.7422 3.3984 2.8789 6.0859 3.3711 4.5469 0.84375 9.2578-0.47266 12.922-3.6094 4.3789-3.75 7.7578-8.9102 8.8828-10.73l-2.5273-2.5273-5.1328 6.5859c-0.77344 1.0039-1.8164 1.7773-3.0156 2.2383-1.3008 0.48047-2.3711 0.44141-3.1992-0.11328-0.88672-0.59375-1.3672-1.6914-1.4297-3.2617-0.042969-0.82422 0.070312-1.7148 0.32812-2.6406l14.027-48.504-23.711 3.0781-0.054687 1.7305h1.3828 0.085938zm4.1562 60.062c-1.0312 0-2.0664-0.09375-3.0977-0.28516-3.1992-0.58594-5.6719-1.9805-7.3477-4.1445-1.8633-2.4727-2.4961-5.7031-1.6992-8.6523l9.4883-36.605c0.17578-0.66406 0.37109-1.3203 0.60156-2.0156 0.42188-1.2266 1.2227-4.2109-0.33984-5.6406-0.49609-0.44141-1.1445-0.68359-1.8164-0.66797h-0.019531-2.457c-0.27734 0-0.54297-0.11328-0.73828-0.3125-0.19531-0.19922-0.29688-0.46875-0.28906-0.74609l0.11719-3.6641c0.015625-0.50391 0.39453-0.92188 0.89453-0.98438l26.133-3.3906c0.34375-0.042969 0.6875 0.085938 0.91016 0.35156 0.22656 0.26172 0.30469 0.62109 0.20703 0.95312l-14.457 50.004c-0.19531 0.69922-0.28516 1.3711-0.25 1.9805 0.03125 0.83984 0.22656 1.4492 0.51562 1.6445 0.24219 0.16406 0.71875 0.125 1.332-0.10156 0.83203-0.32031 1.5703-0.86719 2.1172-1.5742l5.8477-7.5078c0.18359-0.23047 0.45312-0.375 0.74609-0.39453 0.29688-0.019531 0.58203 0.089844 0.78906 0.30078l3.918 3.918c0.32812 0.32812 0.39453 0.83594 0.16406 1.2383-0.16406 0.28906-4.0898 7.1094-9.7344 11.945-3.3125 2.8398-7.3945 4.3516-11.535 4.3516z" fill-rule="evenodd"/>
 <path d="m51.203 7.1758c-4.4609 0-8.0938 3.6289-8.0938 8.0938 0 4.4609 3.6289 8.0938 8.0938 8.0938 4.4609 0 8.0898-3.6289 8.0898-8.0938 0-4.4609-3.6289-8.0938-8.0898-8.0938zm0 18.238c-5.5938 0-10.148-4.5508-10.148-10.148 0-5.5938 4.5547-10.148 10.148-10.148s10.148 4.5508 10.148 10.148c0 5.5938-4.5508 10.148-10.148 10.148z" fill-rule="evenodd"/>
<text x="0.0" y="117.5" font-size="5.0" font-weight="bold" font-family="Arbeit Regular, Helvetica, Arial-Unicode, Arial, Sans-serif" fill="#000000">Created by Circlon Tech</text><text x="0.0" y="122.5" font-size="5.0" font-weight="bold" font-family="Arbeit Regular, Helvetica, Arial-Unicode, Arial, Sans-serif" fill="#000000">from Noun Project</text></svg>