<?xml version="1.0" encoding="UTF-8" standalone="no"?>
<!--?xml version="1.0" encoding="UTF-8"?-->

<svg
   width="64"
   height="64"
   viewBox="0 0 64 64"
   version="1.1"
   id="svg2"
   sodipodi:docname="no_padding_red_zap_image_64x64.svg"
   inkscape:version="1.4.3 (0d15f75, 2025-12-25)"
   xmlns:inkscape="http://www.inkscape.org/namespaces/inkscape"
   xmlns:sodipodi="http://sodipodi.sourceforge.net/DTD/sodipodi-0.dtd"
   xmlns="http://www.w3.org/2000/svg"
   xmlns:svg="http://www.w3.org/2000/svg">
  <defs
     id="defs2" />
  <sodipodi:namedview
     id="namedview2"
     pagecolor="#505050"
     bordercolor="#ffffff"
     borderopacity="1"
     inkscape:showpageshadow="0"
     inkscape:pageopacity="0"
     inkscape:pagecheckerboard="1"
     inkscape:deskcolor="#505050"
     showgrid="false"
     inkscape:zoom="12.078125"
     inkscape:cx="41.769728"
     inkscape:cy="31.917206"
     inkscape:window-width="1920"
     inkscape:window-height="991"
     inkscape:window-x="-9"
     inkscape:window-y="-9"
     inkscape:window-maximized="1"
     inkscape:current-layer="svg2" />
  <!-- TRUE_BLACK background -->
  <rect
     x="0"
     y="0"
     width="64"
     height="64"
     fill="#0A0B0B"
     id="rect1" />
  <!-- Dark Red rounded border -->
  <rect
     x="1.8060268"
     y="1.9716157"
     width="60.235287"
     height="60.235291"
     rx="9.4117651"
     ry="9.4117641"
     fill="none"
     stroke="#7a1e1e"
     stroke-width="3.76471"
     id="rect2" />
  <path
     d="m 23.325981,23.698892 c 1.1602,0 2.2695,0.229647 3.1367,0.65065 2.3828,1.184373 1.5938,3.176711 0.91406,4.259021 -0.21484,0.350843 -0.39844,0.686793 -0.5625,1.02276 l -9.4883,19.927726 c -0.63672,1.280068 -0.13281,2.679185 1.3438,3.744457 1.3477,0.948348 3.3984,1.567099 6.0859,1.835023 4.5469,0.459287 9.2578,-0.257288 12.922,-1.964739 4.3789,-2.041273 7.7578,-4.850174 8.8828,-5.840763 l -2.5273,-1.375709 -5.1328,3.584965 c -0.77344,0.546463 -1.8164,0.967455 -3.0156,1.218395 -1.3008,0.261539 -2.3711,0.240277 -3.1992,-0.06166 -0.88672,-0.323201 -1.3672,-0.920696 -1.4297,-1.775472 -0.04297,-0.448655 0.07031,-0.933434 0.32812,-1.437383 l 14.027,-26.402645 -23.711,1.675532 -0.05469,0.94198 h 1.3828 0.08594 z m 4.1562,32.694122 c -1.0312,0 -2.0664,-0.05104 -3.0977,-0.155224 -3.1992,-0.31895 -5.6719,-1.078065 -7.3477,-2.256015 -1.8633,-1.345989 -2.4961,-3.104423 -1.6992,-4.709789 l 9.4883,-19.925549 c 0.17578,-0.361474 0.37109,-0.718691 0.60156,-1.09717 0.42188,-0.667688 1.2227,-2.29216 -0.33984,-3.070402 -0.49609,-0.240277 -1.1445,-0.372105 -1.8164,-0.363603 h -0.01953 -2.457 c -0.27734,0 -0.54297,-0.06167 -0.73828,-0.170105 -0.19531,-0.108444 -0.29688,-0.25516 -0.28906,-0.406127 l 0.11719,-1.994515 c 0.01563,-0.274298 0.39453,-0.501815 0.89453,-0.535836 l 26.133,-1.845638 c 0.34375,-0.02339 0.6875,0.04678 0.91016,0.191368 0.22656,0.142465 0.30469,0.338084 0.20703,0.518821 l -14.457,27.219154 c -0.19531,0.380613 -0.28516,0.746344 -0.25,1.078064 0.03125,0.457158 0.22656,0.788857 0.51562,0.895167 0.24219,0.0893 0.71875,0.06805 1.332,-0.05528 0.83203,-0.174357 1.5703,-0.472046 2.1172,-0.856899 l 5.8477,-4.086792 c 0.18359,-0.125455 0.45312,-0.204128 0.74609,-0.214759 0.29688,-0.01063 0.58203,0.0489 0.78906,0.163727 l 3.918,2.132722 c 0.32812,0.178609 0.39453,0.455035 0.16406,0.674056 -0.16406,0.157347 -4.0898,3.869927 -9.7344,6.502135 -3.3125,1.545816 -7.3945,2.368748 -11.535,2.368748 z"
     fill-rule="evenodd"
     id="path1-8"
     style="fill:#7a1e1e;fill-opacity:1;stroke-width:0.737794" />
  <path
     d="m 33.944145,8.6532392 c -4.4609,0 -8.0938,1.9753538 -8.0938,4.4057758 0,2.428244 3.6289,4.405775 8.0938,4.405775 4.4609,0 8.0898,-1.975354 8.0898,-4.405775 0,-2.428245 -3.6289,-4.4057758 -8.0898,-4.4057758 z m 0,9.9276638 c -5.5938,0 -10.148,-2.47718 -10.148,-5.523957 0,-3.044927 4.5547,-5.5239576 10.148,-5.5239576 5.5933,0 10.148,2.4771806 10.148,5.5239576 0,3.044926 -4.5508,5.523957 -10.148,5.523957 z"
     fill-rule="evenodd"
     id="path2"
     style="fill:#7a1e1e;fill-opacity:1;stroke-width:0.737794" />
</svg>
