<?xml version="1.0" encoding="UTF-8" standalone="no"?>
<!--?xml version="1.0" encoding="UTF-8"?-->

<svg
   width="64"
   height="64"
   viewBox="0 0 64 64"
   version="1.1"
   id="svg2"
   sodipodi:docname="no_padding_red_zap_image_64x64.svg"
   inkscape:version="1.4.3 (0d15f75, 2025-12-25)"
   xmlns:inkscape="http://www.inkscape.org/namespaces/inkscape"
   xmlns:sodipodi="http://sodipodi.sourceforge.net/DTD/sodipodi-0.dtd"
   xmlns="http://www.w3.org/2000/svg"
   xmlns:svg="http://www.w3.org/2000/svg">
  <defs
     id="defs2" />
  <sodipodi:namedview
     id="namedview2"
     pagecolor="#505050"
     bordercolor="#ffffff"
     borderopacity="1"
     inkscape:showpageshadow="0"
     inkscape:pageopacity="0"
     inkscape:pagecheckerboard="1"
     inkscape:deskcolor="#505050"
     showgrid="false"
     inkscape:zoom="12.078125"
     inkscape:cx="41.769728"
     inkscape:cy="31.917206"
     inkscape:window-width="1920"
     inkscape:window-height="991"
     inkscape:window-x="-9"
     inkscape:window-y="-9"
     inkscape:window-maximized="1"
     inkscape:current-layer="svg2" />
  <!-- TRUE_BLACK background -->
  <rect
     x="0"
     y="0"
     width="64"
     height="64"
     fill="#0A0B0B"
     id="rect1" />
  <!-- Dark Red rounded border -->
  <rect
     x="1.8060268"
     y="1.9716157"
     width="60.235287"
     height="60.235291"
     rx="9.4117651"
     ry="9.4117641"
     fill="none"
     stroke="#7a1e1e"
     stroke-width="3.76471"
     id="rect2" />
  <path
     d="m 53.650332,32.780442 c -0.187481,5.324693 -2.249819,10.324445 -5.770134,14.158142 l 3.599667,0.130901 c 0.920769,0.03378 1.637343,0.814951 1.604013,1.748162 -0.03333,0.912077 -0.770756,1.629902 -1.662353,1.629902 h -0.06249 l -7.495308,-0.270245 c -0.920768,-0.03378 -1.637342,-0.814951 -1.604012,-1.748162 l 0.266642,-7.59659 c 0.03333,-0.933211 0.808246,-1.655252 1.724854,-1.625686 0.920769,0.03378 1.637342,0.81495 1.604012,1.748161 l -0.116656,3.340068 c 2.787257,-3.196514 4.424599,-7.279863 4.578718,-11.629188 0.174986,-4.961539 -1.566522,-9.690991 -4.903707,-13.322004 -3.337185,-3.631013 -7.870206,-5.734061 -12.765754,-5.911882 -10.086535,-0.350476 -18.610548,7.668475 -18.968915,17.908063 -0.358303,10.239588 7.566235,18.862028 17.669302,19.229562 1.562362,0.0549 3.108033,-0.08445 4.599575,-0.418037 0.899917,-0.198462 1.787354,0.375808 1.987336,1.283665 0.199982,0.912077 -0.370798,1.811506 -1.266549,2.01419 -1.512341,0.337807 -3.074703,0.510931 -4.649598,0.510931 -0.262477,0 -0.524948,-0.0042 -0.787447,-0.01267 C 25.448596,53.74082 20.090691,51.262137 16.145455,46.967834 12.200006,42.677694 10.141743,37.082809 10.350257,31.221733 10.77105,19.119616 20.820223,9.6188781 32.768986,10.053973 c 11.936498,0.4307 21.306299,10.623876 20.881272,22.725993 z m -26.02693,-7.963584 c 0.783288,-0.489819 1.02492,-1.532776 0.541604,-2.322432 -0.483288,-0.793872 -1.50818,-1.038768 -2.291468,-0.548921 -3.470506,2.166176 -5.541355,5.924313 -5.541355,10.054199 0,6.519393 5.23285,11.823224 11.665589,11.823224 6.432739,0 11.665589,-5.303561 11.665589,-11.823224 0,-4.100105 -2.049837,-7.845757 -5.482693,-10.024473 -0.779075,-0.49404 -1.808153,-0.253355 -2.295628,0.536269 -0.487454,0.789603 -0.249977,1.832587 0.529119,2.326648 2.45396,1.558126 3.916331,4.231012 3.916331,7.161496 0,4.657513 -3.737148,8.445161 -8.332563,8.445161 -4.595416,0 -8.332564,-3.787648 -8.332564,-8.445161 0,-2.947347 1.47901,-5.632989 3.957981,-7.182575 z m 6.041043,3.804566 v -8.445161 c 0,-0.93321 -0.745745,-1.689031 -1.666513,-1.689031 -0.920769,0 -1.666513,0.755821 -1.666513,1.689031 v 8.445161 c 0,0.93321 0.745744,1.689032 1.666513,1.689032 0.920768,0 1.666513,-0.755822 1.666513,-1.689032 z"
     id="path1"
     style="fill:#7a1e1e;fill-opacity:1;stroke-width:0.536875" />
</svg>
