<?xml version="1.0" encoding="UTF-8" standalone="no"?>
<!--?xml version="1.0" encoding="UTF-8"?-->

<svg
   width="64"
   height="64"
   viewBox="0 0 64 64"
   version="1.1"
   id="svg2"
   sodipodi:docname="no_padding_red_zap_image_64x64.svg"
   inkscape:version="1.4.3 (0d15f75, 2025-12-25)"
   xmlns:inkscape="http://www.inkscape.org/namespaces/inkscape"
   xmlns:sodipodi="http://sodipodi.sourceforge.net/DTD/sodipodi-0.dtd"
   xmlns="http://www.w3.org/2000/svg"
   xmlns:svg="http://www.w3.org/2000/svg">
  <defs
     id="defs2" />
  <sodipodi:namedview
     id="namedview2"
     pagecolor="#505050"
     bordercolor="#ffffff"
     borderopacity="1"
     inkscape:showpageshadow="0"
     inkscape:pageopacity="0"
     inkscape:pagecheckerboard="1"
     inkscape:deskcolor="#505050"
     showgrid="false"
     inkscape:zoom="12.078125"
     inkscape:cx="41.769728"
     inkscape:cy="25.293661"
     inkscape:window-width="1920"
     inkscape:window-height="991"
     inkscape:window-x="-9"
     inkscape:window-y="-9"
     inkscape:window-maximized="1"
     inkscape:current-layer="svg2" />
  <!-- TRUE_BLACK background -->
  <rect
     x="0"
     y="0"
     width="64"
     height="64"
     fill="#0A0B0B"
     id="rect1" />
  <!-- Dark Red rounded border -->
  <rect
     x="1.8060268"
     y="1.9716157"
     width="60.235287"
     height="60.235291"
     rx="9.4117651"
     ry="9.4117641"
     fill="none"
     stroke="#7a1e1e"
     stroke-width="3.76471"
     id="rect2" />
  <path
     d="m 19.298381,9.5097032 c -0.835409,0 -1.674583,0.332469 -2.310083,0.9801168 l -6.096723,6.213181 c -1.271,1.295278 -1.271,3.413092 0,4.710288 L 21.278549,32.004083 10.891575,42.589465 c -1.271,1.295278 -1.271,3.413093 0,4.710289 l 6.096723,6.219084 c 1.270999,1.295278 3.351001,1.295278 4.622001,0 L 31.997272,42.928044 42.389557,53.518838 c 1.270999,1.295278 3.345353,1.295278 4.616352,0 l 6.102517,-6.219084 c 1.270999,-1.295278 1.270999,-3.413092 0,-4.710289 L 42.716142,32.004083 53.108426,21.413289 c 1.270999,-1.295277 1.270999,-3.413092 0,-4.710288 L 47.005909,10.48982 c -1.270999,-1.2952772 -3.345353,-1.2952772 -4.616352,0 L 31.997272,21.075203 21.610299,10.48982 C 20.972916,9.8421822 20.133742,9.5097032 19.298333,9.5097032 Z m 0,1.4048408 c 0.482756,0 0.959863,0.188334 1.333226,0.570792 l 10.876972,11.084739 c 0.128229,0.132603 0.30361,0.207556 0.488404,0.207556 0.182921,0 0.358297,-0.07495 0.488404,-0.207556 L 43.362358,11.485336 c 0.748658,-0.762958 1.923492,-0.762958 2.67215,0 l 6.096723,6.213181 c 0.748658,0.762958 0.748658,1.956397 0,2.717387 L 41.25426,31.504579 v 0.0019 c -0.130117,0.132603 -0.203665,0.311329 -0.203665,0.497734 0,0.186415 0.07354,0.367059 0.203665,0.497733 l 10.876971,11.084739 c 0.748658,0.762959 0.748658,1.960234 0,2.723193 l -6.096723,6.21318 c -0.748658,0.762958 -1.923492,0.762958 -2.67215,0 L 32.485387,41.434401 c -0.130117,-0.132602 -0.305493,-0.207555 -0.488404,-0.207555 -0.184804,0 -0.360179,0.07495 -0.488404,0.207555 L 20.631607,52.523076 c -0.748657,0.762958 -1.919726,0.762958 -2.666453,0 l -6.102516,-6.21318 c -0.748658,-0.762959 -0.748658,-1.960234 0,-2.723193 L 22.743471,32.501964 c 0.130117,-0.130679 0.203665,-0.311328 0.203665,-0.497733 0,-0.186415 -0.07354,-0.365141 -0.203665,-0.497734 L 11.862638,20.417823 c -0.748658,-0.762959 -0.748658,-1.956397 0,-2.717388 l 6.102516,-6.21318 c 0.373383,-0.380515 0.850471,-0.570792 1.333227,-0.570792 z"
     id="path1"
     style="fill:#7a1e1e;fill-opacity:1;stroke-width:0.487345" />
</svg>
