<?xml version="1.0" encoding="UTF-8" standalone="no"?>
<!--?xml version="1.0" encoding="UTF-8"?-->

<svg
   width="64"
   height="64"
   viewBox="0 0 64 64"
   version="1.1"
   id="svg2"
   sodipodi:docname="no_padding_red_zap_image_64x64.svg"
   inkscape:version="1.4.3 (0d15f75, 2025-12-25)"
   xmlns:inkscape="http://www.inkscape.org/namespaces/inkscape"
   xmlns:sodipodi="http://sodipodi.sourceforge.net/DTD/sodipodi-0.dtd"
   xmlns="http://www.w3.org/2000/svg"
   xmlns:svg="http://www.w3.org/2000/svg">
  <defs
     id="defs2" />
  <sodipodi:namedview
     id="namedview2"
     pagecolor="#505050"
     bordercolor="#ffffff"
     borderopacity="1"
     inkscape:showpageshadow="0"
     inkscape:pageopacity="0"
     inkscape:pagecheckerboard="1"
     inkscape:deskcolor="#505050"
     showgrid="false"
     inkscape:zoom="12.078125"
     inkscape:cx="41.769728"
     inkscape:cy="31.917206"
     inkscape:window-width="1920"
     inkscape:window-height="991"
     inkscape:window-x="-9"
     inkscape:window-y="-9"
     inkscape:window-maximized="1"
     inkscape:current-layer="svg2" />
  <!-- TRUE_BLACK background -->
  <rect
     x="0"
     y="0"
     width="64"
     height="64"
     fill="#0A0B0B"
     id="rect1" />
  <!-- Dark Red rounded border -->
  <rect
     x="1.8060268"
     y="1.9716157"
     width="60.235287"
     height="60.235291"
     rx="9.4117651"
     ry="9.4117641"
     fill="none"
     stroke="#7a1e1e"
     stroke-width="3.76471"
     id="rect2" />
  <path
     d="m 41.830723,7.5008417 c -0.764386,0 -1.425956,0.6356625 -1.538789,1.4782997 -0.05064,0.3782978 -0.09989,0.7671645 -0.14675,1.1588636 -0.58764,0.19743 -1.157147,0.460968 -1.697922,0.786157 -0.279556,-0.238868 -0.560683,-0.474909 -0.837667,-0.703727 -0.613513,-0.5069237 -1.483706,-0.4338671 -2.024054,0.169903 l -1.354053,1.512505 c -0.540605,0.603671 -0.606424,1.575876 -0.152609,2.261276 0.204162,0.308343 0.415565,0.62237 0.630008,0.935691 -0.29095,0.604151 -0.526887,1.240206 -0.703633,1.896609 -0.350494,0.05235 -0.698619,0.107268 -1.037461,0.163925 -0.754534,0.126132 -1.323599,0.865113 -1.323599,1.719044 V 21.0188 c 0,0.853828 0.568898,1.592721 1.323431,1.718853 0.338927,0.05666 0.686883,0.111673 1.037462,0.163924 0.176746,0.656306 0.412764,1.292361 0.7038,1.89661 -0.214272,0.31313 -0.425751,0.627054 -0.630341,0.935877 -0.45356,0.685111 -0.387912,1.65733 0.152607,2.260717 l 1.354222,1.512692 c 0.540432,0.603862 1.410626,0.677105 2.024052,0.17028 0.277071,-0.228818 0.558025,-0.465055 0.837666,-0.703732 0.541033,0.325189 1.110623,0.588639 1.698091,0.78597 0.04669,0.391509 0.09586,0.780463 0.146582,1.159051 0.112919,0.842734 0.774571,1.478299 1.538957,1.478299 h 1.915287 c 0.764385,0 1.425956,-0.635466 1.538789,-1.478485 0.05063,-0.378588 0.09989,-0.767259 0.146751,-1.158865 0.587554,-0.197238 1.156975,-0.460968 1.697923,-0.786156 0.279554,0.238868 0.56068,0.475001 0.837665,0.703918 0.613342,0.506918 1.483706,0.433675 2.024053,-0.170094 l 1.35439,-1.512692 c 0.540518,-0.603671 0.606088,-1.575601 0.152272,-2.260903 -0.204419,-0.30873 -0.415821,-0.622845 -0.630007,-0.93569 0.29095,-0.604153 0.526887,-1.240109 0.703634,-1.89661 0.350493,-0.05234 0.698786,-0.107268 1.037627,-0.163925 0.754533,-0.126132 1.3236,-0.865113 1.3236,-1.719039 v -2.139412 c -8.6e-5,-0.853931 -0.569152,-1.592912 -1.3236,-1.719044 -0.338927,-0.05666 -0.687049,-0.111672 -1.037627,-0.163925 -0.176661,-0.656212 -0.412512,-1.29236 -0.703634,-1.896609 0.214529,-0.313419 0.426009,-0.627436 0.630342,-0.935877 0.453645,-0.685308 0.387911,-1.657237 -0.152607,-2.260717 l -1.35439,-1.512692 c -0.540518,-0.6038631 -1.410543,-0.6770127 -2.023885,-0.170089 -0.27707,0.22901 -0.558107,0.465143 -0.837833,0.703913 C 46.588611,10.59916 46.019189,10.335621 45.43155,10.138191 45.384686,9.7465904 45.335518,9.3576352 45.284799,8.9791414 45.171966,8.1364111 44.510395,7.5008417 43.74601,7.5008417 Z m 0.266561,2.0837103 h 1.381998 c 0.04464,0.3436609 0.08781,0.694275 0.128847,1.045972 0.0813,0.696116 0.523588,1.266003 1.126648,1.451565 0.577274,0.177718 1.134509,0.4357 1.655922,0.766533 0.54446,0.345572 1.218224,0.291894 1.716162,-0.135883 0.250768,-0.215328 0.503399,-0.429212 0.754168,-0.638126 L 49.837915,13.166 c -0.186341,0.278968 -0.377902,0.561352 -0.57144,0.842421 -0.383049,0.556399 -0.430596,1.308819 -0.121483,1.916798 0.296175,0.582622 0.527133,1.205064 0.68623,1.849694 0.166123,0.673729 0.676061,1.167668 1.299169,1.258487 0.315024,0.04591 0.629153,0.09416 0.936895,0.144115 v 1.543531 c -0.307742,0.04986 -0.621703,0.09827 -0.936728,0.144109 -0.623109,0.09082 -1.133299,0.584768 -1.299336,1.258302 -0.159097,0.644918 -0.390055,1.267268 -0.68623,1.849693 -0.30937,0.607984 -0.261571,1.360301 0.12165,1.916983 0.193195,0.280595 0.38476,0.562988 0.571273,0.842049 l -0.976886,1.091575 c -0.250597,-0.208915 -0.503485,-0.422985 -0.754168,-0.638308 -0.49811,-0.428257 -1.171788,-0.481078 -1.716162,-0.135888 -0.521499,0.330926 -1.078739,0.588815 -1.655754,0.766532 -0.603318,0.185656 -1.045602,0.755362 -1.12665,1.451194 -0.04104,0.351888 -0.08429,0.702776 -0.129013,1.04653 h -1.381831 c -0.04463,-0.343754 -0.08789,-0.694554 -0.129013,-1.046153 -0.08131,-0.696122 -0.523503,-1.265915 -1.12665,-1.451571 -0.577187,-0.177619 -1.134085,-0.435415 -1.655755,-0.766346 -0.544374,-0.345474 -1.218137,-0.292462 -1.716161,0.135702 -0.250769,0.215416 -0.503399,0.429393 -0.754167,0.638308 l -0.977054,-1.091575 c 0.186512,-0.27935 0.377987,-0.561542 0.571439,-0.842421 0.382964,-0.55649 0.430768,-1.308814 0.121484,-1.916797 -0.296176,-0.582425 -0.527133,-1.20478 -0.68623,-1.849507 -0.166122,-0.673725 -0.676061,-1.167669 -1.299169,-1.258488 -0.315025,-0.04591 -0.629152,-0.09425 -0.936894,-0.1443 v -1.543341 c 0.307742,-0.04986 0.621702,-0.09827 0.936727,-0.144114 0.623108,-0.09082 1.1333,-0.584954 1.299336,-1.258487 0.159097,-0.644826 0.389801,-1.267171 0.686063,-1.849694 C 36.740777,15.31705 36.69314,14.56454 36.31009,14.008049 36.116553,13.727072 35.924992,13.44487 35.738651,13.166 l 0.977054,-1.091387 c 0.250597,0.208914 0.503236,0.422896 0.753833,0.638126 0.497938,0.428252 1.171693,0.481641 1.716495,0.136069 0.521328,-0.330832 1.078486,-0.588908 1.655588,-0.766719 0.603317,-0.185655 1.045601,-0.75536 1.126649,-1.451193 0.04113,-0.351888 0.08438,-0.7025901 0.129014,-1.046344 z m 0.691083,5.924038 c -2.191975,0 -3.975317,1.991931 -3.975317,4.440504 0,2.448666 1.783257,4.440686 3.975317,4.440686 2.19206,0 3.975317,-1.99202 3.975317,-4.440686 0,-2.448573 -1.783257,-4.440504 -3.975317,-4.440504 z m 0,1.973806 c 1.217602,0 2.2082,1.106426 2.208286,2.466507 0,1.360184 -0.990684,2.466884 -2.208286,2.466884 -1.217516,0 -2.208287,-1.1067 -2.208287,-2.466884 0,-1.360179 0.990685,-2.466507 2.208287,-2.466507 z m -22.082864,6.556363 c -0.21652,0.0071 -0.434334,0.05725 -0.643058,0.153831 l -2.434687,1.126338 c -0.834638,0.386246 -1.300012,1.414558 -1.081971,2.391745 0.129796,0.582333 0.267337,1.176062 0.409127,1.766147 -0.748021,0.66023 -1.426367,1.418222 -2.017862,2.254921 -0.530837,-0.159147 -1.062522,-0.312684 -1.581793,-0.457191 -0.875077,-0.243743 -1.795319,0.276372 -2.141187,1.208769 l -1.008344,2.719407 c -0.3456953,0.932593 -0.02363,2.027069 0.74898,2.545762 0.460498,0.309107 0.933732,0.620399 1.407768,0.925969 -0.111206,1.059009 -0.111451,2.130504 -4.83e-4,3.188367 -0.474464,0.30576 -0.947449,0.616871 -1.407433,0.925597 -0.77261,0.518786 -1.0947611,1.61326 -0.74898,2.545947 l 1.008679,2.719594 c 0.345782,0.932402 1.265768,1.452232 2.141187,1.208582 0.519528,-0.144506 1.051061,-0.298146 1.580956,-0.457004 0.591238,0.835552 1.269649,1.593088 2.018699,2.25399 -0.142219,0.592284 -0.279841,1.186191 -0.409295,1.766705 -0.218041,0.977187 0.247162,2.005499 1.081971,2.391744 l 2.434687,1.126531 c 0.22618,0.104596 0.463041,0.154575 0.697274,0.154575 0.630734,0 1.243451,-0.361697 1.582464,-0.991015 0.274586,-0.510368 0.553098,-1.038881 0.828798,-1.572504 0.947985,0.124123 1.907485,0.1243 2.854356,4.9e-4 0.272358,0.527498 0.550878,1.056021 0.828463,1.572132 0.464526,0.863211 1.444169,1.222677 2.279236,0.836439 l 2.434686,-1.126529 c 0.834639,-0.386246 1.300181,-1.414553 1.08214,-2.391745 -0.128769,-0.577355 -0.266477,-1.170898 -0.409296,-1.76596 0.74785,-0.660231 1.426363,-1.418218 2.018029,-2.254921 0.529295,0.158574 1.060903,0.312301 1.58146,0.45719 0.874819,0.243748 1.795486,-0.276082 2.141353,-1.208769 L 38.989939,45.3343 c 0.34561,-0.932594 0.02346,-2.027255 -0.749147,-2.545948 -0.461184,-0.309587 -0.934585,-0.620693 -1.407935,-0.925783 0.111291,-1.059397 0.111703,-2.131077 6.71e-4,-3.188367 0.475149,-0.306241 0.948142,-0.617347 1.407098,-0.925597 0.772782,-0.518693 1.094928,-1.612977 0.749147,-2.545761 v -1.87e-4 l -1.008512,-2.719593 c -0.345867,-0.932495 -1.266106,-1.452134 -2.141354,-1.208582 -0.520128,0.144604 -1.051572,0.298337 -1.581124,0.457003 -0.591238,-0.835649 -1.269649,-1.593367 -2.018699,-2.254176 0.142048,-0.591612 0.279757,-1.185519 0.409296,-1.766704 0.218041,-0.977187 -0.247163,-2.005407 -1.081972,-2.391745 l -2.4347,-1.126338 c -0.834809,-0.386437 -1.814709,-0.02695 -2.279234,0.836434 -0.276642,0.514292 -0.555326,1.043089 -0.828798,1.57269 -0.948156,-0.124314 -1.9074,-0.124677 -2.854357,-9.9e-4 -0.274347,-0.531222 -0.552867,-1.05975 -0.82848,-1.571936 -0.348523,-0.647407 -0.98678,-1.011643 -1.636345,-0.990264 z m 0.0099,2.225204 c 0.264219,0.492469 0.530902,0.999545 0.793322,1.508767 0.370798,0.71918 1.084795,1.118552 1.817566,1.016057 0.84192,-0.117037 1.696795,-0.116954 2.540943,4.9e-4 0.734656,0.102206 1.448277,-0.296877 1.818904,-1.016062 0.261563,-0.507591 0.528243,-1.014848 0.79349,-1.509325 l 2.237904,1.0355 c -0.125255,0.558215 -0.257585,1.127548 -0.394235,1.694181 -0.193196,0.801391 0.05919,1.647242 0.643059,2.154931 0.670743,0.583288 1.27523,1.258335 1.796815,2.006327 0.454073,0.651425 1.210895,0.932892 1.928674,0.717186 0.507106,-0.152547 1.01647,-0.300366 1.515865,-0.440183 l 0.927021,2.499595 c -0.441479,0.295618 -0.895434,0.593504 -1.350707,0.886344 -0.643841,0.414091 -1.001029,1.210871 -0.909787,2.030253 0.10478,0.940443 0.104702,1.895547 -3.34e-4,2.838283 -0.09133,0.82024 0.265525,1.617656 0.909452,2.031747 0.453731,0.291792 0.907927,0.589673 1.351376,0.88653 l -0.926854,2.499968 c -0.50008,-0.139911 -1.009853,-0.287822 -1.516701,-0.440369 -0.717607,-0.215608 -1.47476,0.06612 -1.929176,0.718308 -0.52227,0.749329 -1.126766,1.424745 -1.796481,2.007268 -0.583185,0.507399 -0.835083,1.352888 -0.641888,2.153989 0.137336,0.569794 0.269584,1.138946 0.394068,1.693624 l -2.237904,1.035314 c -0.266189,-0.49611 -0.532788,-1.003088 -0.793323,-1.508767 -0.370713,-0.719087 -1.084108,-1.117504 -1.817565,-1.016062 -0.842263,0.116851 -1.697232,0.11667 -2.540608,-4.91e-4 -0.735514,-0.102014 -1.448445,0.296593 -1.819071,1.015872 -0.263706,0.511421 -0.530381,1.018483 -0.793658,1.50933 l -2.237904,-1.035505 c 0.12517,-0.557642 0.257666,-1.126789 0.394402,-1.69381 0.193196,-0.801483 -0.05936,-1.647609 -0.643225,-2.155297 -0.67083,-0.583288 -1.275232,-1.25834 -1.796817,-2.006327 -0.454072,-0.651621 -1.21107,-0.932898 -1.928506,-0.717187 -0.507448,0.152641 -1.01698,0.300646 -1.516032,0.440365 l -0.927021,-2.499781 c 0.442079,-0.296094 0.89612,-0.59398 1.350707,-0.886344 0.643842,-0.414092 1.000944,-1.210871 0.909787,-2.030254 -0.10478,-0.940918 -0.104613,-1.895742 1.67e-4,-2.837905 0.0915,-0.820147 -0.265268,-1.617749 -0.909452,-2.031933 -0.454416,-0.292272 -0.908445,-0.590149 -1.351209,-0.886722 l 0.926854,-2.499781 c 0.498624,0.139626 1.008311,0.287538 1.516701,0.440369 0.717265,0.215902 1.474585,-0.06611 1.929343,-0.718308 0.522184,-0.74933 1.126603,-1.424647 1.796147,-2.007078 0.58327,-0.5073 0.83525,-1.352975 0.642054,-2.15436 -0.136221,-0.565012 -0.268722,-1.133983 -0.394235,-1.693252 l 2.238072,-1.0355 z m 3.927459,6.52982 c -0.86918,-0.0078 -1.753516,0.174474 -2.605868,0.56878 -3.408805,1.57732 -5.033658,5.958434 -3.621576,9.766225 0.683937,1.844711 1.970292,3.281396 3.621576,4.045557 0.825643,0.381939 1.693152,0.572891 2.560689,0.572891 0.867537,0 1.735041,-0.190952 2.560856,-0.572891 3.408805,-1.57732 5.033487,-5.958336 3.621576,-9.766226 v -1.9e-4 c -1.058959,-2.855844 -3.52974,-4.590646 -6.137279,-4.614146 z m -0.0512,2.193056 c 1.856303,0 3.621067,1.228814 4.374571,3.260517 0.997677,2.690503 -0.15037,5.786141 -2.559015,6.900661 -1.166711,0.539841 -2.451844,0.539748 -3.618898,0 -1.166711,-0.539841 -2.075474,-1.555134 -2.558848,-2.85847 -0.997848,-2.690498 0.150285,-5.786234 2.559015,-6.900656 0.589867,-0.272936 1.201228,-0.402052 1.803175,-0.402052 z"
     id="path1"
     style="fill:#7a1e1e;fill-opacity:1;stroke-width:0.463609" />
</svg>
