<?xml version="1.0" encoding="UTF-8" standalone="no"?>
<!--?xml version="1.0" encoding="UTF-8"?-->

<svg
   width="64"
   height="64"
   viewBox="0 0 64 64"
   version="1.1"
   id="svg2"
   sodipodi:docname="no_padding_red_zap_image_64x64.svg"
   inkscape:version="1.4.3 (0d15f75, 2025-12-25)"
   xmlns:inkscape="http://www.inkscape.org/namespaces/inkscape"
   xmlns:sodipodi="http://sodipodi.sourceforge.net/DTD/sodipodi-0.dtd"
   xmlns="http://www.w3.org/2000/svg"
   xmlns:svg="http://www.w3.org/2000/svg">
  <defs
     id="defs2" />
  <sodipodi:namedview
     id="namedview2"
     pagecolor="#505050"
     bordercolor="#ffffff"
     borderopacity="1"
     inkscape:showpageshadow="0"
     inkscape:pageopacity="0"
     inkscape:pagecheckerboard="1"
     inkscape:deskcolor="#505050"
     showgrid="false"
     inkscape:zoom="12.078125"
     inkscape:cx="31.917206"
     inkscape:cy="31.917206"
     inkscape:window-width="1920"
     inkscape:window-height="991"
     inkscape:window-x="-9"
     inkscape:window-y="-9"
     inkscape:window-maximized="1"
     inkscape:current-layer="svg2" />
  <!-- TRUE_BLACK background -->
  <rect
     x="0"
     y="0"
     width="64"
     height="64"
     fill="#0A0B0B"
     id="rect1" />
  <!-- Dark Red rounded border -->
  <rect
     x="1.8060268"
     y="1.9716157"
     width="60.235287"
     height="60.235291"
     rx="9.4117651"
     ry="9.4117641"
     fill="none"
     stroke="#7a1e1e"
     stroke-width="3.76471"
     id="rect2" />
  <path
     d="m 47.759823,34.754575 v -2.629469 c 0,-1.932654 -1.292813,-3.505961 -2.880908,-3.505961 H 43.43846 v -7.01192 c 0,-3.747002 -1.200993,-7.268275 -3.377853,-9.908684 -2.173265,-2.6535913 -5.066712,-4.1150999 -8.145827,-4.1150999 -6.354132,0 -11.523634,6.2910949 -11.523634,14.0238409 v 7.01192 h -1.440454 c -1.588095,0 -2.880909,1.573307 -2.880909,3.50596 v 2.62947 c -1.588095,0 -2.880908,1.573307 -2.880908,3.50596 v 8.7649 c 0,1.932653 1.292813,3.50596 2.880908,3.50596 v 2.629471 c 0,1.932653 1.292814,3.50596 2.880909,3.50596 h 25.928177 c 1.588095,0 2.880908,-1.573307 2.880908,-3.50596 v -2.629471 c 1.588095,0 2.880909,-1.573307 2.880909,-3.50596 v -8.7649 c 0,-1.932653 -1.292814,-3.50596 -2.880909,-3.50596 z M 21.831646,21.606945 c 0,-6.766223 4.523027,-12.2708604 10.08318,-12.2708604 2.693673,0 5.223433,1.2774594 7.126676,3.6002004 1.906793,2.313934 2.95655,5.392616 2.95655,8.67066 v 7.01192 h -2.160681 v -7.01192 c 0,-2.574665 -0.824677,-4.995965 -2.320952,-6.816708 -1.496275,-1.820744 -3.485899,-2.824514 -5.601408,-2.824514 -4.368195,0 -7.922729,4.325457 -7.922729,9.64167 v 7.011921 H 21.8316 Z m 3.601136,7.01192 v -7.01192 c 0,-4.349578 2.90792,-7.88813 6.481814,-7.88813 1.730343,0 3.358079,0.821686 4.582442,2.311746 1.224363,1.490061 1.899602,3.4709 1.899602,5.576664 v 7.01192 z m -7.922729,3.50596 c 0,-0.966354 0.646384,-1.75298 1.440454,-1.75298 h 25.928177 c 0.794071,0 1.440454,0.786626 1.440454,1.75298 v 2.62947 H 17.510053 Z m 28.809085,21.03576 c 0,0.966356 -0.646383,1.752981 -1.440454,1.752981 H 18.950507 c -0.79407,0 -1.440454,-0.786625 -1.440454,-1.752981 v -2.629469 h 28.809085 z m 2.880909,-6.135711 c 0,0.966356 -0.646384,1.752981 -1.440454,1.752981 H 16.069599 c -0.794071,0 -1.440455,-0.786625 -1.440455,-1.752981 v -8.7649 c 0,-0.966354 0.646384,-1.752979 1.440455,-1.752979 h 31.689994 c 0.79407,0 1.440454,0.786625 1.440454,1.752979 z"
     id="path1-4"
     style="fill:#7a1e1e;fill-opacity:1;stroke-width:0.508497" />
  <path
     d="m 43.773568,40.889725 c -0.199861,-0.418521 -0.639193,-0.563141 -0.983105,-0.319917 l -0.792272,0.554379 v -1.110969 c 0,-0.48426 -0.322302,-0.87649 -0.720228,-0.87649 -0.397924,0 -0.720227,0.39223 -0.720227,0.87649 v 1.110969 l -0.790429,-0.556572 c -0.345709,-0.243224 -0.785036,-0.09861 -0.983104,0.319917 -0.198064,0.420716 -0.08102,0.95536 0.262882,1.196402 l 0.790429,0.55876 -0.790429,0.556573 c -0.34571,0.241036 -0.462743,0.775686 -0.264684,1.196401 0.13324,0.280477 0.374517,0.438246 0.624811,0.438246 0.122436,0 0.244877,-0.03725 0.360114,-0.118328 l 0.790429,-0.554379 v 1.110969 c 0,0.48426 0.322302,0.876489 0.720227,0.876489 0.397925,0 0.720227,-0.392229 0.720227,-0.876489 v -1.110969 l 0.790429,0.556573 c 0.113434,0.07889 0.237673,0.118327 0.360113,0.118327 0.248478,0 0.491553,-0.157768 0.624812,-0.438245 0.198064,-0.420715 0.08102,-0.95536 -0.262881,-1.196402 l -0.792274,-0.55876 0.79043,-0.556572 c 0.345709,-0.241037 0.462742,-0.775687 0.264684,-1.196403 z"
     id="path2"
     style="fill:#7a1e1e;fill-opacity:1;stroke-width:0.508497" />
  <path
     d="M 34.410384,40.889725 C 34.210523,40.471204 33.771191,40.326584 33.42728,40.569808 l -0.792273,0.554379 v -1.110969 c 0,-0.48426 -0.322302,-0.87649 -0.720227,-0.87649 -0.397925,0 -0.720227,0.39223 -0.720227,0.87649 v 1.110969 l -0.790429,-0.556572 c -0.345709,-0.243224 -0.785036,-0.09861 -0.983105,0.319917 -0.198063,0.420716 -0.08102,0.95536 0.262882,1.196402 l 0.79043,0.55876 -0.79043,0.556573 c -0.345709,0.241036 -0.462743,0.775686 -0.264684,1.196401 0.133241,0.280477 0.374518,0.438246 0.624812,0.438246 0.122436,0 0.244877,-0.03725 0.360113,-0.118328 l 0.790429,-0.554379 v 1.110969 c 0,0.48426 0.322303,0.876489 0.720227,0.876489 0.397926,0 0.720227,-0.392229 0.720227,-0.876489 v -1.110969 l 0.79043,0.556573 c 0.113434,0.07889 0.237672,0.118327 0.360113,0.118327 0.248478,0 0.491552,-0.157768 0.624812,-0.438245 0.198063,-0.420715 0.08102,-0.95536 -0.262882,-1.196402 l -0.792273,-0.55876 0.790429,-0.556572 c 0.34571,-0.241037 0.462743,-0.775687 0.264684,-1.196403 z"
     id="path3"
     style="fill:#7a1e1e;fill-opacity:1;stroke-width:0.508497" />
  <path
     d="m 25.047662,40.889725 c -0.199861,-0.418521 -0.639193,-0.563141 -0.983104,-0.319917 l -0.792273,0.554379 v -1.110969 c 0,-0.48426 -0.322302,-0.87649 -0.720227,-0.87649 -0.397925,0 -0.720227,0.39223 -0.720227,0.87649 v 1.110969 l -0.790429,-0.556572 c -0.34571,-0.243224 -0.785036,-0.09861 -0.983105,0.319917 -0.198063,0.420716 -0.08103,0.95536 0.262882,1.196402 l 0.790429,0.55876 -0.790429,0.556573 c -0.345709,0.241036 -0.462743,0.775686 -0.264684,1.196401 0.133241,0.280477 0.374518,0.438246 0.624811,0.438246 0.122437,0 0.244878,-0.03725 0.360114,-0.118328 l 0.790429,-0.554379 v 1.110969 c 0,0.48426 0.322302,0.876489 0.720227,0.876489 0.397925,0 0.720227,-0.392229 0.720227,-0.876489 v -1.110969 l 0.79043,0.556573 c 0.113434,0.07889 0.237672,0.118327 0.360113,0.118327 0.248477,0 0.491552,-0.157768 0.624812,-0.438245 0.198063,-0.420715 0.08102,-0.95536 -0.262882,-1.196402 l -0.792273,-0.55876 0.790429,-0.556572 c 0.345709,-0.241037 0.462743,-0.775687 0.264684,-1.196403 z"
     id="path4"
     style="fill:#7a1e1e;fill-opacity:1;stroke-width:0.508497" />
</svg>
