<?xml version="1.0" encoding="UTF-8" standalone="no"?>
<!--?xml version="1.0" encoding="UTF-8"?-->

<svg
   width="64"
   height="64"
   viewBox="0 0 64 64"
   version="1.1"
   id="svg2"
   sodipodi:docname="no_padding_red_base_image_64x64.svg"
   inkscape:version="1.4.3 (0d15f75, 2025-12-25)"
   xmlns:inkscape="http://www.inkscape.org/namespaces/inkscape"
   xmlns:sodipodi="http://sodipodi.sourceforge.net/DTD/sodipodi-0.dtd"
   xmlns="http://www.w3.org/2000/svg"
   xmlns:svg="http://www.w3.org/2000/svg">
  <defs
     id="defs2" />
  <sodipodi:namedview
     id="namedview2"
     pagecolor="#505050"
     bordercolor="#ffffff"
     borderopacity="1"
     inkscape:showpageshadow="0"
     inkscape:pageopacity="0"
     inkscape:pagecheckerboard="1"
     inkscape:deskcolor="#505050"
     showgrid="false"
     inkscape:zoom="12.078125"
     inkscape:cx="31.958603"
     inkscape:cy="32"
     inkscape:window-width="1920"
     inkscape:window-height="991"
     inkscape:window-x="-9"
     inkscape:window-y="-9"
     inkscape:window-maximized="1"
     inkscape:current-layer="svg2" />
  <!-- TRUE_BLACK background -->
  <rect
     x="0"
     y="0"
     width="64"
     height="64"
     fill="#0A0B0B"
     id="rect1" />
  <!-- Dark Red rounded border -->
  <rect
     x="1.8060268"
     y="1.9716157"
     width="60.235287"
     height="60.235291"
     rx="9.4117651"
     ry="9.4117641"
     fill="none"
     stroke="#7a1e1e"
     stroke-width="3.76471"
     id="rect2" />
  <path
     d="M 47.504528,18.162555 A 6.6190391,8.4562163 0 0 0 40.885489,9.706339 h -21.66231 a 6.6190391,8.4562163 0 0 0 -6.619039,8.456216 v 27.67489 a 6.6190391,8.4562163 0 0 0 6.619039,8.456216 h 4.212116 a 1.8051927,2.306241 0 0 0 0,-4.612482 h -4.212116 a 3.0086541,3.8437347 0 0 1 -3.008654,-3.843734 v -27.67489 a 3.0086541,3.8437347 0 0 1 3.008654,-3.843735 h 9.025963 v 6.918723 a 1.8051925,2.3062408 0 0 0 3.610384,0 V 14.31882 h 9.025963 a 3.0086541,3.8437347 0 0 1 3.008654,3.843735 v 15.374939 a 1.8051925,2.3062408 0 0 0 3.610385,0 z"
     id="path1"
     style="fill:#7a1e1e;fill-opacity:1;stroke-width:0.680131" />
  <path
     d="M 50.358758,42.643846 H 37.420207 l 3.062269,-3.000681 a 1.8634496,1.8522725 0 0 0 -1.304415,-3.173561 v 0 a 1.8634496,1.8522725 0 0 0 -1.310626,0.530985 l -5.112064,5.025833 a 3.5094967,3.4884466 0 0 0 0,4.939393 l 5.112064,5.013485 a 1.9069301,1.8954922 0 0 0 2.633675,0 1.8634496,1.8522725 0 0 0 0,-2.617879 l -3.080903,-3.01303 h 12.938551 a 1.8634496,1.8522725 0 0 0 0,-3.704545 z"
     id="path2"
     style="fill:#7a1e1e;fill-opacity:1;stroke-width:0.619284" />
</svg>
